<svg width="35" height="32" viewBox="0 0 35 32" fill="none" xmlns="http://www.w3.org/2000/svg">
<path d="M8.52233 16.6088C6.84204 16.6108 5.48041 17.9724 5.47839 19.6527V22.0878H11.5663V19.6527C11.5643 17.9724 10.2026 16.6108 8.52233 16.6088Z" fill="#D40E14"/>
<path d="M8.52231 14.7824C9.8672 14.7824 10.9575 13.6922 10.9575 12.3473C10.9575 11.0024 9.8672 9.91211 8.52231 9.91211C7.17741 9.91211 6.08716 11.0024 6.08716 12.3473C6.08716 13.6922 7.17741 14.7824 8.52231 14.7824Z" fill="#D40E14"/>
<path d="M10.3444 31.5624C10.7035 32.0434 11.3843 32.1431 11.8663 31.7852L18.3542 26.9581H6.92114L10.3444 31.5624Z" fill="#D40E14"/>
<path d="M23.7463 0.437577C23.3871 -0.0434869 22.7063 -0.143149 22.2243 0.214761L15.7365 5.04183H27.1695L23.7463 0.437577Z" fill="#D40E14"/>
<path d="M0.214794 17.9481L1.21686 19.2929V15.8411L0.435784 16.4218C-0.0439677 16.7839 -0.142561 17.4648 0.214794 17.9481Z" fill="#D40E14"/>
<path d="M22.4586 12.9561H20.7473L22.2084 14.7824H26.6178L24.008 13.216C23.5091 13.0457 22.9858 12.9579 22.4586 12.9561Z" fill="#D40E14"/>
<path d="M30.4387 6.2594H3.65202C2.97957 6.2594 2.43445 6.80453 2.43445 7.47697V24.523C2.43445 25.1955 2.97957 25.7406 3.65202 25.7406H30.4387C31.1111 25.7406 31.6562 25.1955 31.6562 24.523V7.47697C31.6562 6.80453 31.1111 6.2594 30.4387 6.2594ZM14.0014 14.1736H18.2629C18.5991 14.1736 18.8717 14.4462 18.8717 14.7824C18.8717 15.1186 18.5991 15.3912 18.2629 15.3912H14.0014C13.6652 15.3912 13.3926 15.1186 13.3926 14.7824C13.3926 14.4462 13.6652 14.1736 14.0014 14.1736ZM12.7838 22.0879C12.7838 22.7603 12.2387 23.3054 11.5663 23.3054H5.47838C4.80594 23.3054 4.26081 22.7603 4.26081 22.0879V19.6527C4.26394 17.8823 5.36042 16.2979 7.01618 15.6712C5.44878 14.9618 4.5889 13.2549 4.95176 11.5731C5.31463 9.89134 6.80186 8.69077 8.52232 8.69077C10.2428 8.69077 11.73 9.89134 12.0929 11.5731C12.4557 13.2549 11.5959 14.9618 10.0285 15.6712C11.6842 16.2979 12.7807 17.8823 12.7838 19.6527V22.0879ZM13.3926 17.2176C13.3926 16.8813 13.6652 16.6088 14.0014 16.6088H18.2629C18.5991 16.6088 18.8717 16.8813 18.8717 17.2176C18.8717 17.5538 18.5991 17.8264 18.2629 17.8264H14.0014C13.6652 17.8264 13.3926 17.5538 13.3926 17.2176ZM27.4982 20.2615H15.8278C15.4915 20.2615 15.219 19.9889 15.219 19.6527C15.219 19.3165 15.4915 19.0439 15.8278 19.0439H27.4982C28.2247 19.0463 28.8737 18.5901 29.1175 17.9056C29.3613 17.2212 29.1469 16.4575 28.5825 16H21.9156C21.7307 16.0001 21.5558 15.9161 21.4402 15.7717L19.1877 12.9561H15.8278C15.4915 12.9561 15.219 12.6835 15.219 12.3473C15.219 12.011 15.4915 11.7385 15.8278 11.7385H22.4587C23.2051 11.7375 23.9443 11.8849 24.6333 12.1719L29.011 14.7989C30.1442 15.4791 30.6844 16.8317 30.3317 18.1054C29.979 19.3791 28.8199 20.2611 27.4982 20.2615Z" fill="#D40E14"/>
<path d="M33.8758 14.0549L32.8738 12.707V16.1589L33.6549 15.5781C34.1327 15.2162 34.2311 14.5376 33.8758 14.0549Z" fill="#D40E14"/>
</svg>
