<svg width="33" height="32" viewBox="0 0 33 32" fill="none" xmlns="http://www.w3.org/2000/svg">
<path d="M26.431 0C23.3726 0 20.8307 2.25339 20.3782 5.18713H32.4839C32.0313 2.25339 29.4894 0 26.431 0Z" fill="#D40E14"/>
<path d="M32.5559 32.0005V7.0625H20.3069V14.6742H23.3037L30.1539 22.2855V32.0005H32.5559ZM23.3839 9.29014H25.2588V12.1036H23.3839V9.29014ZM27.604 12.1036V9.29014H29.479V12.1036H27.604Z" fill="#D40E14"/>
<path d="M7.19653 7.0625L10.612 10.454H18.4319V7.0625H7.19653Z" fill="#D40E14"/>
<path d="M11.1633 12.3281H18.4322V14.6734H11.1633V12.3281Z" fill="#D40E14"/>
<path d="M2.95798 22.2847L9.28818 15.2511V11.7809L4.92208 7.44531L0.555908 11.7809V31.9996H2.95798V22.2847ZM3.98462 11.751H5.85953V14.5645H3.98462V11.751Z" fill="#D40E14"/>
<path d="M7.17845 24.7562H13.2736V32.0001H15.6188V23.0047L10.226 17.0127L4.83325 23.0047V32.0001H7.17845V24.7562Z" fill="#D40E14"/>
<path d="M27.1112 21.7075L22.4684 16.5488H12.3303L16.9732 21.7075H27.1112Z" fill="#D40E14"/>
<path d="M17.4934 23.582H28.279V31.9998H17.4934V23.582Z" fill="#D40E14"/>
<path d="M9.05298 26.6309H11.3982V31.9999H9.05298V26.6309Z" fill="#D40E14"/>
</svg>
