<svg width="30" height="32" viewBox="0 0 30 32" fill="none" xmlns="http://www.w3.org/2000/svg">
<path d="M11.2224 10.6666V9.33331C11.2224 8.59731 10.6264 8 9.88904 8C9.15173 8 8.55573 8.59731 8.55573 9.33331V10.6666H5.88904V9.33331C5.88904 8.59731 5.29304 8 4.55573 8C3.81835 7.99994 3.22235 8.59725 3.22235 9.33325V10.6666C1.75166 10.6666 0.555664 11.8626 0.555664 13.3332V19.9999H13.889V13.3332C13.889 11.8626 12.693 10.6666 11.2224 10.6666Z" fill="#D40E14"/>
<path d="M0.555664 30.6667C0.555664 31.4027 1.15166 32.0001 1.88898 32.0001H12.5557C13.293 32.0001 13.889 31.4027 13.889 30.6667V22.6667H0.555664V30.6667Z" fill="#D40E14"/>
<path d="M29.889 14.6667H16.5557V20.0001H29.889V14.6667Z" fill="#D40E14"/>
<path d="M16.5557 30.6667C16.5557 31.4027 17.1517 32.0001 17.889 32.0001H28.5557C29.293 32.0001 29.889 31.4027 29.889 30.6667V22.6667H16.5557V30.6667Z" fill="#D40E14"/>
<path d="M27.2224 2.66669V1.33331C27.2224 0.597313 26.6264 0 25.889 0C25.1517 0 24.5557 0.597313 24.5557 1.33331V2.66663H21.889V1.33331C21.889 0.597313 21.293 0 20.5557 0C19.8184 0 19.2224 0.597313 19.2224 1.33331V2.66663C17.7517 2.66663 16.5557 3.86263 16.5557 5.33331V12H29.889V5.33331C29.889 3.86269 28.693 2.66669 27.2224 2.66669Z" fill="#D40E14"/>
</svg>
