<svg width="32" height="32" viewBox="0 0 32 32" fill="none" xmlns="http://www.w3.org/2000/svg">
<path d="M0.560336 24.2788C0.255691 24.2777 0.0078053 24.5236 0.0065918 24.8283V31.4496C0.0065918 31.7542 0.255691 32.0002 0.560336 31.999H11.5901C11.8947 32.0001 12.1426 31.7542 12.1438 31.4496C12.1438 29.0593 12.1438 26.6691 12.1438 24.2788C11.2237 24.2788 10.3037 24.2788 9.38368 24.2788C9.08074 24.2799 8.83545 24.5253 8.83424 24.8283V26.4863H7.73V24.8283C7.73 24.5236 7.4809 24.2777 7.17626 24.2788H4.97419C4.66954 24.2777 4.42165 24.5236 4.42044 24.8283V26.4863H3.31615V24.8283C3.31615 24.5253 3.06964 24.28 2.76671 24.2788H0.560336Z" fill="#D40E14"/>
<path d="M19.8643 24.2786V31.4493C19.8643 31.754 20.1134 31.9999 20.418 31.9988H31.4488C31.7518 31.9977 31.9971 31.7523 31.9983 31.4493V24.828C31.9983 24.5251 31.7518 24.2798 31.4488 24.2786H29.2424C28.9391 24.2791 28.6931 24.5246 28.6919 24.828V26.4861H27.5887V24.828C27.5887 24.5234 27.3396 24.2774 27.035 24.2786H24.8286C24.5252 24.2791 24.2793 24.5247 24.2781 24.828V26.4861H23.1749V24.828C23.1749 24.5251 22.9284 24.2798 22.6255 24.2786C21.7051 24.2786 20.7846 24.2786 19.8643 24.2786Z" fill="#D40E14"/>
<path d="M13.2458 28.6924V31.4482C13.2459 31.5945 13.304 31.7347 13.4074 31.8382C13.5109 31.9416 13.6512 31.9998 13.7974 31.9998H18.2091C18.3554 31.9998 18.4957 31.9416 18.5991 31.8382C18.7026 31.7347 18.7607 31.5945 18.7607 31.4482V28.6924H13.2458Z" fill="#D40E14"/>
<path d="M4.43109 4.86535C4.12193 4.85909 3.86858 5.10974 3.86979 5.41911V7.24729V8.72542V13.0574L2.52959 18.0702C2.4383 18.4181 2.69892 18.7588 3.05856 18.7618H5.78206C5.86604 18.7611 5.94875 18.7413 6.02389 18.7037C6.09903 18.6662 6.16461 18.612 6.21563 18.5453C6.26665 18.4786 6.30177 18.4011 6.3183 18.3188C6.33484 18.2364 6.33235 18.1514 6.31103 18.0702L4.97298 13.0779V9.04537L7.56183 7.54898C7.92726 7.33621 7.92726 6.80834 7.56183 6.59555L4.69613 4.93858C4.61566 4.8923 4.52382 4.86702 4.43109 4.86535Z" fill="#D40E14"/>
<path d="M25.9325 19.8662C25.7862 19.8662 25.6459 19.9243 25.5424 20.0277C25.439 20.1312 25.3809 20.2715 25.3809 20.4177V22.6231C25.3809 22.7694 25.439 22.9097 25.5424 23.0131C25.6459 23.1166 25.7862 23.1747 25.9325 23.1747H29.2431C29.3894 23.1747 29.5297 23.1166 29.6331 23.0131C29.7365 22.9097 29.7947 22.7694 29.7947 22.6231V20.4177C29.7947 20.2715 29.7365 20.1312 29.6331 20.0277C29.5297 19.9243 29.3894 19.8662 29.2431 19.8662H25.9325Z" fill="#D40E14"/>
<path d="M27.6003 4.86544C27.2893 4.8571 27.0334 5.10818 27.0347 5.4192V7.24738V8.7255V13.0736L25.6934 18.0703C25.6021 18.4182 25.8627 18.7589 26.2224 18.7619H28.9502C29.0342 18.7612 29.1169 18.7414 29.192 18.7038C29.2672 18.6663 29.3327 18.6121 29.3838 18.5454C29.4348 18.4787 29.4699 18.4012 29.4864 18.3189C29.503 18.2365 29.5005 18.1515 29.4792 18.0703L28.1378 13.0575V9.04546L30.7277 7.54907C31.0932 7.3363 31.0932 6.80843 30.7277 6.59563L27.861 4.93867C27.7815 4.89301 27.6919 4.86773 27.6003 4.86544Z" fill="#D40E14"/>
<path d="M10.4879 16.5596C10.3416 16.5596 10.2013 16.6177 10.0978 16.7212C9.9944 16.8246 9.93628 16.9649 9.93628 17.1112V22.6228C9.93628 22.7691 9.9944 22.9094 10.0978 23.0129C10.2013 23.1163 10.3416 23.1744 10.4879 23.1744H12.6953C12.7678 23.1745 12.8396 23.189 12.9065 23.2169C12.9735 23.2448 13.0343 23.2856 13.0854 23.3371C13.1365 23.3885 13.177 23.4495 13.2046 23.5166C13.2321 23.5837 13.2461 23.6556 13.2458 23.7282V27.5893H14.349V21.5218C14.349 20.5955 15.0775 19.867 16.0038 19.867C16.9301 19.867 17.6586 20.5955 17.6586 21.5218V27.5893H18.7585V23.7282C18.7582 23.6554 18.7724 23.5832 18.8001 23.5159C18.8278 23.4486 18.8686 23.3874 18.9201 23.3359C18.9716 23.2845 19.0327 23.2437 19.1 23.216C19.1673 23.1883 19.2395 23.1741 19.3123 23.1744H21.5186C21.6649 23.1744 21.8052 23.1163 21.9087 23.0129C22.0121 22.9094 22.0702 22.7691 22.0702 22.6228V17.1112C22.0702 16.9649 22.0121 16.8246 21.9087 16.7212C21.8052 16.6177 21.6649 16.5596 21.5186 16.5596H10.4879Z" fill="#D40E14"/>
<path d="M15.9837 0C15.6871 0.0104238 15.4515 0.253754 15.4504 0.55052V0.89745V3.86115V6.31104L10.6455 14.6291C10.5973 14.7131 10.572 14.8095 10.5723 14.9064C10.5725 15.0033 10.5983 15.0984 10.647 15.1822C10.6957 15.2659 10.7657 15.3354 10.8497 15.3836C10.9338 15.4317 11.0291 15.4569 11.126 15.4565H20.8823C20.9792 15.4569 21.0745 15.4317 21.1586 15.3836C21.2427 15.3354 21.3126 15.2659 21.3613 15.1822C21.41 15.0984 21.4358 15.0033 21.436 14.9064C21.4363 14.8095 21.411 14.7143 21.3628 14.6302L16.5536 6.30353V4.2857L22.3238 2.73759C22.8631 2.58832 22.8631 1.82348 22.3238 1.67421L16.1474 0.0173052C16.0945 0.00271182 16.0385 -0.00208476 15.9837 0Z" fill="#D40E14"/>
<path d="M15.995 20.971C15.6918 20.9773 15.4507 21.2259 15.4541 21.5291V27.5891H16.5573V21.5291C16.5615 21.218 16.3061 20.9652 15.995 20.971Z" fill="#D40E14"/>
<path d="M2.7645 19.8662C2.69206 19.8662 2.62033 19.8805 2.55341 19.9082C2.48649 19.9359 2.42568 19.9765 2.37446 20.0277C2.32323 20.079 2.2826 20.1398 2.25488 20.2067C2.22716 20.2736 2.21289 20.3453 2.21289 20.4177V22.6231C2.21289 22.6955 2.22716 22.7672 2.25488 22.8342C2.2826 22.9011 2.32323 22.9619 2.37446 23.0131C2.42568 23.0644 2.48649 23.105 2.55341 23.1327C2.62033 23.1604 2.69206 23.1747 2.7645 23.1747H6.0751C6.22139 23.1747 6.36169 23.1166 6.46513 23.0131C6.56857 22.9097 6.62668 22.7694 6.62669 22.6231V20.4177C6.62668 20.2715 6.56857 20.1312 6.46513 20.0277C6.36169 19.9243 6.22139 19.8662 6.0751 19.8662H2.7645Z" fill="#D40E14"/>
</svg>
