<svg width="33" height="29" viewBox="0 0 33 29" fill="none" xmlns="http://www.w3.org/2000/svg">
<path d="M21.8057 9.42847H25.3414V10.607H21.8057V9.42847Z" fill="#D40E14"/>
<path d="M21.8057 7.07153H25.3414V8.2501H21.8057V7.07153Z" fill="#D40E14"/>
<path d="M20.0378 11.7857C20.3632 11.7857 20.6271 11.5219 20.6271 11.1964V2.94643C20.6271 1.97007 21.4186 1.17857 22.3949 1.17857C23.3713 1.17857 24.1628 1.97007 24.1628 2.94643C24.1628 3.27188 24.4266 3.53571 24.7521 3.53571C25.0775 3.53571 25.3413 3.27188 25.3413 2.94643C25.3413 1.31916 24.0222 0 22.3949 0C20.7676 0 19.4485 1.31916 19.4485 2.94643V11.1964C19.4485 11.5219 19.7123 11.7857 20.0378 11.7857Z" fill="#D40E14"/>
<path d="M27.1091 11.7857C27.4345 11.7857 27.6983 11.5219 27.6983 11.1964V2.94643C27.6983 1.97007 28.4898 1.17857 29.4662 1.17857C30.4426 1.17857 31.2341 1.97007 31.2341 2.94643C31.2341 3.27188 31.4979 3.53571 31.8233 3.53571C32.1488 3.53571 32.4126 3.27188 32.4126 2.94643C32.4126 1.31916 31.0935 0 29.4662 0C27.8389 0 26.5198 1.31916 26.5198 2.94643V11.1964C26.5198 11.5219 26.7836 11.7857 27.1091 11.7857Z" fill="#D40E14"/>
<path d="M18.2698 10.5442C18.1378 10.6214 18.004 10.6956 17.8762 10.7799C15.4871 12.322 12.5508 12.7641 9.81356 11.9938C9.30477 11.8545 8.77948 11.7845 8.25196 11.7858C5.13853 11.7712 2.55097 14.1812 2.34446 17.2878C2.13796 20.3944 4.38378 23.1256 7.47174 23.5232C8.26532 23.6243 9.0711 23.566 9.84185 23.3517C12.5704 22.5846 15.4972 23.0297 17.8744 24.5733C19.2152 25.4596 20.7875 25.931 22.3948 25.9287C22.7229 25.9295 23.0507 25.9112 23.3766 25.8739C27.1759 25.4152 30.163 22.4074 30.5953 18.605C30.8658 16.2777 30.1249 13.9461 28.5605 12.2019C28.185 12.748 27.5343 13.0368 26.8774 12.9489C26.2204 12.8611 25.6685 12.4115 25.4497 11.7858H21.6971C21.4114 12.597 20.5823 13.0838 19.7347 12.9381C18.8871 12.7924 18.2682 12.0566 18.2698 11.1965V10.5442ZM15.3234 20.0358C14.6741 20.0337 14.0537 19.7674 13.605 19.298C13.3744 19.0189 13.0313 18.8574 12.6692 18.8574C12.3072 18.8574 11.9641 19.0189 11.7335 19.298C11.2866 19.7692 10.6657 20.0361 10.0163 20.0361C9.36686 20.0361 8.74598 19.7692 8.2991 19.298C8.06939 19.0193 7.72713 18.8579 7.36596 18.8579C7.0048 18.8579 6.66253 19.0193 6.43283 19.298C5.98484 19.7673 5.36498 20.0337 4.71624 20.0358C4.39079 20.0358 4.12696 19.772 4.12696 19.4465C4.12696 19.1211 4.39079 18.8572 4.71624 18.8572C5.07643 18.8533 5.41702 18.6926 5.64908 18.417C6.09566 17.9457 6.71639 17.6788 7.36567 17.6788C8.01495 17.6788 8.63568 17.9457 9.08226 18.417C9.3123 18.696 9.65498 18.8576 10.0166 18.8576C10.3782 18.8576 10.7208 18.696 10.9509 18.417C11.3983 17.946 12.0196 17.6793 12.6692 17.6793C13.3189 17.6793 13.9401 17.946 14.3876 18.417C14.621 18.6925 14.9624 18.8531 15.3234 18.8572C15.6488 18.8572 15.9127 19.1211 15.9127 19.4465C15.9127 19.772 15.6488 20.0358 15.3234 20.0358ZM24.5045 18.4165C24.9519 17.9454 25.5731 17.6787 26.2228 17.6787C26.8725 17.6787 27.4937 17.9454 27.9412 18.4165C28.1744 18.6921 28.5159 18.853 28.877 18.8572C29.2024 18.8572 29.4662 19.1211 29.4662 19.4465C29.4662 19.772 29.2024 20.0358 28.877 20.0358C28.2277 20.0337 27.6073 19.7674 27.1586 19.298C26.928 19.0189 26.5848 18.8574 26.2228 18.8574C25.8608 18.8574 25.5176 19.0189 25.287 19.298C24.8402 19.7692 24.2193 20.0361 23.5698 20.0361C22.9204 20.0361 22.2995 19.7692 21.8527 19.298C21.623 19.0193 21.2807 18.8579 20.9195 18.8579C20.5584 18.8579 20.2161 19.0193 19.9864 19.298C19.5384 19.7673 18.9186 20.0337 18.2698 20.0358C17.9444 20.0358 17.6805 19.772 17.6805 19.4465C17.6805 19.1211 17.9444 18.8572 18.2698 18.8572C18.63 18.8533 18.9706 18.6926 19.2027 18.417C19.6492 17.9457 20.27 17.6788 20.9192 17.6788C21.5685 17.6788 22.1892 17.9457 22.6358 18.417C22.8659 18.696 23.2085 18.8576 23.5701 18.8576C23.9317 18.8576 24.2744 18.6954 24.5045 18.4165ZM19.743 14.143C20.3923 14.145 21.0127 14.4114 21.4614 14.8807C21.6941 15.1558 22.0346 15.3166 22.3948 15.3215C22.7203 15.3215 22.9841 15.5854 22.9841 15.9108C22.9841 16.2363 22.7203 16.5001 22.3948 16.5001C21.7455 16.498 21.1251 16.2316 20.6765 15.7623C20.4458 15.4832 20.1027 15.3216 19.7407 15.3216C19.3786 15.3216 19.0355 15.4832 18.8049 15.7623C18.358 16.2335 17.7371 16.5004 17.0877 16.5004C16.4383 16.5004 15.8174 16.2335 15.3705 15.7623C15.1408 15.4836 14.7986 15.3222 14.4374 15.3222C14.0762 15.3222 13.734 15.4836 13.5043 15.7623C13.0563 16.2315 12.4364 16.498 11.7877 16.5001C11.4622 16.5001 11.1984 16.2363 11.1984 15.9108C11.1984 15.5854 11.4622 15.3215 11.7877 15.3215C12.1479 15.3176 12.4884 15.1568 12.7205 14.8813C13.1671 14.41 13.7878 14.1431 14.4371 14.1431C15.0864 14.1431 15.7071 14.41 16.1537 14.8813C16.3837 15.1603 16.7264 15.3219 17.088 15.3219C17.4496 15.3219 17.7923 15.1603 18.0223 14.8813C18.4714 14.4112 19.0928 14.1445 19.743 14.143Z" fill="#D40E14"/>
<path d="M28.877 9.29315V10.843C29.0538 11.0115 29.2306 11.1865 29.4073 11.3822C31.2163 13.3784 32.0755 16.0582 31.7645 18.7341C31.2698 23.08 27.8567 26.5182 23.5145 27.0448C23.1428 27.0872 22.769 27.108 22.3948 27.1073C20.5575 27.1103 18.7598 26.5723 17.2262 25.5604C15.1344 24.203 12.5594 23.812 10.1589 24.4873C9.23717 24.7425 8.27393 24.8122 7.32504 24.6924C4.71873 24.3306 2.52884 22.5516 1.64078 20.0747C0.752728 17.5978 1.31339 14.8326 3.09609 12.8972C4.87878 10.9618 7.58865 10.1763 10.13 10.8583C12.5385 11.541 15.1243 11.1546 17.228 9.79758C17.5618 9.5796 17.9099 9.38431 18.2698 9.21301V7.91187C17.6801 8.16222 17.1135 8.46412 16.5768 8.81406C14.7603 9.98548 12.5271 10.3177 10.4483 9.72569C7.43469 8.89441 4.21013 9.83784 2.11988 12.1624C0.541865 13.9027 -0.211595 16.2376 0.0514888 18.572C0.309198 20.9843 1.61754 23.1601 3.62733 24.5188C5.63711 25.8775 8.14378 26.2808 10.4783 25.6211C12.5506 25.0337 14.7758 25.3726 16.5792 26.5504C18.6613 27.9255 21.1648 28.515 23.6418 28.2133C27.9224 27.7117 31.4729 24.6677 32.6222 20.5138C33.7716 16.36 32.2909 11.9239 28.877 9.29315Z" fill="#D40E14"/>
</svg>
