<svg width="36" height="33" viewBox="0 0 36 33" fill="none" xmlns="http://www.w3.org/2000/svg">
<path d="M19.79 26.6633H18.5033V25.5009C18.5033 24.8973 18.0122 24.4062 17.4087 24.4062H15.2992C14.6956 24.4062 14.2046 24.8973 14.2046 25.5009V26.6633H12.9179C12.4594 26.6633 12.0878 27.035 12.0878 27.4934V32.1699C12.0878 32.6283 12.4594 33 12.9179 33H19.7902C20.2487 33 20.6203 32.6283 20.6203 32.1699V27.4934C20.6202 27.035 20.2485 26.6633 19.79 26.6633ZM17.396 26.6633H15.3116V25.5135H17.396V26.6633Z" fill="#D40E14"/>
<path d="M20.257 8.41586L18.801 7.96985C18.522 7.88436 18.2266 8.04127 18.1411 8.32029L17.6947 9.77762C17.7889 9.76705 17.8837 9.76103 17.978 9.76103C18.8321 9.7611 19.6006 10.187 20.0628 10.8535L20.6074 9.07577C20.6928 8.79682 20.536 8.50135 20.257 8.41586Z" fill="#D40E14"/>
<path d="M30.0753 4.14995C29.5118 3.81723 28.9892 3.40308 27.6298 3.40308C26.2974 3.40308 25.7629 3.80868 25.2201 4.11837C25.1204 5.54244 26.2478 6.72419 27.6465 6.72419C29.0365 6.72412 30.1556 5.55792 30.0753 4.14995Z" fill="#D40E14"/>
<path d="M33.5662 10.264C33.5585 8.73983 32.3122 7.49969 30.788 7.49969H29.5847C28.3878 10.6264 28.82 9.49741 28.1294 11.3017L28.4725 9.68534C28.4966 9.57177 28.4791 9.45337 28.4232 9.35178L27.9519 8.49477L28.3708 7.73292C28.3998 7.68005 28.3989 7.61585 28.3682 7.56396C28.3375 7.51201 28.2817 7.48022 28.2214 7.48022H27.0717C27.0114 7.48022 26.9555 7.51208 26.9249 7.56396C26.8943 7.61585 26.8933 7.68005 26.9223 7.73292L27.3412 8.49477L26.8682 9.35493C26.7579 9.55567 26.79 9.65145 27.1177 11.3017C26.3821 9.41507 26.6689 10.1272 25.6774 7.49969H24.4853C22.9611 7.49969 21.7148 8.73976 21.7071 10.264L21.6864 14.376H24.0345L24.0551 10.276C24.0557 10.151 24.1574 10.0502 24.2823 10.0505C24.4073 10.0508 24.5084 10.1522 24.5084 10.2772V14.3762H30.7268V10.2746C30.7268 10.1389 30.8368 10.029 30.9725 10.0289C31.1082 10.0289 31.2182 10.1388 31.2182 10.2745C31.2182 10.275 31.2182 10.2754 31.2182 10.2759L31.2387 14.3762H33.5868L33.5662 10.264ZM27.6317 13.3923C27.405 13.3923 27.2138 13.2082 27.2138 12.9745C27.2138 12.7418 27.4041 12.5566 27.6317 12.5566C27.8517 12.5566 28.0495 12.7374 28.0495 12.9745C28.0495 13.2129 27.8506 13.3923 27.6317 13.3923Z" fill="#D40E14"/>
<path d="M34.6269 15.842H11.1274V18.2857H34.6269C35.3016 18.2857 35.8487 17.7387 35.8487 17.0639C35.8487 16.389 35.3017 15.842 34.6269 15.842Z" fill="#D40E14"/>
<path d="M19.2316 12.0698C19.1043 11.377 18.4392 10.9178 17.7459 11.0452L14.0558 11.723L12.0323 8.15668C11.6273 7.44293 10.866 6.99951 10.0453 6.99951C9.3575 6.99951 3.76077 6.99951 3.06683 6.99951C1.41002 6.99951 0.0552601 8.34741 0.0469981 10.0041L1.67312e-05 19.3791C-0.00355413 20.0839 0.564913 20.658 1.2697 20.6616C1.27187 20.6616 1.27411 20.6616 1.27629 20.6616C1.97799 20.6616 2.5487 20.0945 2.5522 19.3919L2.59932 10.0169V10.0168C2.6001 9.87714 2.71366 9.76455 2.85321 9.76497C2.99282 9.76539 3.10562 9.87868 3.10569 10.0182C3.10576 13.206 3.10625 31.4685 3.10625 31.4685C3.10625 32.3142 3.79185 32.9999 4.63759 32.9999C5.48325 32.9999 6.16893 32.3143 6.16893 31.4685V19.2286H6.8301V31.4686C6.8301 32.3143 7.5157 32.9999 8.36144 32.9999C9.20717 32.9999 9.89278 32.3143 9.89278 31.4686C9.89271 11.36 9.86519 22.5751 9.86484 9.79151C9.86484 9.76259 9.88431 9.73724 9.91224 9.72982C9.94025 9.7224 9.96973 9.73458 9.98408 9.75972L12.2839 13.7717C12.5527 14.2456 13.0916 14.495 13.6243 14.3971L18.207 13.5553C18.9002 13.428 19.3588 12.763 19.2316 12.0698Z" fill="#D40E14"/>
<path d="M6.49912 0.866699C5.03843 0.866699 3.85437 2.05083 3.85437 3.51145C3.85437 4.97109 5.03969 6.1562 6.49912 6.1562C7.96135 6.1562 9.14387 4.97074 9.14387 3.51145C9.14387 2.05923 7.96821 0.866699 6.49912 0.866699Z" fill="#D40E14"/>
<path d="M29.6495 0H25.6438C25.4654 0 25.3209 0.144585 25.3209 0.322848V2.99847C25.8764 2.68158 26.7045 2.48021 27.63 2.48021C28.574 2.48021 29.417 2.68956 29.9724 3.01745V0.322848C29.9724 0.144445 29.8278 0 29.6495 0Z" fill="#D40E14"/>
</svg>
