<svg width="37" height="32" viewBox="0 0 37 32" fill="none" xmlns="http://www.w3.org/2000/svg">
<path d="M35.5427 26.0002H12.2109C11.843 26.0002 11.5443 25.7016 11.5443 25.3336V16.6676C11.5443 16.2996 11.2457 16.001 10.8777 16.001H2.87828C2.51034 16.001 2.21169 16.2996 2.21169 16.6676V18.6674C2.21169 18.9734 2.41964 19.2401 2.71634 19.314L4.87822 19.8547V26.0003H1.54501C1.17707 26.0003 0.878418 26.2989 0.878418 26.6669V28.6667C0.878418 29.0347 1.17707 29.3333 1.54501 29.3333H4.87814C4.87814 30.8039 6.07408 31.9998 7.5446 31.9998C9.01513 31.9998 10.2111 30.8039 10.2111 29.3333H12.2109C12.2109 30.8039 13.4069 31.9998 14.8774 31.9998C16.348 31.9998 17.5438 30.8039 17.5438 29.3333H19.5437C19.5437 30.8039 20.7396 31.9998 22.2102 31.9998C23.6807 31.9998 24.8766 30.8039 24.8766 29.3333H26.8765C26.8765 30.8039 28.0724 31.9998 29.5429 31.9998C31.0135 31.9998 32.2094 30.8039 32.2094 29.3333H35.5425C35.9105 29.3333 36.2091 29.0347 36.2091 28.6667V26.6669C36.2093 26.2989 35.9106 26.0002 35.5427 26.0002Z" fill="#D40E14"/>
<path d="M33.5428 18.001H30.2097V16.6677C30.2097 15.7917 29.6404 15.0538 28.8545 14.7838C28.8952 14.6585 28.9378 14.5339 28.9565 14.3965C29.0538 13.6752 28.8218 12.9766 28.3399 12.4687C28.5412 11.7847 28.5246 10.9214 28.0492 10.2368C27.8185 9.9048 27.3272 9.41757 26.3886 9.31757C26.4966 8.24429 26.0793 7.20506 25.2047 6.46378C24.1308 5.55455 22.6683 5.29519 21.3516 5.72516C21.2283 5.42721 21.0477 5.18387 20.8096 4.99857C20.5223 4.7746 20.175 4.64594 19.759 4.61063C19.9177 3.57539 19.693 2.55608 19.1011 1.71348C18.3118 0.590905 17.0159 -0.0430355 15.544 0.00227389C13.9634 0.00227389 12.3889 0.858231 11.6256 2.13213C11.0776 3.04871 10.9969 4.09332 11.3836 5.12325C9.79234 6.45113 9.62571 8.23233 10.215 9.49295C10.8156 10.7795 12.3235 11.8135 14.4241 11.4568C14.698 12.0034 15.2167 12.506 15.8819 12.8387C16.8019 13.2987 17.8431 13.3734 18.8237 13.0708C18.9237 13.6954 19.2377 14.1454 19.5424 14.4473C20.7276 15.6225 22.9621 15.7638 24.686 15.3986C25.126 15.7439 25.7099 15.9712 26.3159 16.0565C26.2525 16.2498 26.2099 16.4531 26.2099 16.6678V18.001H22.7301C22.3722 17.2171 21.3922 16.6678 20.2103 16.6678C19.0283 16.6678 18.0484 17.217 17.6905 18.001H13.5441C13.1762 18.001 12.8775 18.2997 12.8775 18.6676V24.6672H33.5427C34.6827 24.6672 35.5426 23.2347 35.5426 21.3341C35.5426 19.4335 34.6827 18.001 33.5428 18.001Z" fill="#D40E14"/>
</svg>
