<svg width="32" height="32" viewBox="0 0 32 32" fill="none" xmlns="http://www.w3.org/2000/svg">
<path d="M31.8275 8.54183C31.6193 8.20537 31.2516 8 30.8553 8H1.14104C0.744812 8 0.37704 8.20537 0.168926 8.54183C-0.0391884 8.87886 -0.0581599 9.29966 0.118755 9.65394L1.14104 11.6981V13.7143C1.14104 14.3454 1.65281 14.8571 2.2839 14.8571H29.7125C30.3436 14.8571 30.8553 14.3454 30.8553 13.7143V11.6981L31.8776 9.65394C32.0545 9.29966 32.0356 8.87886 31.8275 8.54183Z" fill="#D40E14"/>
<path d="M28.5696 5.71427C28.5696 5.08319 28.0579 4.57142 27.4268 4.57142H23.3286L23.6635 4.23656C24.1099 3.79016 24.1099 3.06696 23.6635 2.62044C23.2171 2.17393 22.4939 2.17404 22.0473 2.62044L20.1701 4.4977L20.4491 3.93964C20.7315 3.37496 20.5027 2.68856 19.9379 2.40616C19.3726 2.12433 18.6868 2.35313 18.4044 2.91736L17.5774 4.57142H17.141V3.05987C17.8548 2.8673 18.5331 2.51016 19.0919 1.95096C19.5383 1.50456 19.5383 0.781357 19.0919 0.334843C18.6455 -0.111671 17.9223 -0.111557 17.4758 0.334843C16.661 1.14959 15.3352 1.14959 14.5205 0.334843C14.0741 -0.111557 13.3509 -0.111557 12.9044 0.334843C12.4578 0.781243 12.458 1.50444 12.9044 1.95096C13.4633 2.51016 14.1416 2.8673 14.8553 3.05987V4.57142H14.419L13.592 2.91736C13.3102 2.35313 12.6238 2.12444 12.0585 2.40616C11.4938 2.68856 11.265 3.37496 11.5473 3.93964L11.8263 4.4977L9.94905 2.62056C9.50265 2.17416 8.77945 2.17416 8.33293 2.62056C7.88642 3.06696 7.88653 3.79016 8.33293 4.23667L8.66779 4.57142H4.56962C3.93853 4.57142 3.42676 5.08319 3.42676 5.71427V6.85713H28.5696V5.71427Z" fill="#D40E14"/>
<path d="M2.28394 16.0952V30.8572C2.28394 31.4883 2.79571 32 3.42679 32H5.71251C6.34359 32 6.85537 31.4883 6.85537 30.8572V16.0952H2.28394Z" fill="#D40E14"/>
<path d="M9.14111 16.0952V30.8572C9.14111 31.4883 9.65288 32 10.284 32H12.5697C13.2008 32 13.7125 31.4883 13.7125 30.8572V16.0952H9.14111Z" fill="#D40E14"/>
<path d="M18.2839 16.0952V30.8572C18.2839 31.4883 18.7957 32 19.4268 32H21.7125C22.3436 32 22.8554 31.4883 22.8554 30.8572V16.0952H18.2839Z" fill="#D40E14"/>
<path d="M25.1411 16.0952V30.8572C25.1411 31.4883 25.6529 32 26.284 32H28.5697C29.2008 32 29.7125 31.4883 29.7125 30.8572V16.0952H25.1411Z" fill="#D40E14"/>
</svg>
