<svg width="33" height="32" viewBox="0 0 33 32" fill="none" xmlns="http://www.w3.org/2000/svg">
<path d="M32.4351 19.2566C32.3802 19.3888 32.275 19.4939 32.1427 19.5487C32.0104 19.6035 31.8618 19.6035 31.7294 19.5489L22.0196 15.5269V14.3578L32.1426 18.551C32.2748 18.6059 32.3799 18.711 32.4348 18.8433C32.4896 18.9756 32.4897 19.1242 32.4351 19.2566ZM2.51423 30.1166V20.1981L11.3218 16.5498V30.1166H2.51423ZM5.1192 25.8944H8.71681V23.2955C8.7139 22.8204 8.5231 22.3657 8.18608 22.0307C7.84905 21.6957 7.39318 21.5077 6.91801 21.5077C6.44283 21.5077 5.98696 21.6957 5.64994 22.0307C5.31291 22.3657 5.12211 22.8204 5.1192 23.2955V25.8944ZM14.9715 23.3918V30.1165H18.3699V23.3918C18.3699 22.9411 18.1909 22.5089 17.8722 22.1903C17.5536 21.8716 17.1214 21.6926 16.6707 21.6926C16.22 21.6926 15.7878 21.8716 15.4692 22.1903C15.1505 22.5089 14.9715 22.9411 14.9715 23.3918ZM19.315 30.1165V23.3918C19.315 22.6905 19.0364 22.0179 18.5405 21.522C18.0446 21.0261 17.372 20.7475 16.6707 20.7475C15.9694 20.7475 15.2968 21.0261 14.8009 21.522C14.305 22.0179 14.0264 22.6905 14.0264 23.3918V30.1165H12.2669V10.7244L16.6276 6.81551L21.0744 10.7618V30.1166L19.315 30.1165ZM18.3699 13.528C18.3699 13.1919 18.2702 12.8634 18.0835 12.584C17.8967 12.3046 17.6314 12.0868 17.3209 11.9583C17.0104 11.8297 16.6687 11.796 16.3391 11.8616C16.0095 11.9272 15.7068 12.089 15.4691 12.3267C15.2315 12.5643 15.0697 12.8671 15.0041 13.1967C14.9386 13.5263 14.9722 13.868 15.1009 14.1784C15.2295 14.4889 15.4473 14.7543 15.7267 14.941C16.0061 15.1277 16.3346 15.2274 16.6707 15.2274C17.1212 15.2269 17.5531 15.0477 17.8717 14.7291C18.1902 14.4106 18.3694 13.9787 18.3699 13.5281V13.528ZM30.8272 30.1166H22.0196V16.5498L30.8272 20.1981V30.1166ZM24.6246 25.8944H28.2225V23.2955C28.2225 22.8184 28.033 22.3608 27.6956 22.0235C27.3583 21.6861 26.9007 21.4966 26.4236 21.4966C25.9465 21.4966 25.4889 21.6861 25.1515 22.0235C24.8141 22.3608 24.6246 22.8184 24.6246 23.2955V25.8944ZM1.61198 19.5491L11.3218 15.5269V14.3578L1.19885 18.551C1.06652 18.6058 0.96139 18.7109 0.906581 18.8433C0.851772 18.9756 0.851778 19.1243 0.906597 19.2566C0.961417 19.3889 1.06656 19.4941 1.19889 19.5489C1.33123 19.6037 1.47992 19.6037 1.61225 19.5489L1.61198 19.5491ZM31.7428 31.0617H1.59861C1.47613 31.0646 1.35966 31.1154 1.27408 31.203C1.18849 31.2907 1.14058 31.4083 1.14058 31.5308C1.14058 31.6534 1.18849 31.771 1.27408 31.8587C1.35966 31.9463 1.47613 31.9971 1.59861 32H31.7428C31.8653 31.9971 31.9818 31.9463 32.0673 31.8587C32.1529 31.771 32.2008 31.6534 32.2008 31.5308C32.2008 31.4083 32.1529 31.2907 32.0673 31.203C31.9818 31.1154 31.8653 31.0646 31.7428 31.0617ZM11.2569 10.3604L16.3106 5.8309C16.397 5.75348 16.5088 5.71053 16.6248 5.71023C16.7408 5.70993 16.8529 5.75231 16.9396 5.82928L22.088 10.3982C22.4719 10.7482 22.8216 10.6351 23.0057 10.4332C23.1081 10.324 23.1636 10.1791 23.1602 10.0294C23.1546 9.85818 23.0639 9.68672 22.8979 9.53301L17.573 5.06791C17.57 5.06541 17.567 5.06278 17.564 5.06021C17.4379 4.94911 17.293 4.86142 17.1361 4.80127C17.1376 4.78574 17.1384 4.77008 17.1384 4.75402V2.37708H18.503C18.6283 2.37708 18.7485 2.32729 18.8371 2.23868C18.9257 2.15006 18.9755 2.02987 18.9755 1.90455C18.9755 1.77923 18.9257 1.65904 18.8371 1.57042C18.7485 1.48181 18.6283 1.43202 18.503 1.43202H17.1384V0.472526C17.1384 0.347204 17.0887 0.227015 17 0.1384C16.9114 0.0497837 16.7912 0 16.6659 0C16.5406 0 16.4204 0.0497837 16.3318 0.1384C16.2432 0.227015 16.1934 0.347204 16.1934 0.472526V1.43202H14.8288C14.7035 1.43202 14.5833 1.48181 14.4947 1.57042C14.4061 1.65904 14.3563 1.77923 14.3563 1.90455C14.3563 2.02987 14.4061 2.15006 14.4947 2.23868C14.5833 2.32729 14.7035 2.37708 14.8288 2.37708H16.1934V4.75402C16.1934 4.76077 16.1941 4.76752 16.1944 4.77427C16.0047 4.83426 15.8299 4.93371 15.6814 5.06609L10.6059 9.50567C10.6012 9.50979 10.5965 9.51377 10.5916 9.51769C10.4051 9.66829 10.2952 9.83846 10.2735 10.01C10.2651 10.0755 10.2701 10.142 10.2882 10.2055C10.3063 10.269 10.3372 10.3281 10.3789 10.3793C10.5332 10.5707 10.8553 10.6793 11.2569 10.3604Z" fill="#D40E14"/>
</svg>
