<svg width="21" height="32" viewBox="0 0 21 32" fill="none" xmlns="http://www.w3.org/2000/svg">
<path d="M10.1656 7.94398C11.5155 7.94398 12.6097 6.84969 12.6097 5.49982C12.6097 4.14995 11.5155 3.05566 10.1656 3.05566C8.81572 3.05566 7.72144 4.14995 7.72144 5.49982C7.72144 6.84969 8.81572 7.94398 10.1656 7.94398Z" fill="#D40E14"/>
<path d="M10.4938 11.2231L10.4897 11.2624L10.4961 11.2492C10.4961 11.2405 10.4955 11.2312 10.4961 11.2231H10.4938Z" fill="#D40E14"/>
<path d="M18.8943 8.62823C18.18 9.32582 17.3651 9.90724 16.4999 10.406C15.5451 9.85002 14.5863 9.29345 13.6321 8.73747C13.5662 8.69874 13.4998 8.67158 13.4333 8.64673L13.4316 8.62939C13.3714 8.61725 13.3229 8.61089 13.268 8.60049C13.2218 8.59067 13.1761 8.58026 13.1328 8.57679C12.1757 8.42479 11.7907 8.58431 11.7907 8.58431L10.4961 11.2492C10.4418 13.9182 12.2739 17.3183 12.2739 17.3183C11.5966 16.8317 10.5378 15.8179 10.5378 15.8179C10.5378 15.8179 7.6191 18.1292 8.95705 16.7097C10.295 15.2897 10.2268 11.2215 10.2268 11.2215H10.4938L10.773 8.87097H10.8198V8.47681H9.83438V8.87271H9.88524L10.2193 11.2637C10.2193 11.2637 8.94607 8.48201 8.83222 8.52651C8.83222 8.52651 8.46059 8.10172 7.14518 8.62939C6.0725 8.85999 4.99867 9.09002 3.92541 9.32062C3.25961 8.57911 2.6649 7.77229 2.20196 6.8886C2.01124 6.52507 1.71706 6.34533 1.40497 6.29678L1.43097 0.325387C1.43155 0.146222 1.28706 0.000577951 1.1079 0C0.926422 0.00462361 0.782512 0.14391 0.781934 0.322497L0.755926 6.37769C0.183755 6.60887 -0.231214 7.23248 0.138097 7.93758C0.705067 9.02066 3.13882 12.0676 3.13882 12.0676C3.13882 12.0676 5.12466 11.5134 6.59901 11.1406C6.72674 11.5151 6.85273 11.7786 6.85273 11.7786L6.82846 21.2102V30.6014C6.82846 31.3747 7.3937 32 8.1878 32C8.98133 32 9.62517 31.3747 9.62517 30.6014V20.8166C9.62517 20.8166 9.67082 20.3213 10.1765 20.3144C10.6817 20.3092 10.6689 20.7918 10.6689 20.7918V30.5742C10.6689 31.3469 11.311 31.9728 12.1057 31.9728C12.8993 31.9728 13.5425 31.3469 13.5425 30.5742L13.5899 20.4791C13.5899 20.3838 13.6003 13.657 13.602 11.8648L13.5789 11.4238C14.8383 12.2231 16.3964 13.2611 16.3964 13.2611C16.3964 13.2611 19.6544 11.1192 20.5288 10.2656C21.6015 9.22121 19.9624 7.58561 18.8943 8.62823Z" fill="#D40E14"/>
</svg>
