<svg width="29" height="32" viewBox="0 0 29 32" fill="none" xmlns="http://www.w3.org/2000/svg">
<path d="M3.13812 20.6028L0.0995185 26.6396C-0.0465778 26.9296 -0.0308896 27.2742 0.140455 27.5499C0.312289 27.8253 0.614777 27.9931 0.941042 27.9931H5.51194L8.25443 31.626C8.43264 31.8629 8.71233 32 9.00673 32C9.39771 32 9.70583 31.7682 9.84899 31.4833L12.7123 25.7935C8.84102 25.4258 5.42786 23.4755 3.13812 20.6028Z" fill="#E88949"/>
<path d="M27.9552 26.6396L24.9166 20.6028C22.6269 23.4755 19.2137 25.4258 15.3424 25.7935L18.206 31.4833C18.3489 31.7682 18.657 32 19.048 32C19.3424 32 19.6223 31.8629 19.8005 31.626L22.5428 27.9931H27.1137C27.44 27.9931 27.7424 27.8253 27.9143 27.5499C28.0856 27.2742 28.1013 26.9296 27.9552 26.6396Z" fill="#E88949"/>
<path d="M26.0822 11.9452C26.0822 5.3586 20.6745 0 14.0274 0C7.38042 0 1.97266 5.3586 1.97266 11.9452C1.97266 18.5316 7.38042 23.8904 14.0274 23.8904C20.6745 23.8904 26.0822 18.5318 26.0822 11.9452ZM15.4539 16.95C15.4539 17.4661 15.0317 17.8845 14.5108 17.8845C13.9901 17.8845 13.5677 17.4661 13.5677 16.95V9.20786L12.1712 10.6016C11.8043 10.9679 11.2073 10.9701 10.8377 10.6062C10.468 10.2426 10.4658 9.65103 10.8327 9.28477L13.8415 6.28192C14.1107 6.01324 14.5169 5.93196 14.8701 6.07628C15.2233 6.22059 15.4539 6.56178 15.4539 6.94021V16.95Z" fill="#E88949"/>
<rect x="7" y="3" width="13" height="17" fill="#E88949"/>
<path d="M17.4605 14.06C17.4605 14.6733 17.3605 15.2133 17.1605 15.68C16.9738 16.1333 16.7205 16.5333 16.4005 16.88C16.0805 17.2133 15.7071 17.5 15.2805 17.74C14.8671 17.9667 14.4338 18.1467 13.9805 18.28C13.5405 18.4267 13.0938 18.5267 12.6405 18.58C12.2005 18.6467 11.7871 18.68 11.4005 18.68C11.0671 18.68 10.8005 18.66 10.6005 18.62C10.4005 18.5933 10.2538 18.54 10.1605 18.46C10.0538 18.38 9.98047 18.28 9.94047 18.16C9.9138 18.0533 9.90047 17.9067 9.90047 17.72C9.90047 17.56 9.90714 17.42 9.92047 17.3C9.9338 17.18 9.96047 17.0733 10.0005 16.98C10.0538 16.8733 10.1271 16.7933 10.2205 16.74C10.3138 16.6867 10.4471 16.6533 10.6205 16.64C10.8471 16.6267 11.0871 16.6133 11.3405 16.6C11.5938 16.5867 11.8671 16.5667 12.1605 16.54C12.4538 16.5 12.7671 16.4333 13.1005 16.34C13.4471 16.2467 13.7671 16.1067 14.0605 15.92C14.3538 15.72 14.5938 15.48 14.7805 15.2C14.9805 14.9067 15.0805 14.5467 15.0805 14.12C15.0805 13.5333 14.9005 13.08 14.5405 12.76C14.1938 12.44 13.6538 12.28 12.9205 12.28H12.3005C12.1538 12.28 12.0471 12.2733 11.9805 12.26C11.9138 12.2333 11.8605 12.2133 11.8205 12.2C11.7538 12.1467 11.7071 12.0933 11.6805 12.04C11.6671 11.9867 11.6605 11.8867 11.6605 11.74C11.6605 11.5 11.6805 11.2667 11.7205 11.04C11.7605 10.8133 11.8205 10.6333 11.9005 10.5C11.9538 10.3933 12.0271 10.3267 12.1205 10.3C12.2271 10.26 12.3671 10.24 12.5405 10.24H12.8605C13.5671 10.24 14.0938 10.1 14.4405 9.82C14.8005 9.54 14.9805 9.16 14.9805 8.68C14.9805 8.25333 14.8338 7.92667 14.5405 7.7C14.2605 7.46 13.8871 7.34 13.4205 7.34C13.1671 7.34 12.9471 7.36 12.7605 7.4C12.5738 7.44 12.4071 7.48667 12.2605 7.54C12.1138 7.59333 11.9871 7.65333 11.8805 7.72C11.7738 7.77333 11.6805 7.82667 11.6005 7.88C11.5205 7.93333 11.4471 7.98667 11.3805 8.04C11.3138 8.08 11.2471 8.12667 11.1805 8.18C11.1138 8.22 11.0405 8.26 10.9605 8.3C10.8938 8.32667 10.8205 8.34 10.7405 8.34C10.5671 8.34 10.4271 8.28667 10.3205 8.18C10.2138 8.07333 10.1205 7.97333 10.0405 7.88C9.96047 7.77333 9.88714 7.67333 9.82047 7.58C9.7538 7.47333 9.72047 7.34667 9.72047 7.2C9.72047 7.10667 9.7538 7.01333 9.82047 6.92C9.88714 6.81333 9.9738 6.71333 10.0805 6.62C10.2005 6.51333 10.3271 6.42 10.4605 6.34C10.5938 6.26 10.7271 6.18 10.8605 6.1C10.9805 6.03333 11.1271 5.96 11.3005 5.88C11.4871 5.8 11.7005 5.72667 11.9405 5.66C12.1805 5.58 12.4471 5.52 12.7405 5.48C13.0471 5.42667 13.3871 5.4 13.7605 5.4C14.2138 5.4 14.6471 5.46667 15.0605 5.6C15.4871 5.72 15.8605 5.90667 16.1805 6.16C16.5138 6.4 16.7738 6.70667 16.9605 7.08C17.1605 7.44 17.2605 7.86667 17.2605 8.36C17.2605 8.73333 17.2138 9.06667 17.1205 9.36C17.0271 9.64 16.9005 9.89333 16.7405 10.12C16.5938 10.3333 16.4071 10.52 16.1805 10.68C15.9671 10.84 15.7338 10.9867 15.4805 11.12C15.7471 11.2133 16.0005 11.3467 16.2405 11.52C16.4805 11.68 16.6871 11.88 16.8605 12.12C17.0471 12.36 17.1938 12.64 17.3005 12.96C17.4071 13.28 17.4605 13.6467 17.4605 14.06Z" fill="white"/>
</svg>
