<svg width="33" height="33" fill="none" xmlns="http://www.w3.org/2000/svg"><g clip-path="url(#a)" fill="#fff"><path d="M16.5 0C7.401 0 0 7.402 0 16.5 0 25.598 7.402 33 16.5 33 25.597 33 33 25.598 33 16.5 33 7.402 25.597 0 16.5 0zm0 30.8c-7.885 0-14.3-6.415-14.3-14.3 0-7.885 6.415-14.3 14.3-14.3 7.885 0 14.3 6.415 14.3 14.3 0 7.885-6.414 14.3-14.3 14.3z"/><path d="M24.671 15.306H17.6v-9.35a1.1 1.1 0 10-2.199 0v11.549h9.27a1.099 1.099 0 100-2.2z"/></g><defs><clipPath id="a"><path fill="#fff" d="M0 0H33V33H0z"/></clipPath></defs></svg>