<svg width="33" height="32" viewBox="0 0 33 32" fill="none" xmlns="http://www.w3.org/2000/svg">
<path d="M31.9931 11.7125V9.99999C31.9931 9.48249 31.5731 9.0625 31.0556 9.0625H27.0556C26.5382 9.0625 26.1182 9.48249 26.1182 9.99999V11.7125H31.9931Z" fill="#D40E14"/>
<path d="M29.9803 0.784363C29.9053 0.33187 29.514 0 29.0553 0C28.5965 0 28.2053 0.33187 28.1303 0.784363L27.0703 7.18739H31.0403L29.9803 0.784363Z" fill="#D40E14"/>
<path d="M31.6181 13.5625H26.4931C25.9757 13.5625 25.5557 13.9825 25.5557 14.5V19.0624H28.1181V18.4999C28.1181 17.9824 28.5381 17.5624 29.0556 17.5624C29.5731 17.5624 29.9931 17.9824 29.9931 18.4999V19.0624H32.5556V14.5C32.5556 13.9825 32.1356 13.5625 31.6181 13.5625Z" fill="#D40E14"/>
<path d="M25.5557 25.0624H28.1181V24.4999C28.1181 23.9825 28.5381 23.5625 29.0556 23.5625C29.5731 23.5625 29.9931 23.9825 29.9931 24.4999V25.0624H32.5556V20.9375H25.5557V25.0624Z" fill="#D40E14"/>
<path d="M25.5557 31.9999H31.6181C32.1358 31.9999 32.5556 31.5802 32.5556 31.0624V26.9375H25.5557V31.9999Z" fill="#D40E14"/>
<path d="M6.99332 11.7125V9.99999C6.99332 9.48249 6.57332 9.0625 6.05583 9.0625H2.05589C1.5384 9.0625 1.11841 9.48249 1.11841 9.99999V11.7125H6.99332Z" fill="#D40E14"/>
<path d="M4.98051 0.784363C4.90551 0.33187 4.51427 0 4.05553 0C3.59678 0 3.20554 0.33187 3.13054 0.784363L2.07056 7.18739H6.0405L4.98051 0.784363Z" fill="#D40E14"/>
<path d="M0.555908 31.0624C0.555908 31.5802 0.975652 31.9999 1.49339 31.9999H7.5558V26.9375H0.555908V31.0624Z" fill="#D40E14"/>
<path d="M6.61831 13.5625H1.49339C0.975902 13.5625 0.555908 13.9825 0.555908 14.5V19.0624H3.11837V18.4999C3.11837 17.9824 3.53836 17.5624 4.05585 17.5624C4.57335 17.5624 4.99334 17.9824 4.99334 18.4999V19.0624H7.5558V14.5C7.5558 13.9825 7.13581 13.5625 6.61831 13.5625Z" fill="#D40E14"/>
<path d="M0.555908 25.0624H3.11837V24.4999C3.11837 23.9825 3.53836 23.5625 4.05585 23.5625C4.57335 23.5625 4.99334 23.9825 4.99334 24.4999V25.0624H7.5558V20.9375H0.555908V25.0624Z" fill="#D40E14"/>
<path d="M16.5557 18.9375C15.97 18.9375 15.4932 19.4144 15.4932 20V22.0625H17.6182V20C17.6182 19.4144 17.1413 18.9375 16.5557 18.9375Z" fill="#D40E14"/>
<path d="M9.43091 31.9918C9.51491 32.0034 9.1541 31.9999 13.6183 31.9999V28.9999C13.6183 27.3799 14.9358 26.0625 16.5558 26.0625C18.1758 26.0625 19.4933 27.3799 19.4933 28.9999V31.9999C23.9491 31.9999 23.5966 32.0034 23.6807 31.9918V23.9375H9.43091V31.9918Z" fill="#D40E14"/>
<path d="M16.5556 27.9375C15.97 27.9375 15.4932 28.4144 15.4932 29V31.9999H17.6181V29C17.6181 28.4144 17.1413 27.9375 16.5556 27.9375Z" fill="#D40E14"/>
<path d="M17.4933 5.49999C17.4933 4.98224 17.0735 4.5625 16.5558 4.5625C16.0381 4.5625 15.6183 4.98224 15.6183 5.49999V8.20438L9.43091 17.0435V22.0622H13.6183V19.9998C13.6183 18.3798 14.9358 17.0623 16.5558 17.0623C18.1758 17.0623 19.4933 18.3798 19.4933 19.9998V22.0622H23.6807V17.0436L17.4933 8.20438V5.49999Z" fill="#D40E14"/>
</svg>
