<svg width="29" height="35" viewBox="0 0 29 35" fill="none" xmlns="http://www.w3.org/2000/svg">
<path d="M3.56609 17.083L10.789 7.16613C10.8476 7.10757 10.8866 7.06853 10.9647 7.06853C11.0428 7.06853 11.1209 7.06853 11.1794 7.12709L11.2185 7.16613C11.2575 7.20518 11.3356 7.20518 11.3746 7.20518C11.4332 7.18565 11.4918 7.16613 11.5113 7.10757C11.5503 7.06853 11.5699 7.00996 11.5503 6.9514C11.5308 6.89283 11.5113 6.83427 11.4527 6.81475L11.4137 6.7757C11.2966 6.69762 11.238 6.52193 11.3551 6.4048L13.6196 3.28138C13.9905 2.79334 14.6542 2.67622 15.1618 3.0276L16.6064 4.08176L3.58561 17.1025L3.56609 17.083ZM2.14103 20.8506C1.82868 20.5383 1.65299 20.1283 1.65299 19.6989L1.59443 19.7574C1.24304 20.265 1.34065 20.9482 1.84821 21.2996L4.62024 23.3298L2.14103 20.8506ZM18.9294 4.06224L25.9571 11.0899C26.3866 11.5194 26.3866 12.2222 25.9571 12.6516L23.2241 15.3846C23.107 15.5018 22.9508 15.5018 22.8337 15.3846L22.7946 15.3456C22.7166 15.2675 22.5799 15.248 22.4823 15.3456C22.3847 15.4432 22.3847 15.5603 22.4823 15.6579L22.5213 15.697C22.6385 15.8141 22.6385 15.9703 22.5213 16.0874L11.1209 27.4879C10.6914 27.9174 9.98862 27.9174 9.55915 27.4879L2.53145 20.4602C2.10198 20.0307 2.10198 19.328 2.53145 18.8985L13.9515 7.47848C14.0686 7.36135 14.2248 7.36135 14.3419 7.47848L14.3809 7.51752C14.459 7.5956 14.5957 7.61513 14.6933 7.51752C14.7909 7.41991 14.7909 7.30278 14.6933 7.20518L14.6542 7.16613C14.5371 7.04901 14.5371 6.89283 14.6542 6.77571L17.3872 4.04271C17.8167 3.61324 18.5195 3.61324 18.9489 4.04271L18.9294 4.06224ZM7.99744 22.8028C8.11457 22.9199 8.27074 22.9199 8.38787 22.8028C8.505 22.6856 8.505 22.5295 8.38787 22.4123L6.43573 20.4602C6.3186 20.3431 6.16243 20.3431 6.0453 20.4602C5.92817 20.5773 5.92817 20.7335 6.0453 20.8506L7.99744 22.8028ZM10.5352 22.6075C10.4181 22.4904 10.2619 22.4904 10.1448 22.6075L9.16872 23.5836C9.0516 23.7007 9.0516 23.8569 9.16872 23.974L10.1448 24.9501C10.2619 25.0672 10.4181 25.0672 10.5352 24.9501L11.5113 23.974C11.6284 23.8569 11.6284 23.7007 11.5113 23.5836L10.5352 22.6075ZM6.24052 18.3128C6.12339 18.1957 5.96722 18.1957 5.85009 18.3128C5.73296 18.43 5.73296 18.5861 5.85009 18.7033L8.97351 21.8267C9.09064 21.9438 9.24681 21.9438 9.36394 21.8267C9.48107 21.7096 9.48107 21.5534 9.36394 21.4363L6.24052 18.3128ZM21.6038 14.0767C21.4867 13.9596 21.3305 13.9596 21.2134 14.0767C21.0963 14.1938 21.0963 14.35 21.2134 14.4671L21.311 14.5647C21.4281 14.6819 21.5843 14.6819 21.7014 14.5647C21.8186 14.4476 21.8186 14.2914 21.7014 14.1743L21.6038 14.0767ZM20.5887 13.0616C20.4716 12.9445 20.3154 12.9445 20.1983 13.0616C20.0812 13.1787 20.0812 13.3349 20.1983 13.452L20.3935 13.6472C20.5106 13.7644 20.6668 13.7644 20.7839 13.6472C20.9011 13.5301 20.9011 13.3739 20.7839 13.2568L20.5887 13.0616ZM19.5736 12.0465C19.4565 11.9294 19.3003 11.9294 19.1832 12.0465C19.0661 12.1636 19.0661 12.3198 19.1832 12.4369L19.3784 12.6321C19.4955 12.7493 19.6517 12.7493 19.7688 12.6321C19.886 12.515 19.886 12.3588 19.7688 12.2417L19.5736 12.0465ZM18.5585 11.0314C18.4414 10.9142 18.2852 10.9142 18.1681 11.0314C18.0509 11.1485 18.051 11.3047 18.1681 11.4218L18.3633 11.617C18.4804 11.7341 18.6366 11.7341 18.7537 11.617C18.8708 11.4999 18.8708 11.3437 18.7537 11.2266L18.5585 11.0314ZM17.5434 10.0163C17.4263 9.89913 17.2701 9.89913 17.153 10.0163C17.0358 10.1334 17.0358 10.2896 17.153 10.4067L17.3482 10.6019C17.4653 10.719 17.6215 10.719 17.7386 10.6019C17.8557 10.4848 17.8557 10.3286 17.7386 10.2115L17.5434 10.0163ZM16.5283 9.00114C16.4112 8.88402 16.255 8.88402 16.1379 9.00114C16.0207 9.11827 16.0207 9.27444 16.1379 9.39157L16.3331 9.58678C16.4502 9.70391 16.6064 9.70391 16.7235 9.58678C16.8406 9.46966 16.8406 9.31349 16.7235 9.19636L16.5283 9.00114ZM15.6303 8.10316C15.5132 7.98603 15.357 7.98603 15.2399 8.10316C15.1227 8.22029 15.1227 8.37646 15.2399 8.49359L15.3375 8.5912C15.4546 8.70832 15.6108 8.70832 15.7279 8.5912C15.845 8.47407 15.845 8.3179 15.7279 8.20077L15.6303 8.10316ZM19.3003 8.72784C19.1832 8.61072 19.027 8.61072 18.9099 8.72784C18.7928 8.84497 18.7928 9.00114 18.9099 9.11827L20.862 11.0704C20.9792 11.1875 21.1353 11.1875 21.2525 11.0704C21.3696 10.9533 21.3696 10.7971 21.2525 10.68L19.3003 8.72784ZM19.6907 7.16613C19.5736 7.04901 19.4174 7.04901 19.3003 7.16613C19.1832 7.28326 19.1832 7.43943 19.3003 7.55656L22.4237 10.68C22.5409 10.7971 22.697 10.7971 22.8142 10.68C22.9313 10.5629 22.9313 10.4067 22.8142 10.2896L19.6907 7.16613Z" fill="#D40E14"/>
<path d="M27.2179 28.7979V29.5342C27.2179 30.2298 26.6553 30.7989 25.9678 30.7989H16.3016C15.614 30.7989 15.0515 30.2298 15.0515 29.5342V14.4923C15.0515 13.7967 15.614 13.2276 16.3016 13.2276H25.9678C26.6553 13.2276 27.2179 13.7967 27.2179 14.4923V29.166C27.4233 29.148 27.6331 29.166 27.843 29.166C28.0796 29.166 28.5573 29.166 28.5573 29.166V14.4923C28.5573 13.0469 27.3965 11.8724 25.9678 11.8724H16.3016C14.8729 11.8724 13.712 13.0469 13.712 14.4923V32.3799C13.712 33.8254 14.8729 34.9998 16.3016 34.9998H25.9678C27.3965 34.9998 28.5573 33.8254 28.5573 32.3799V28.7889C28.3207 28.816 28.0796 28.8295 27.843 28.8295C27.6286 28.8295 27.4233 28.816 27.2179 28.7979ZM22.1683 33.6447H20.0966C19.6859 33.6357 19.3644 33.2924 19.3733 32.8768C19.3823 32.4793 19.6993 32.1541 20.0966 32.145H22.1727C22.5835 32.136 22.9228 32.4612 22.9317 32.8768C22.9407 33.2924 22.6192 33.6357 22.2084 33.6447C22.1951 33.6447 22.1817 33.6447 22.1683 33.6447Z" fill="#D40E14"/>
</svg>
