<svg width="90" height="71" viewBox="0 0 90 71" fill="none" xmlns="http://www.w3.org/2000/svg">
<path d="M89.5 4.68425V4.68508C89.5032 6.16761 89.2311 7.63785 88.6975 9.02104L88.6964 9.024C88.0912 10.6228 87.5836 12.2568 87.1763 13.9171L71.1256 64.7489C71.1252 64.7503 71.1247 64.7516 71.1243 64.753C70.2558 67.3568 69.0558 68.7878 67.6127 69.2773C64.8756 69.9456 62.0572 70.2207 59.2424 70.0945L59.2312 70.094H59.22C57.6764 70.094 56.4136 69.9973 55.4234 69.81C54.425 69.6211 53.7481 69.348 53.3369 69.0283L53.3261 69.0199L53.3148 69.0121C52.9204 68.7386 52.5972 68.3745 52.3726 67.9504C52.1489 67.5278 52.0294 67.0579 52.024 66.5798C52.0371 65.6021 52.1456 64.6281 52.3482 63.6716L52.3482 63.6716L52.3493 63.6662C52.5705 62.5615 52.9018 61.1201 53.3442 59.3396L53.3444 59.3396L53.3469 59.3285L65.0569 7.13546L65.0593 7.1245L65.0613 7.11343C65.2518 6.04082 65.6731 5.02242 66.2961 4.12874C66.917 3.23798 67.7236 2.49234 68.6601 1.94306C70.4424 1.00434 73.6209 0.5 78.29 0.5C80.5057 0.5 82.3619 0.610901 83.8635 0.829295C85.3713 1.04857 86.4914 1.37211 87.2547 1.77919C88.841 2.62514 89.4995 3.60316 89.5 4.68425ZM37.976 4.68425V4.68508C37.9792 6.16761 37.7071 7.63785 37.1735 9.02104L37.1724 9.024C36.5672 10.6228 36.0596 12.2568 35.6523 13.917L19.5996 64.7489C19.5992 64.7501 19.5988 64.7514 19.5984 64.7526C18.7299 67.3567 17.5299 68.7878 16.0867 69.2773C13.3496 69.9456 10.5312 70.2207 7.7164 70.0945L7.7052 70.094H7.694C6.15035 70.094 4.88757 69.9973 3.89744 69.81C2.89895 69.6211 2.22214 69.348 1.81092 69.0283L1.80024 69.02L1.78912 69.0123C1.39508 68.7387 1.07237 68.3747 0.848058 67.9507C0.624587 67.5283 0.50528 67.0586 0.500033 66.5808C0.513079 65.6031 0.621635 64.6291 0.824156 63.6726L0.824186 63.6726L0.825268 63.6672C1.04647 62.5625 1.37778 61.1211 1.82024 59.3406L1.82037 59.3406L1.82287 59.3295L13.5329 7.13646L13.5353 7.12549L13.5373 7.11443C13.7278 6.04182 14.1491 5.02342 14.7721 4.12974C15.3931 3.23895 16.1996 2.49329 17.1362 1.94401C18.9185 1.00467 22.0969 0.5 26.766 0.5C28.9817 0.5 30.8379 0.610901 32.3395 0.829295C33.8473 1.04857 34.9674 1.37211 35.7307 1.77919C37.317 2.62514 37.9755 3.60316 37.976 4.68425Z" fill="white" stroke="white"/>
</svg>
