<svg width="23" height="25" viewBox="0 0 23 25" fill="none" xmlns="http://www.w3.org/2000/svg">
<path d="M21.7804 6.11257C21.5763 4.11695 21.2511 2.56315 20.7367 1.95241C18.6156 -0.558759 3.75767 -0.74253 2.07072 1.95241C1.65806 2.61267 1.36865 4.16096 1.17442 6.11587C0.547731 6.1896 0.0596924 6.71725 0.0596924 7.3632V9.80779C0.0596924 10.3514 0.404125 10.8097 0.885011 10.9885C0.771117 14.8389 0.863553 18.856 1.03412 20.8539C1.03412 22.3961 2.07017 22.1403 2.07017 22.1403H3.04129V23.8052C3.04129 24.4655 3.72191 24.9997 4.56043 24.9997C5.40005 24.9997 6.08067 24.4655 6.08067 23.8052V22.1403H17.3787V23.8052C17.3787 24.4655 18.0588 24.9997 18.8984 24.9997C19.7369 24.9997 20.4176 24.4655 20.4176 23.8052V22.1403H20.7367C20.7367 22.1403 21.9559 22.3075 22.0341 21.5812C22.0341 19.5889 22.1595 15.1735 22.0561 11.0056C22.5672 10.8455 22.9403 10.3745 22.9403 9.80779V7.3632C22.9408 6.70184 22.4291 6.16539 21.7804 6.11257ZM5.69937 2.3106H17.108V4.03661H5.69937V2.3106ZM5.86223 20.1743C4.96649 20.1743 4.24076 19.4481 4.24076 18.5523C4.24076 17.6571 4.96649 16.9314 5.86223 16.9314C6.75798 16.9314 7.48426 17.6571 7.48426 18.5523C7.48426 19.4481 6.75853 20.1743 5.86223 20.1743ZM17.0469 20.1743C16.1518 20.1743 15.4244 19.4481 15.4244 18.5523C15.4244 17.6571 16.1512 16.9314 17.0469 16.9314C17.9427 16.9314 18.6684 17.6571 18.6684 18.5523C18.669 19.4481 17.9427 20.1743 17.0469 20.1743ZM19.1086 13.0766H3.6988V4.99398H19.1086V13.0766Z" fill="#D40E14"/>
</svg>
