<svg width="33" height="33" viewBox="0 0 33 33" fill="none" xmlns="http://www.w3.org/2000/svg">
<path d="M29.4856 20.9968C29.4856 21.6245 28.9768 22.1333 28.3491 22.1333C27.7215 22.1333 27.2126 21.6245 27.2126 20.9968C27.2126 20.3692 27.7215 19.8604 28.3491 19.8604C28.9768 19.8604 29.4856 20.3692 29.4856 20.9968Z" fill="#D40E14"/>
<path d="M30.7132 8.94775H1.85228C0.849457 8.94775 0 9.74362 0 10.7461V31.1854C0 32.1882 0.849457 32.9999 1.85228 32.9999H30.7132C31.716 32.9999 32.5654 32.1882 32.5654 31.1854V26.9662H26.6589C24.4712 26.9662 22.7297 25.1443 22.7297 22.9565V18.975C22.719 16.826 24.4522 15.0751 26.6012 15.0641H26.6589H32.5654V10.7461C32.5654 9.74362 31.716 8.94775 30.7132 8.94775ZM15.9521 19.1968C16.3173 19.1968 16.6133 19.4928 16.6133 19.858C16.6133 20.2232 16.3173 20.5192 15.9521 20.5192H11.2422C11.2292 20.7397 11.2341 20.9609 11.257 21.1805H15.4562C15.8213 21.1805 16.1174 21.4765 16.1174 21.8417C16.1174 22.2068 15.8213 22.5029 15.4562 22.5029H11.6454C11.8385 22.8632 12.0813 23.1948 12.3667 23.4876C13.4528 24.5689 15.0733 24.9092 16.5026 24.3562C16.8403 24.2247 17.2203 24.3907 17.3537 24.7278C17.487 25.0645 17.3233 25.4458 16.9872 25.5811L16.9778 25.5847C15.0613 26.3188 12.8926 25.8646 11.4317 24.4233C10.8951 23.8754 10.4789 23.2213 10.2103 22.5029H9.25718C8.89202 22.5029 8.59595 22.2068 8.59595 21.8417C8.59595 21.4765 8.89202 21.1805 9.25718 21.1805H9.92971C9.91259 20.9606 9.9084 20.7397 9.91744 20.5192H9.25718C8.89202 20.5192 8.59595 20.2232 8.59595 19.858C8.59595 19.4928 8.89202 19.1968 9.25718 19.1968H10.1528C10.3891 18.3903 10.8299 17.6583 11.4317 17.072C12.8849 15.6172 15.0578 15.1539 16.9778 15.8893C17.3169 16.0204 17.4854 16.4021 17.3543 16.7411C17.2229 17.0804 16.8416 17.2486 16.5023 17.1175C15.0687 16.5722 13.4486 16.9212 12.3664 18.008C12.0128 18.3389 11.7381 18.7451 11.5634 19.1968H15.9521Z" fill="#D40E14"/>
<path d="M16.0412 0L8.41577 7.62542H23.7347L16.0412 0Z" fill="#D40E14"/>
<path d="M24.0521 18.9752V22.9568C24.0521 24.4151 25.2006 25.644 26.6589 25.644H32.5654V16.3868H26.6589C25.2409 16.3651 24.0738 17.4971 24.0521 18.9151V18.9752ZM30.8081 20.997C30.8081 22.3549 29.7074 23.4559 28.3491 23.4559C26.9912 23.4559 25.8902 22.3549 25.8902 20.997C25.8902 19.639 26.9912 18.538 28.3491 18.538C29.7071 18.538 30.8081 19.639 30.8081 20.997Z" fill="#D40E14"/>
<path d="M25.9531 7.62551V0.249023L20.2423 2.27952L25.6135 7.62551H25.9531Z" fill="#D40E14"/>
</svg>
