<svg width="33" height="33" viewBox="0 0 33 33" fill="none" xmlns="http://www.w3.org/2000/svg">
<path fill-rule="evenodd" clip-rule="evenodd" d="M16.9795 1.79896L18.9092 5.35862C19.1299 5.76606 18.8625 6.2778 18.4287 6.2778H17.8471L20.8059 11.7358C21.0266 12.1433 20.7592 12.655 20.3254 12.655H19.0962L22.7033 19.3076C22.924 19.7151 22.6565 20.2268 22.2228 20.2268H10.7738C10.34 20.2268 10.0726 19.7151 10.2933 19.3076L13.9004 12.655H12.6712C12.2374 12.655 11.97 12.1433 12.1907 11.7358L15.1495 6.2778H14.5679C14.1341 6.2778 13.8667 5.76531 14.0874 5.35862L16.0171 1.79896C16.2329 1.40128 16.7623 1.40128 16.9775 1.79896H16.9795ZM0 25.459V33H32.998V24.5466C15.837 24.9412 22.6187 28.8213 0 25.4597V25.459ZM7.31524 20.2268V25.6586L7.27468 25.6541C6.60028 25.582 5.92657 25.5048 5.25286 25.4222V20.226H7.31524V20.2268ZM27.7451 19.4764V24.0678C27.0563 24.1286 26.3688 24.2014 25.6827 24.2884V19.4764H27.7451ZM6.76458 1.04861C6.54872 0.650928 6.01938 0.650928 5.8042 1.04861L3.87451 4.60827C3.65384 5.01571 3.92126 5.52745 4.35504 5.52745H4.93663L1.97782 10.9855C1.75714 11.3929 2.02456 11.9047 2.45835 11.9047H3.68752L0.0804325 18.5573C-0.140241 18.9647 0.12718 19.4764 0.560965 19.4764H9.53641C9.5536 19.2904 9.60791 19.1028 9.70415 18.9257L11.1973 16.1719L8.88401 11.9047H10.1132C10.547 11.9047 10.8144 11.3929 10.5937 10.9855L7.6349 5.52745H8.21649C8.65028 5.52745 8.9177 5.01496 8.69703 4.60827L6.76733 1.04861H6.76458ZM17.5302 20.9771V25.8177C16.84 25.9159 16.1546 25.9812 15.4678 26.0202V20.9771H17.5302ZM27.1944 0.298264C26.9786 -0.0994213 26.4492 -0.0994213 26.2341 0.298264L24.3044 3.85792C24.0837 4.26536 24.3511 4.7771 24.7849 4.7771H25.3665L22.4077 10.2351C22.187 10.6426 22.4544 11.1543 22.8882 11.1543H24.1174L21.6006 15.7967L23.1893 18.7269H32.4404C32.8742 18.7269 33.1416 18.2151 32.921 17.8077L29.3139 11.1551H30.5431C30.9768 11.1551 31.2443 10.6433 31.0236 10.2359L28.0648 4.77785H28.6464C29.0801 4.77785 29.3476 4.26611 29.1269 3.85867L27.1972 0.299014L27.1944 0.298264Z" fill="#D40E14"/>
</svg>
