<svg width="33" height="33" viewBox="0 0 33 33" fill="none" xmlns="http://www.w3.org/2000/svg">
<g clip-path="url(#clip0_4201_190)">
<path d="M29.3645 2.00059C28.6185 1.96861 27.8914 2.23952 27.3476 2.75212L24.4094 5.52235C24.2271 5.69406 24.0333 5.88994 24.0141 6.13944C23.9965 6.36931 24.1332 6.58105 24.1712 6.80839C24.274 7.4207 23.5929 7.93859 22.9743 7.89579C22.6357 7.87238 22.3253 7.73617 22.041 7.54658C21.7074 7.32402 21.6384 6.85799 21.9071 6.5604C22.0805 6.3683 22.2256 6.15077 22.3366 5.91687C22.5065 5.55886 22.3187 5.13261 21.9428 5.00773L20.3881 4.4916C19.6358 4.2416 18.84 3.98882 18.0643 4.15146C16.9359 4.38838 16.1715 5.42592 15.6035 6.43099C15.0355 7.43606 14.5012 8.54359 13.512 9.13702C13.1983 9.32509 12.8496 9.45324 12.5513 9.66473C12.2721 9.86262 11.1502 11.2396 11.3602 11.7381C11.4913 12.0497 11.799 12.2469 12.1356 12.2726C12.7253 12.3179 13.1903 12.0075 13.612 11.6517C13.6973 11.5792 13.8278 11.6467 13.8167 11.7582C13.6996 12.9332 13.7024 14.6775 14.3834 14.7528C15.1287 14.8353 16.1722 12.651 16.1972 11.9735C16.2223 11.2959 15.6428 11.3382 15.678 10.9211C15.7133 10.5039 15.9023 10.1179 16.0381 9.72188C16.313 8.92075 16.4014 8.00279 17.1914 7.50907C17.5512 7.28424 18.0233 7.30035 18.3385 7.58435C18.6912 7.90208 18.6245 8.34344 18.4598 8.70297C18.2463 9.16924 17.8772 9.55193 17.6758 10.0235C17.4747 10.4948 17.5114 11.1459 17.9568 11.3984C18.4321 11.6678 19.0042 11.3277 19.48 11.0593C19.9561 10.7909 20.6774 10.6486 20.9493 11.1232C20.7973 11.8906 20.6324 12.6877 20.1583 13.3094C19.6842 13.931 18.8027 14.3159 18.1 13.9745C17.7534 14.0302 17.5648 14.4229 17.5404 14.7739C17.5159 15.1246 17.5945 15.4834 17.5142 15.8258C17.2853 16.7994 16.0323 17.0381 15.0345 17.0786C14.3733 17.1055 13.7122 17.1325 13.051 17.1594C12.9174 17.165 12.7698 17.1657 12.6681 17.0789C12.5588 16.9855 12.5422 16.8253 12.5384 16.6818C12.5246 16.1513 12.7973 15.5239 12.4453 15.0957C12.1583 14.8235 11.3118 14.894 11.1668 15.2623C11.0215 15.6307 11.2892 16.3422 11.0185 16.707C10.7479 17.0716 10.0434 17.2214 9.59525 18.0275C9.47113 18.2506 9.37294 18.4968 9.18436 18.6683C9.00863 18.8279 8.77473 18.9039 8.54864 18.9754C7.46754 19.3176 5.79075 18.5432 5.24139 19.1376C4.78241 19.7041 5.0372 20.5364 5.27487 21.2258C5.5128 21.9154 5.65908 22.8094 5.08882 23.2628C4.57369 23.6725 3.82241 23.4368 3.21489 23.1848L1.70377 22.5576C1.31226 22.3952 0.866881 22.6133 0.754844 23.0224L0.176779 25.138C0.0594543 25.5673 -0.0586259 26.0162 0.0322631 26.4518C0.194151 27.2255 0.965575 27.7209 1.72391 27.939C2.24784 28.0895 2.79645 28.1517 3.32592 28.2748C3.7076 28.3635 4.09508 28.1381 4.20284 27.7615C4.29624 27.4349 4.41332 27.1172 4.58452 26.8249C4.88161 26.3173 5.37281 25.8891 5.95591 25.8178C6.24444 25.7828 6.59138 25.8123 6.76535 25.5789C6.90232 25.3948 6.85801 25.1282 6.96753 24.9268C7.16743 24.5592 7.69741 24.6176 8.11258 24.6655C8.81401 24.7458 9.53508 24.6383 10.1849 24.3628C10.4989 24.2296 10.8672 24.3256 11.0666 24.6023C11.5654 25.2951 11.8702 26.5449 12.3184 27.2851C12.7152 27.9407 13.0095 28.1064 13.0591 28.9247C13.0694 29.0921 12.9944 29.254 12.8595 29.3537C12.5007 29.6183 12.1696 29.932 11.7534 29.9665C11.6459 29.9753 11.582 30.0909 11.6346 30.1848C11.7987 30.4781 12.2892 30.9134 12.4576 30.9955C12.6787 31.1032 12.941 31.07 13.1807 31.0138C14.0108 30.8195 14.3389 30.0649 14.4378 29.8915C14.5365 29.7182 15.0363 29.5704 15.0363 29.5704C15.1221 29.6357 15.2475 29.6216 15.3102 29.5337C15.432 29.3632 15.4323 29.0961 15.3271 28.9015C15.1886 28.6452 14.929 28.4828 14.6886 28.3184C13.8693 27.7574 13.7678 26.1642 13.2034 25.3465C13.0724 25.1569 12.9581 24.9177 12.9088 24.6853C12.8275 24.3029 13.2384 24.0056 13.5757 24.2035L16.2755 25.7873C16.4296 25.8777 16.5894 25.9737 16.6864 26.124C16.9384 26.5155 16.6519 27.0495 16.7871 27.4951C16.8913 27.839 17.2186 28.0543 17.4852 28.2947C17.7519 28.5349 17.5915 29.05 17.8357 29.2356C17.9981 29.3023 18.1872 29.2958 18.3478 29.2255C18.4722 29.1711 18.6056 29.1424 18.7416 29.1409C19.0648 29.1371 19.4065 29.0198 19.3393 28.7137C19.3257 28.652 19.2947 28.5953 19.2559 28.5455L18.7242 27.4661C18.6378 27.1444 18.9785 27.0913 19.1691 27.083C19.3597 27.0746 19.8252 27.0812 20.0734 27.0812C20.3217 27.0812 21.5355 25.9822 21.6218 25.496C21.725 24.9157 21.8285 24.3354 21.9317 23.7551C21.9788 23.4894 22.0352 23.2062 22.2261 23.0159C22.4167 22.8255 22.6369 23.1636 22.9245 23.0337C23.2963 22.8655 23.0713 22.4058 23.5909 22.394C23.7906 22.3895 23.9781 22.4884 24.0919 22.6528C24.1398 22.7218 24.1967 22.7764 24.2966 22.7684C24.344 22.7646 24.3888 22.7447 24.4265 22.7162C24.8145 22.4222 25.1025 22.0193 25.4658 21.6968C25.809 21.3922 26.5107 20.9994 26.7119 21.2353C26.913 21.4712 27.2232 22.4421 25.6481 23.3331C25.3102 23.5242 25.3024 23.8041 25.4794 24.1707C25.5572 24.3321 25.7287 24.4255 25.9077 24.4283C26.3259 24.4346 26.9274 23.8452 27.6333 24.4222C27.6859 24.4655 28.049 25.4741 27.2879 25.6892C26.2476 25.9832 25.8181 25.9409 24.5786 26.1018C24.0096 26.1756 23.3913 26.2738 23.0018 26.6957C22.7248 26.9958 22.5977 27.4291 22.2651 27.6658C22.0853 27.7937 21.8597 27.8516 21.6936 27.9971C21.4342 28.224 21.3806 28.62 21.4725 28.9523C21.5644 29.2847 21.7754 29.5689 21.9821 29.8446C22.1128 30.0186 22.2505 30.1991 22.4456 30.2948C22.604 30.3726 22.786 30.3872 22.9622 30.3799C24.0026 30.3368 25.0111 29.5918 26.0082 29.8927C26.2189 29.9562 26.4213 30.0659 26.6411 30.0679C26.9392 30.0702 27.1978 29.8761 27.442 29.7046C28.4347 29.0077 29.5936 28.5498 30.7941 28.3798C31.0531 28.3433 31.3542 28.2942 31.4804 28.0646C31.5388 27.9584 31.5461 27.8325 31.5521 27.7116C31.5841 27.083 31.573 26.3528 31.0826 25.9591C30.8794 25.7962 30.6226 25.7196 30.3864 25.6098C29.6729 25.2785 29.5188 24.1466 29.7731 23.7193C29.9567 23.4116 31.5504 24.2286 32.427 24.7093C32.6846 24.8505 32.9991 24.6639 32.9991 24.3701L33.0001 2.3868C33.0001 2.17255 32.8258 1.99908 32.6116 2.00034C31.7445 2.00537 29.7014 2.01494 29.3645 2.00059Z" fill="#D40E14"/>
<path d="M29.5986 2.00615C29.4923 2.00474 29.4118 2.00304 29.3644 2.00078C29.2532 1.99542 29.1421 1.99852 29.0319 2.00812C29.2214 2.00756 29.413 2.00699 29.5986 2.00615Z" fill="#D40E14"/>
<path d="M31.0828 25.9592C30.8796 25.7961 30.6228 25.7198 30.3866 25.61C29.9025 25.3852 29.7897 24.2112 29.7733 23.7195C28.9508 23.3043 28.943 23.8612 28.8065 24.0904C28.6942 24.2789 28.6577 24.5624 28.7466 24.9179C28.8664 25.3975 28.8876 25.7961 29.0908 25.9592C29.5812 26.3528 29.592 27.0829 29.5603 27.7116C29.5543 27.8327 29.5467 27.9583 29.4886 28.0645C29.3624 28.2944 29.0613 28.3433 28.8022 28.38C27.6018 28.55 26.4429 29.0079 25.4502 29.7048C25.3885 29.7481 25.3258 29.7929 25.2618 29.8355C25.5116 29.8081 25.7603 29.8181 26.0083 29.8929C26.2188 29.9563 26.4212 30.0661 26.641 30.0679C26.9394 30.0704 27.198 29.8763 27.4422 29.7048C28.4349 29.0079 29.5938 28.55 30.794 28.38C31.0533 28.3435 31.3542 28.2944 31.4803 28.0648C31.5387 27.9585 31.5463 27.8327 31.5523 27.7116C31.584 27.0829 31.5732 26.3528 31.0828 25.9592Z" fill="#D40E14"/>
<path d="M31.008 2.00729L31.0072 23.9919C31.4964 24.2109 32.0334 24.4937 32.4262 24.7092C32.684 24.8507 32.9992 24.6644 32.9992 24.3705L33 2.38696C33 2.17271 32.8257 1.99924 32.6112 2.0005C32.2253 2.00276 31.6059 2.00578 31.008 2.00729Z" fill="#D40E14"/>
</g>
<defs>
<clipPath id="clip0_4201_190">
<rect width="33" height="33" fill="white"/>
</clipPath>
</defs>
</svg>
