<svg width="40" height="33" viewBox="0 0 40 33" fill="none" xmlns="http://www.w3.org/2000/svg">
<path fill-rule="evenodd" clip-rule="evenodd" d="M32.6859 22.2386L21.112 2.96557L22.892 0H21.2487L20.2894 1.59841L19.3296 0H17.6861L19.4678 2.96713L3.4467 29.6599V26.1922H2.0428V31.5772H0V33H40V31.5772H38.5442V26.1922H37.1403V29.6611L32.6859 22.243V22.2386ZM7.90152 31.5772H3.93915L7.90152 24.9755V31.5772ZM32.6859 24.9799L36.6474 31.5772H32.6859V24.9799ZM19.5795 19.663C17.2534 19.663 15.3677 21.5741 15.3677 23.9315V31.5369H24.632V23.9315C24.632 21.5741 22.7464 19.663 20.4203 19.663H19.5795Z" fill="#D40E14"/>
</svg>
