<svg width="31" height="23" viewBox="0 0 31 23" fill="none" xmlns="http://www.w3.org/2000/svg">
<path d="M17.4688 9.26192C21.1404 9.26192 24.2424 7.79376 24.2424 6.05594V4.90308C23.0544 6.2282 20.4986 7.12496 17.4688 7.12496C14.4389 7.12496 11.8831 6.2282 10.6952 4.90308V6.05594C10.6952 7.79376 13.7971 9.26192 17.4688 9.26192Z" fill="#D40E14"/>
<path d="M17.4688 6.41188C21.1404 6.41188 24.2424 4.94372 24.2424 3.20598C24.2424 1.46823 21.1404 0 17.4688 0C13.7971 0 10.6952 1.46816 10.6952 3.2059C10.6952 4.94365 13.7971 6.41188 17.4688 6.41188Z" fill="#D40E14"/>
<path d="M30.694 12.203C29.8643 11.2487 26.4024 11.6826 19.3761 16.0464C16.3946 17.8986 11.6617 15.1307 11.4617 15.0119C11.2924 14.9113 11.2366 14.6926 11.3372 14.5232C11.4376 14.354 11.6563 14.2982 11.8256 14.3986C11.8695 14.4246 16.1282 16.9135 18.7684 15.5706C17.9667 12.9932 15.3139 11.4646 10.8774 11.0256C7.98775 10.7397 5.21051 11.0348 4.3114 11.1492V21.9114C6.26975 20.362 8.92643 20.5534 10.2995 20.961C13.5561 21.9273 15.1069 21.9509 16.685 21.665C21.3282 20.8237 24.7585 18.8808 26.8186 17.399C29.055 15.7904 30.2063 14.3618 30.2176 14.3476C30.2192 14.3456 30.2209 14.3434 30.2226 14.3415C30.8945 13.5359 31.0884 12.6564 30.694 12.203Z" fill="#D40E14"/>
<path d="M0 22.4248L3.59827 23V9.58984L0 10.1962V22.4248Z" fill="#D40E14"/>
</svg>
