<svg width="31" height="33" viewBox="0 0 31 33" fill="none" xmlns="http://www.w3.org/2000/svg">
<path d="M5.87204 8.25C7.77237 8.25 9.26549 6.7375 9.26549 4.8125C9.26549 2.8875 7.77237 1.375 5.87204 1.375C3.97171 1.375 2.47859 2.8875 2.47859 4.8125C2.47859 6.7375 3.97171 8.25 5.87204 8.25ZM24.8754 8.25C26.7757 8.25 28.2688 6.7375 28.2688 4.8125C28.2688 2.8875 26.7757 1.375 24.8754 1.375C22.975 1.375 21.4819 2.8875 21.4819 4.8125C21.4819 6.7375 22.975 8.25 24.8754 8.25ZM15.238 6.875C17.1383 6.875 18.6314 5.3625 18.6314 3.4375C18.6314 1.5125 17.1383 0 15.238 0C13.3376 0 11.8445 1.5125 11.8445 3.4375C11.8445 5.3625 13.3376 6.875 15.238 6.875ZM8.72254 22.275C8.04385 21.45 7.77237 20.4875 7.77237 19.3875L8.72254 11.4125C8.72254 11.1375 8.85828 10.8625 8.85828 10.5875C8.85828 10.45 8.85828 10.175 8.85828 10.0375C8.72254 9.9 8.5868 9.7625 8.45106 9.7625C8.04385 9.625 7.77237 9.625 7.5009 9.625H4.24319C2.47859 9.625 0.985475 10.8625 0.849737 12.65L0.0353095 19.6625C-0.100428 20.2125 0.171047 20.9 0.578261 21.3125C0.849737 21.725 1.25695 22 1.7999 22L2.47859 30.9375C2.47859 31.35 2.75007 31.625 3.15728 31.625H8.5868C8.99401 31.625 9.26549 31.35 9.26549 30.9375L9.80844 23.5125C9.80844 23.2375 9.6727 22.9625 9.53697 22.825C9.12975 22.825 8.85828 22.55 8.72254 22.275ZM21.3462 19.525L20.396 11.55C20.2603 9.625 18.7671 8.25 17.0026 8.25H13.4734C11.7088 8.25 10.2157 9.625 10.0799 11.55L9.12975 19.525C8.99401 20.2125 9.26549 20.9 9.6727 21.3125C10.0799 21.725 10.4871 22 11.0301 22L11.8445 32.3125C11.8445 32.725 12.116 33 12.5232 33H17.9527C18.3599 33 18.6314 32.725 18.6314 32.3125L19.4458 22C19.9888 22 20.5317 21.725 20.8032 21.3125C21.2104 20.9 21.4819 20.2125 21.3462 19.525ZM30.8478 19.6625L30.0334 12.65C29.7619 10.8625 28.2688 9.625 26.5042 9.625H23.1108C22.7036 9.625 22.2963 9.625 22.0249 9.7625C21.7534 9.9 21.4819 10.175 21.6176 10.5875C21.6176 10.8625 21.7534 11.1375 21.7534 11.4125L22.7035 19.3875C22.8393 20.4875 22.4321 21.45 21.7534 22.275C21.6176 22.4125 21.4819 22.55 21.2104 22.825C21.0747 22.9625 20.939 23.2375 20.939 23.375L21.4819 30.9375C21.4819 31.35 21.7534 31.625 22.1606 31.625H27.5901C27.9973 31.625 28.2688 31.35 28.2688 30.9375L28.9475 22C29.4904 22 30.0334 21.725 30.3049 21.3125C30.7121 20.9 30.8478 20.2125 30.8478 19.6625Z" fill="#D40E14"/>
</svg>
