<svg width="31" height="32" viewBox="0 0 31 32" fill="none" xmlns="http://www.w3.org/2000/svg">
<path d="M17.4688 17.8117C21.1404 17.8117 24.2424 16.3436 24.2424 14.6057V13.4529C23.0544 14.778 20.4986 15.6748 17.4688 15.6748C14.4389 15.6748 11.8831 14.778 10.6952 13.4529V14.6057C10.6952 16.3436 13.7971 17.8117 17.4688 17.8117Z" fill="#D40E14"/>
<path d="M17.4688 14.9618C21.1404 14.9618 24.2424 13.4936 24.2424 11.7559V10.603C23.0544 11.9282 20.4986 12.8249 17.4688 12.8249C14.4389 12.8249 11.8831 11.9282 10.6952 10.603V11.7559C10.6952 13.4937 13.7971 14.9618 17.4688 14.9618Z" fill="#D40E14"/>
<path d="M17.4688 9.26192C21.1404 9.26192 24.2424 7.79376 24.2424 6.05594V4.90308C23.0544 6.2282 20.4986 7.12496 17.4688 7.12496C14.4389 7.12496 11.8831 6.2282 10.6952 4.90308V6.05594C10.6952 7.79376 13.7971 9.26192 17.4688 9.26192Z" fill="#D40E14"/>
<path d="M17.4688 6.41188C21.1404 6.41188 24.2424 4.94372 24.2424 3.20598C24.2424 1.46823 21.1404 0 17.4688 0C13.7971 0 10.6952 1.46816 10.6952 3.2059C10.6952 4.94365 13.7971 6.41188 17.4688 6.41188Z" fill="#D40E14"/>
<path d="M17.4688 12.1118C21.1404 12.1118 24.2424 10.6437 24.2424 8.90594V7.753C23.0544 9.0782 20.4986 9.97488 17.4688 9.97488C14.4389 9.97488 11.8831 9.07813 10.6952 7.75293V8.90587C10.6952 10.6437 13.7971 12.1118 17.4688 12.1118Z" fill="#D40E14"/>
<path d="M30.694 21.203C29.8643 20.2487 26.4024 20.6826 19.3761 25.0464C16.3946 26.8986 11.6617 24.1307 11.4617 24.0119C11.2924 23.9113 11.2366 23.6926 11.3372 23.5232C11.4376 23.354 11.6563 23.2982 11.8256 23.3986C11.8695 23.4246 16.1282 25.9135 18.7684 24.5706C17.9667 21.9932 15.3139 20.4646 10.8774 20.0256C7.98775 19.7397 5.21051 20.0348 4.3114 20.1492V30.9114C6.26975 29.362 8.92643 29.5534 10.2995 29.961C13.5561 30.9273 15.1069 30.9509 16.685 30.665C21.3282 29.8237 24.7585 27.8808 26.8186 26.399C29.055 24.7904 30.2063 23.3618 30.2176 23.3476C30.2192 23.3456 30.2209 23.3434 30.2226 23.3415C30.8945 22.5359 31.0884 21.6564 30.694 21.203Z" fill="#D40E14"/>
<path d="M0 31.4248L3.59827 32V18.5898L0 19.1962V31.4248Z" fill="#D40E14"/>
</svg>
