<svg width="46" height="32" viewBox="0 0 46 32" fill="none" xmlns="http://www.w3.org/2000/svg">
<path d="M45.5165 19.2201V17.5972H42.1694C41.8905 17.4451 41.6369 17.2676 41.3834 17.0394C40.3691 16.1012 39.2281 15.2644 38.1124 14.377C36.8445 15.4166 35.6274 16.4562 34.3596 17.4197C34.2582 17.4958 34.1567 17.5719 34.03 17.6226H12.4008C12.274 17.5465 12.1472 17.4705 12.0205 17.3944C10.7526 16.4308 9.53551 15.4166 8.26768 14.377C7.65912 14.8841 7.05056 15.3151 6.51808 15.8223C5.73202 16.5576 4.94597 17.2169 4.03313 17.6226H0.888916V19.2454H1.75104V30.5545H0.888916V31.9744H0.964986H6.97449V30.5545C6.97449 30.0473 6.97449 29.5655 6.97449 29.0584C6.97449 27.3849 7.35484 26.751 8.34375 26.751C9.38337 26.751 9.76372 27.3595 9.76372 29.0331V30.5798V31.9744H21.8081C21.8081 31.4926 21.8081 31.0362 21.8081 30.5798C21.8081 29.8445 21.8081 29.1345 21.8081 28.4245C21.8334 27.3595 22.3913 26.751 23.2534 26.7763C24.0902 26.8017 24.572 27.3849 24.572 28.4245V30.5798V31.9998H36.6417C36.6417 31.518 36.6417 31.0616 36.6417 30.5798C36.6417 29.8698 36.6417 29.1598 36.6417 28.4499C36.667 27.3088 37.1488 26.751 38.0109 26.751C38.8731 26.751 39.3548 27.3595 39.3802 28.4752V30.5798V31.9744H45.4404V30.8841V30.5545H44.5783V19.2454H45.5165V19.2201ZM4.00777 20.3865H5.47846V23.201H4.00777V20.3865ZM5.50381 26.2185V29.0331H4.03313V26.2185H5.50381ZM9.15516 23.1757H7.68448V20.3357H9.15516V23.1757ZM18.7907 20.3611H20.2867V23.1503H18.7907V20.3611ZM20.2867 26.1931V29.0331H18.7907V26.1931H20.2867ZM15.0632 20.3611H16.5339V23.1757H15.0632V20.3611ZM15.0379 26.2185H16.5086V29.0077H15.0379V26.2185ZM11.3865 20.3611H12.8826V23.1757H11.3865V20.3611ZM12.8826 26.2185V29.0331H11.4119V26.2185H12.8826ZM23.938 23.1757H22.4674V20.3611H23.938V23.1757ZM33.5228 20.3611H35.0189V23.1503H33.5228V20.3611ZM33.4721 26.1931H35.0696C35.0696 26.5228 35.0696 26.8777 35.0949 27.2074V27.8159V29.0331H34.385C34.3089 29.0584 34.2582 29.0584 34.1821 29.0584C34.1314 29.0584 34.0807 29.0584 34.03 29.0331H33.4721V28.1202C33.4468 27.5117 33.4721 26.8777 33.4721 26.1931ZM29.8208 20.3865H31.2914V23.1757H29.8208V20.3865ZM29.7954 26.2438H31.2914V29.0331H29.7954V26.2438ZM26.1441 20.3611H27.6147V23.1503H26.1441V20.3611ZM27.6401 26.1931V29.0331C27.1837 29.0584 26.7273 29.0838 26.1694 29.1091V26.2185H27.6401V26.1931ZM38.6702 23.1757H37.1995V20.3611H38.6702V23.1757ZM40.9016 20.3611H42.3976V23.1503H40.9016V20.3611ZM42.3976 26.2185V29.0331H40.9016V26.1931H42.3976V26.2185Z" fill="#D40E14"/>
<path d="M8.09018 12.9314L13.5926 16.9124H32.8128L38.2645 12.9314L43.0315 16.5827H45.5165V15.3149H43.5133L38.3152 11.2832L32.3818 15.6445H14.0236L8.03947 11.2832L3.67814 15.1374H0.888916V16.4052H4.15991L8.09018 12.9314Z" fill="#D40E14"/>
<path d="M25.9413 8.69693C24.0395 7.98695 21.58 7.68267 19.6529 9.12799C17.7004 10.5733 16.8636 12.6526 16.889 15.1375H29.5926C29.3898 12.2468 28.5277 9.66048 25.9413 8.69693Z" fill="#D40E14"/>
<path d="M21.1233 3.75293H22.0108V7.58177H21.1233V3.75293Z" fill="#D40E14"/>
<path d="M22.7463 3.75293H23.6338V7.58177H22.7463V3.75293Z" fill="#D40E14"/>
<path d="M24.3694 3.75293H25.2569V7.58177H24.3694V3.75293Z" fill="#D40E14"/>
<path d="M24.1915 1.26783C23.2533 0.405705 23.2026 0 23.2026 0C23.1012 0.380349 22.163 1.26783 22.163 1.26783C21.5291 1.7496 21.098 2.30745 21.1234 3.22029H25.3326C25.2819 2.25674 24.8254 1.67353 24.1915 1.26783Z" fill="#D40E14"/>
</svg>
