<svg width="29" height="32" viewBox="0 0 29 32" fill="none" xmlns="http://www.w3.org/2000/svg">
<path d="M3.13812 20.6028L0.0995185 26.6396C-0.0465778 26.9296 -0.0308896 27.2742 0.140455 27.5499C0.312289 27.8253 0.614777 27.9931 0.941042 27.9931H5.51194L8.25443 31.626C8.43264 31.8629 8.71233 32 9.00673 32C9.39771 32 9.70583 31.7682 9.84899 31.4833L12.7123 25.7935C8.84102 25.4258 5.42786 23.4755 3.13812 20.6028Z" fill="#EDB71F"/>
<path d="M27.9552 26.6396L24.9166 20.6028C22.6269 23.4755 19.2137 25.4258 15.3424 25.7935L18.206 31.4833C18.3489 31.7682 18.657 32 19.048 32C19.3424 32 19.6223 31.8629 19.8005 31.626L22.5428 27.9931H27.1137C27.44 27.9931 27.7424 27.8253 27.9143 27.5499C28.0856 27.2742 28.1013 26.9296 27.9552 26.6396Z" fill="#EDB71F"/>
<path d="M26.0822 11.9452C26.0822 5.3586 20.6745 0 14.0274 0C7.38042 0 1.97266 5.3586 1.97266 11.9452C1.97266 18.5316 7.38042 23.8904 14.0274 23.8904C20.6745 23.8904 26.0822 18.5318 26.0822 11.9452ZM15.4539 16.95C15.4539 17.4661 15.0317 17.8845 14.5108 17.8845C13.9901 17.8845 13.5677 17.4661 13.5677 16.95V9.20786L12.1712 10.6016C11.8043 10.9679 11.2073 10.9701 10.8377 10.6062C10.468 10.2426 10.4658 9.65103 10.8327 9.28477L13.8415 6.28192C14.1107 6.01324 14.5169 5.93196 14.8701 6.07628C15.2233 6.22059 15.4539 6.56178 15.4539 6.94021V16.95Z" fill="#EDB71F"/>
<rect x="7" y="3" width="13" height="17" fill="#EDB71F"/>
<path d="M15.673 17.4C15.673 17.5333 15.6597 17.6333 15.633 17.7C15.6197 17.7667 15.5797 17.8267 15.513 17.88C15.4464 17.9467 15.333 17.9933 15.173 18.02C15.0264 18.06 14.8197 18.08 14.553 18.08C14.273 18.08 14.0597 18.06 13.913 18.02C13.7664 17.9933 13.6664 17.9533 13.613 17.9C13.5597 17.8467 13.5197 17.7867 13.493 17.72C13.4664 17.6533 13.453 17.5533 13.453 17.42V8.62L11.993 9.94C11.8997 10.0333 11.7997 10.1133 11.693 10.18C11.5864 10.2333 11.4664 10.26 11.333 10.26C11.1864 10.26 11.053 10.22 10.933 10.14C10.8264 10.0467 10.7264 9.94 10.633 9.82C10.5264 9.7 10.4397 9.58 10.373 9.46C10.3064 9.32667 10.273 9.19333 10.273 9.06C10.273 8.94 10.3397 8.80667 10.473 8.66C10.6064 8.5 10.773 8.34 10.973 8.18L13.613 5.96C13.8664 5.74667 14.0864 5.6 14.273 5.52C14.473 5.42667 14.6597 5.38 14.833 5.38C15.1264 5.38 15.3397 5.45333 15.473 5.6C15.6064 5.73333 15.673 5.95333 15.673 6.26V17.4Z" fill="white"/>
</svg>
