<svg width="39" height="38" viewBox="0 0 39 38" fill="none" xmlns="http://www.w3.org/2000/svg">
<path d="M37.6893 17.6961C38.0842 16.2308 35.4278 14.2433 31.7606 13.2592L15.5558 8.92982L11.6714 2.2003L9.01575 1.48869L8.9197 7.15616L7.59212 6.80074L7.23614 8.12847C9.17866 11.4968 12.3048 13.7604 15.7885 14.6928L17.8455 15.2417L14.4412 18.5138L17.0544 19.2999L24.5092 17.0203L32.9935 19.2847C35.1916 19.8731 37.2968 19.1629 37.6893 17.6961Z" fill="#D40E14"/>
<path d="M0 17.3755V24.2506L1.37486 25.6255V38.0005H4.12501V25.6255L5.49987 24.2506V17.3755H0Z" fill="#D40E14"/>
<path d="M26.2502 28.3753V24.2502H7V38.0001H33.1249V28.3753H26.2502ZM9.75014 27.0004H12.5003V29.7501H9.75014V27.0004ZM15.25 35.2504H12.4999V32.5003H15.25V35.2504ZM15.25 27.0004H18.0002V29.7501H15.25V27.0004ZM20.7499 35.2504H17.9997V32.5003H20.7499V35.2504ZM23.5 29.7501H20.7499V27.0004H23.5V29.7501Z" fill="#D40E14"/>
</svg>
