<svg width="26" height="33" viewBox="0 0 26 33" fill="none" xmlns="http://www.w3.org/2000/svg">
<path d="M25.6431 14.1875C25.5262 14.0754 25.3782 14.044 25.2602 14.0189C25.2268 14.0119 25.1845 14.0029 25.15 13.9901C25.1511 13.9879 25.1522 13.9858 25.1533 13.9837C25.2012 13.8758 25.2741 13.7136 25.2045 13.5471C25.1433 13.3715 25.0064 13.245 24.8962 13.1425C24.8477 13.0982 24.7754 13.0315 24.7849 13.0064C24.8021 12.9734 24.8294 12.9291 24.8606 12.8778C25.0632 12.5437 25.3403 12.0858 25.121 11.7965C25.0793 11.7176 25.0153 11.6727 24.9541 11.645C24.9563 11.6332 24.9585 11.622 24.9607 11.6113C24.9858 11.479 25.0192 11.3002 24.9251 11.1267C24.8567 10.9565 24.7214 10.8562 24.6212 10.7814C24.5722 10.7451 24.5216 10.7078 24.481 10.648C24.4142 10.5696 24.4119 10.5664 24.4926 10.394C24.5572 10.2579 24.6452 10.0711 24.6452 9.81384C24.6452 9.3762 24.157 9.16272 23.7268 8.97379C23.5503 8.8964 23.2542 8.76671 23.2108 8.68506C23.1468 8.51801 23.2787 8.32908 23.4997 8.03501C23.7368 7.71906 24.0318 7.32572 23.965 6.81603C23.9322 6.65912 23.8286 6.41896 23.6973 6.11475C23.5331 5.73528 23.3294 5.26242 23.2932 4.99077C23.2826 4.91178 23.2353 4.84026 23.1652 4.79757C23.0945 4.75487 23.0065 4.74473 22.9281 4.76982C22.8663 4.76982 22.7266 4.72499 22.6765 4.70897L22.6013 4.68229C22.4032 4.61237 22.1772 4.53339 22.1293 4.4101C22.0386 4.17741 21.9524 3.95645 21.9184 3.77073C21.9256 3.76219 21.9329 3.75365 21.9401 3.74511C22.0075 3.66452 22.1093 3.5423 22.0592 3.38166C22.0308 3.29146 21.9318 3.2018 21.836 3.17938C21.6329 3.12975 21.398 3.17778 21.2193 3.22421C21.1325 3.24663 21.0507 3.26851 20.9733 3.27225C20.9561 3.26371 20.9321 3.23649 20.9071 3.20233C21.3067 3.07798 21.7998 2.82127 21.8739 2.56723C21.8917 2.50532 21.8833 2.42793 21.8549 2.36335C21.7748 2.18349 21.6267 2.08423 21.5188 2.01218C21.4809 1.98709 21.4414 1.96094 21.4164 1.93586C21.4369 1.90864 21.4659 1.87501 21.4859 1.85207C21.5805 1.74372 21.698 1.60816 21.6457 1.43044C21.6151 1.32797 21.5321 1.24791 21.4164 1.21109C21.2933 1.17213 21.1481 1.16999 20.9867 1.18174C20.9644 1.18334 20.9421 1.18494 20.9193 1.18654C20.946 1.06646 20.9661 0.943704 20.8748 0.835363C20.7852 0.728088 20.5687 0.71528 20.454 0.798004C20.4351 0.811346 20.4178 0.827357 20.4028 0.844969C20.3688 0.884997 20.3215 0.923957 20.2748 0.965052C20.1796 1.04724 20.0633 1.14758 19.9943 1.273C19.8623 1.29862 19.7588 1.38454 19.7148 1.50943C19.6764 1.62151 19.6631 1.73572 19.662 1.84673C19.5829 1.8526 19.4738 1.87181 19.323 1.90063L19.1916 1.8574C18.5349 1.64179 18.31 1.64979 18.1825 1.77575C18.0501 1.92358 17.9783 2.1013 17.9148 2.25821C17.8631 2.38577 17.8141 2.50638 17.7423 2.58697C17.6838 2.65422 17.597 2.71239 17.4974 2.77964C17.39 2.85222 17.2697 2.93335 17.1679 3.03368C16.8912 2.92854 16.53 2.98191 16.0992 3.20447C15.8298 3.34803 15.7046 3.70348 15.5949 4.01676C15.5599 4.11817 15.5059 4.2708 15.5037 4.28575C15.468 4.3087 15.4385 4.32631 15.4141 4.33965C15.4113 4.32311 15.4085 4.30603 15.4063 4.29215C15.3801 4.12831 15.325 3.78834 14.9521 3.75365C14.7367 3.75365 14.5708 3.86145 14.4383 3.94845C14.3715 3.99221 14.2875 4.04665 14.2402 4.04665C14.2396 4.04665 14.2391 4.04665 14.2391 4.04665C14.2246 4.04505 14.2107 4.04345 14.1984 4.04185C14.263 3.97673 14.3448 3.90202 14.4083 3.84331C14.8024 3.48306 15.3979 2.93815 15.0578 2.3324C14.9615 2.17496 14.8074 2.08796 14.6237 2.08796C14.3409 2.08796 14.0593 2.29717 13.7955 2.532C13.6986 2.4829 13.5495 2.39004 13.4504 2.32866C13.1187 2.12212 12.9155 2.00897 12.6867 2.00897C12.6706 2.01111 12.6556 2.01378 12.6405 2.01751C12.581 1.86434 12.4235 1.77575 12.2404 1.79656C12.3227 1.54839 12.3055 1.32157 12.1975 1.15078C12.1964 1.14811 12.1947 1.14544 12.193 1.14278C12.193 1.14224 12.193 1.14117 12.193 1.14011C12.193 0.922356 12.0962 0.730757 11.9225 0.619747C11.7416 0.516209 11.5357 0.494861 11.3359 0.474046L11.2274 0.467108C11.1839 0.453232 11.1416 0.44576 11.1027 0.44149C11.1005 0.387053 11.0843 0.327812 11.0387 0.271773C10.9719 0.189583 10.8377 0.144218 10.7337 0.169836C10.6012 0.201858 10.5099 0.280846 10.4414 0.354497C10.2567 0.323542 10.0652 0.260032 9.86314 0.192785C9.6355 0.117533 9.40061 0.0390788 9.11397 0.00011854C9.0867 0.00011854 9.03883 0.00225338 8.97816 0.00492189C8.82565 0.0123937 8.57463 0.0257363 8.41155 0.00278711C8.33251 -0.00842064 8.25069 0.0145286 8.19002 0.0652303C8.12936 0.115932 8.09429 0.189583 8.09429 0.26697C8.09429 0.479383 8.12156 0.793734 8.25793 1.09848C8.3019 1.18174 8.41823 1.31516 8.71545 1.64766C8.82398 1.76934 8.97649 1.93959 9.05441 2.03513C9.0071 2.1851 8.86684 2.13653 8.70933 2.12479C8.54068 2.11358 8.38038 2.11198 8.25793 2.1472C8.16776 2.17282 8.09039 2.24007 8.06256 2.32653C8.04531 2.38096 8.04587 2.42846 8.057 2.47009C8.04865 2.48023 8.0403 2.49091 8.03306 2.50265C7.99243 2.56563 7.98241 2.66009 8.00245 2.73161C8.03306 2.83941 8.14884 3.09026 8.55849 3.09026C8.70098 3.09026 8.8468 3.06143 8.97482 3.03635C8.9943 3.03261 9.01601 3.02835 9.03716 3.02461C9.0661 3.23596 8.92695 3.64797 8.85404 3.86412C8.7956 4.03704 8.7494 4.17367 8.73771 4.27454C8.72324 4.37114 8.7327 4.45226 8.7533 4.51898C8.74495 4.51737 8.73827 4.51524 8.7327 4.5131C8.73549 4.5131 8.73549 4.5099 8.7327 4.5019C8.7071 4.43732 8.62806 4.23985 8.40543 4.23985C8.239 4.23985 8.08984 4.30016 7.97518 4.41384C7.6479 4.73833 7.67351 5.44815 7.69521 6.07365C7.70189 6.25404 7.71024 6.48834 7.69911 6.61376C7.40244 6.64364 7.2338 6.0064 7.13305 5.66323C7.0735 5.46096 7.02619 5.30085 6.96162 5.18717C6.94882 5.16476 6.93268 5.14447 6.91431 5.12633C6.81746 5.03346 6.63991 4.9833 6.55642 4.9833C5.81838 4.96462 5.40984 4.95715 5.21503 4.95715C5.11095 4.95715 4.9423 4.95715 4.85158 5.05535C4.78033 5.06175 4.71577 5.0815 4.66957 5.10872C4.37235 5.25068 3.84915 5.93756 3.73783 6.42002C3.68607 6.64738 3.7178 6.83258 3.85305 6.99162C3.89758 7.03485 4.00166 7.13518 4.18533 7.13518C4.19201 7.13518 4.24489 7.13145 4.27829 7.12931C4.29053 7.13625 4.30278 7.14212 4.31613 7.14746C4.31168 7.17201 4.31112 7.19709 4.31446 7.22271C4.35621 7.56428 4.05231 8.23621 3.88923 8.597C3.82021 8.7491 3.76845 8.86812 3.75676 8.91028C3.69331 9.07306 3.71112 9.25772 3.72782 9.42103C3.73004 9.44398 3.73282 9.4712 3.73505 9.49842C3.69442 9.49095 3.65268 9.48187 3.60759 9.47173C3.49071 9.44612 3.35768 9.41623 3.20796 9.41623C2.85842 9.41623 2.78049 9.59662 2.76491 9.69963C2.75044 9.76314 2.756 9.82184 2.7727 9.87521C2.73541 9.90724 2.70702 9.94459 2.68866 9.98355C2.58346 10.1629 2.60572 10.3054 2.64357 10.394C2.74376 10.6277 3.01649 10.6939 3.28031 10.7585C3.39386 10.7862 3.60536 10.8375 3.64154 10.8903C3.71557 11.3349 3.51854 11.464 3.06436 11.7149C2.94803 11.7795 2.8278 11.8462 2.71593 11.9198C2.5406 12.0319 2.51222 12.1632 2.51889 12.2534C2.53281 12.4279 2.67084 12.5154 2.79719 12.5763C2.56398 12.6884 2.16323 12.8143 1.96286 12.8143C1.92278 12.818 1.85488 12.7679 1.78475 12.7156C1.69903 12.651 1.60163 12.5779 1.50923 12.5512C1.39068 12.4952 1.21869 12.5304 1.14077 12.6334C1.11461 12.6681 1.10014 12.7033 1.09346 12.738L1.0211 12.7359C0.932047 12.7359 0.799021 12.7444 0.686032 12.8106C0.596978 12.8533 0.462839 12.9595 0.520724 13.1996C0.471187 13.2957 0.417198 13.4403 0.499017 13.5973C0.561912 13.7083 0.655976 13.8187 0.755607 13.9356C1.06953 14.3055 1.28047 14.5947 1.12908 14.9502C1.09402 15.0281 1.02444 15.1076 0.951528 15.1925C0.860246 15.2971 0.757277 15.4156 0.697165 15.5506C0.60811 15.7219 0.643732 15.8452 0.689372 15.9189C0.699391 15.9349 0.710523 15.9498 0.722211 15.9632L0.542988 16.1163C0.495678 16.0944 0.438349 16.0779 0.370444 16.0779C0.34985 16.0779 0.29753 16.0848 0.277493 16.0891C0.0626478 16.135 0.0153375 16.277 0.0047622 16.3362C-0.0308598 16.5396 0.140571 16.6415 0.278606 16.7237C0.490669 16.8496 0.622024 16.9489 0.640948 17.0476C0.639278 17.0482 0.637052 17.0492 0.635383 17.0503C0.547998 17.0919 0.386028 17.1699 0.344284 17.3337C0.240201 17.632 0.877501 18.4091 0.88418 18.416C0.893642 18.4251 0.904217 18.4337 0.916462 18.4433C0.876388 18.5207 0.853567 18.6157 0.88418 18.7315C0.961546 18.9556 1.16971 19.0325 1.29383 19.0789C1.32723 19.0912 1.37732 19.1099 1.38289 19.1099C1.46638 19.2412 1.47695 19.2582 1.17695 19.4893C0.855793 19.7364 0.371001 20.1095 0.574157 20.91C0.735013 21.5548 1.33335 21.7618 1.62111 21.8606C1.65117 21.8712 1.67733 21.8792 1.69903 21.8878C1.73131 21.9369 1.70682 21.9817 1.48363 22.1883C1.24764 22.406 0.85301 22.7711 1.15357 23.2936C1.2699 23.4606 1.46471 23.4606 1.55766 23.4606C1.57102 23.4606 1.58382 23.4585 1.59606 23.4606C1.59996 23.4633 1.60441 23.4659 1.60775 23.4686C1.67566 23.5108 1.79254 23.7557 1.86991 23.9175C1.99347 24.1752 2.13318 24.4677 2.32743 24.6534C2.41259 24.742 2.51055 24.8237 2.64747 24.8237C2.72372 24.8237 2.81278 24.7874 2.8651 24.7346C2.92688 24.6726 2.94858 24.6006 2.95526 24.528C2.96417 24.5349 2.97307 24.5419 2.98254 24.5499C2.95916 24.6203 2.94079 24.7137 2.97641 24.8157C2.98421 24.8376 2.99478 24.8584 3.00814 24.8776C3.05935 24.9528 3.19961 25.0121 3.29312 25.0121C3.41278 25.0121 3.57976 24.971 3.84136 24.9027C4.00055 24.8616 4.20537 24.8087 4.35064 24.7879C4.36233 24.8819 4.38849 25.0121 4.52486 25.1386C4.61558 25.2037 4.74471 25.2314 5.30464 25.3312C5.57181 25.3787 6.0605 25.4663 6.33601 25.5431C6.18517 25.7368 6.00206 25.9119 5.82339 26.0838C5.55789 26.3389 5.30743 26.5796 5.1449 26.8907C5.06364 27.0722 5.0269 27.4009 4.98739 27.8124C4.97904 27.9021 4.9718 27.9805 4.96401 28.0376L4.50092 28.7736C4.4269 28.9503 4.33506 29.1702 4.37959 29.3585C4.37959 29.4818 4.43803 29.5651 4.49814 29.619C4.47087 29.7492 4.41799 29.8853 4.36233 30.0273C4.26048 30.2888 4.15472 30.5594 4.17699 30.8465C4.17699 31.0803 4.18311 31.2308 4.19424 31.322C4.23098 31.6289 4.41298 31.6748 4.51762 31.6748C4.57217 31.6748 4.61781 31.662 4.65677 31.6423C4.77087 31.6898 4.90724 31.686 4.96123 31.6892C5.31633 31.6892 5.91189 31.5772 6.26755 31.5104C6.38054 31.4891 6.46459 31.4731 6.52915 31.4688C6.58871 31.4688 6.61041 31.4773 6.59817 31.4875C6.66719 31.6807 6.79576 31.7794 6.98166 31.7789C7.11023 31.7789 7.26608 31.7277 7.51877 31.6012C7.54382 31.5889 7.5672 31.5723 7.58723 31.5531C7.65848 31.4848 7.67629 31.4048 7.67351 31.3295C7.6774 31.329 7.68074 31.3279 7.68408 31.3274C7.77703 31.306 7.91507 31.2745 7.98742 31.1785C8.07648 31.2169 8.17333 31.2281 8.25682 31.2206C8.29578 31.2676 8.34587 31.3119 8.41322 31.3439C8.45719 31.3653 8.5084 31.3765 8.55515 31.3722C8.55515 31.3722 9.44848 31.3199 9.64886 31.3092C9.77298 31.3519 9.88875 31.4416 10.0212 31.5441C10.1743 31.6625 10.3479 31.797 10.5806 31.8782C10.8427 31.9571 11.0626 31.9059 11.2029 31.8056C11.2051 31.8077 11.2073 31.8098 11.2095 31.812C11.2452 31.8461 11.2902 31.8702 11.3387 31.8824C11.3609 31.8878 11.4205 31.8942 11.4433 31.8942C11.5402 31.8942 11.6203 31.8648 11.6882 31.8291C11.7066 31.8488 11.7272 31.8734 11.7433 31.8931C11.7778 31.9342 11.8179 31.9822 11.8652 32.0276C11.8279 32.1076 11.7834 32.2421 11.8658 32.3585C11.9142 32.4503 11.996 32.5138 12.0862 32.5533C12.0561 32.6766 12.0895 32.786 12.1869 32.8783C12.2693 32.9578 12.3762 33 12.4953 33C12.8777 33 13.4415 32.4241 13.5283 32.1167C13.555 32.0271 13.5578 31.9251 13.5506 31.8221H13.5573C13.6714 31.8339 13.825 31.8029 13.9663 31.7826C14.0454 31.7714 14.1239 31.7591 14.1973 31.7533C14.199 31.7954 14.209 31.8371 14.2274 31.8718C14.2814 31.9753 14.3749 32.0233 14.4684 32.0575C14.4701 32.1418 14.4812 32.264 14.5836 32.3617C14.6048 32.382 14.6293 32.3985 14.656 32.4119C14.7094 32.4375 14.7706 32.4492 14.8485 32.4492C15.0473 32.4492 16.1538 32.2389 16.294 32.1028C16.3541 32.0452 16.3809 31.9806 16.3903 31.9182C16.5039 31.931 16.6486 31.9016 16.6942 31.8621C16.8801 31.773 16.9207 31.5974 16.9425 31.503C16.943 31.5003 16.9436 31.4982 16.9441 31.4955C17.1796 31.4411 17.415 31.4656 17.6354 31.4752C17.9905 31.4891 18.3117 31.4891 18.5466 31.4234C18.6963 31.3759 18.7636 31.2655 18.7475 31.0936C18.8154 31.0867 18.8772 31.0717 18.9334 31.0579C18.9573 31.0515 18.9801 31.0461 19.003 31.0418C19.0397 31.1395 19.1204 31.2879 19.3358 31.3386C19.3475 31.3402 19.4126 31.3439 19.4237 31.3439C19.6052 31.3439 19.7583 31.2799 19.8935 31.2233C19.9397 31.2041 19.9848 31.1854 20.0277 31.171C20.0071 31.4619 20.1162 31.789 20.8136 31.978C21.0473 32.0431 21.2733 31.8162 21.3 31.6049C21.4403 31.1043 21.4503 30.8887 21.3401 30.7248C21.2377 30.5722 21.0713 30.546 20.9716 30.5306C20.9394 30.5252 20.911 30.5204 20.8837 30.5135C20.9188 30.4687 20.9599 30.4212 20.9839 30.3939C21.0574 30.3107 21.2227 30.1217 21.0835 29.9478C21.0078 29.8218 20.8197 29.5699 20.3527 28.954C20.4952 28.7693 21.113 28.527 21.3629 28.4294C21.6323 28.3237 21.8455 28.2404 21.9746 28.1438C22.3125 27.885 22.2896 27.553 22.2735 27.3097C22.2707 27.2712 22.2685 27.2339 22.2674 27.1981C22.3013 27.2067 22.3331 27.2147 22.3642 27.2232C22.5418 27.2696 22.6826 27.3059 22.8162 27.3059C23.3605 27.3059 23.3822 26.7338 23.3956 26.3922C23.4284 25.5789 22.4783 25.0911 21.7843 24.7356C21.6011 24.6417 21.4358 24.5579 21.3407 24.4971C21.2655 24.4357 21.2138 24.3268 21.1536 24.2003C21.0818 24.0493 21.0006 23.878 20.8497 23.7339C20.6132 23.507 20.4111 23.4889 20.2636 23.4755C20.1312 23.4638 20.0171 23.4531 19.7772 23.2242C19.677 23.1094 19.1655 22.2801 19.0531 22.026C19.0647 22.0148 19.087 22.0025 19.1293 21.979C19.2623 21.9065 19.5395 21.7549 19.4427 21.3226C19.387 21.0098 19.0887 20.9116 18.9824 20.8839C18.8527 20.8033 18.7252 20.6966 18.6078 20.5818C18.6657 20.5498 18.7152 20.5023 18.7419 20.4505C18.787 20.3635 18.8288 20.2739 18.8705 20.1842C19.062 19.7727 19.2139 19.445 19.7215 19.3447C19.7382 19.3527 19.7566 19.3618 19.7766 19.3719C19.9052 19.4354 20.0661 19.5149 20.2319 19.5149C20.3672 19.5149 20.4857 19.4621 20.5458 19.3874C20.6338 19.3025 20.6627 19.2011 20.6727 19.1035C20.8286 19.1259 20.9967 19.0544 21.0089 19.0335C21.1492 18.9439 21.226 18.8083 21.2933 18.6888C21.3256 18.6322 21.3529 18.5852 21.3818 18.55C21.4336 18.5948 21.506 18.6365 21.605 18.6365C21.6685 18.6365 21.7559 18.6039 21.8049 18.566C21.9618 18.4449 22.0041 18.2826 22.0353 18.1636C22.0453 18.1257 22.062 18.0617 22.0759 18.0462C22.077 18.0462 22.1828 18.0377 22.2913 18.0467C22.5039 18.0649 22.7132 18.0563 22.8685 17.9816C23.0065 17.9154 23.0427 17.7943 23.0527 17.6966C23.1757 17.6422 23.3177 17.5984 23.4663 17.5531C23.7607 17.4629 24.0952 17.3604 24.3607 17.1469C24.4253 17.101 24.4793 17.0076 24.4899 16.9249C24.7498 17.2323 24.9752 17.4954 25.2719 17.4954C25.2875 17.4954 25.3381 17.4906 25.3531 17.4879C25.6287 17.4442 25.7517 17.1496 25.8196 16.9324C26.0405 16.2375 26.1363 14.6257 25.6431 14.1875Z" fill="#D40E14"/>
</svg>
