<svg width="33" height="33" fill="none" xmlns="http://www.w3.org/2000/svg"><g clip-path="url(#a)"><path d="M32.218 28.225l-7.586-7.587a13.265 13.265 0 002.037-7.081c0-7.365-5.97-13.334-13.335-13.334C5.97.223 0 6.193 0 13.557 0 20.922 5.97 26.89 13.334 26.89c2.833 0 5.457-.886 7.616-2.391l7.497 7.497a2.66 2.66 0 001.886.78 2.667 2.667 0 001.886-4.552zm-18.884-5.654a9.013 9.013 0 110-18.027 9.013 9.013 0 010 18.027z" fill="#D40E14"/></g><defs><clipPath id="a"><path fill="#fff" d="M0 0H33V33H0z"/></clipPath></defs></svg>