<svg width="33" height="33" viewBox="0 0 33 33" fill="none" xmlns="http://www.w3.org/2000/svg">
<path fill-rule="evenodd" clip-rule="evenodd" d="M30.7206 32.2765V32.4517C30.7206 32.7533 30.474 33 30.1725 33H29.4176C29.1161 33 28.8695 32.7533 28.8695 32.4517V32.2765H30.7206ZM17.821 20.3402H17.9765V22.7441H17.821C17.6134 22.7441 17.4435 22.5741 17.4435 22.3664V20.7179C17.4435 20.5101 17.6134 20.3402 17.821 20.3402ZM32.467 20.3402H32.6224C32.8301 20.3402 33 20.5101 33 20.7179V22.3664C33 22.5741 32.8301 22.7441 32.6224 22.7441H32.467V20.3402ZM0 19.2804H1.58631V18.0399H4.16161V19.2804H11.0593V18.0399H13.6346V19.2804H15.2208V21.0744H0V19.2804ZM4.69655 0H13.1308C14.5959 0 15.8531 0.743327 16.5594 2.02735C19.0532 6.56069 22.0522 8.99459 30.501 11.4654C30.6778 11.517 30.7949 11.6731 30.7949 11.8574V15.927C30.7949 16.1519 30.6115 16.3354 30.3867 16.3354H3.80174C1.70784 16.3354 6.80688e-05 14.627 6.80688e-05 12.5323V6.90026C6.80688e-05 6.54809 0.0387835 6.24746 0.12819 5.9068L0.911208 2.92137C1.36879 1.17642 2.89311 0 4.69655 0ZM16.845 7.08369V10.5315C16.845 10.6952 16.9351 10.8352 17.0839 10.9032C17.5382 11.1103 18.0073 11.3142 18.492 11.5147C18.762 11.6263 19.0562 11.4296 19.0562 11.1374V8.37582C19.0562 8.24833 19.0039 8.13861 18.9048 8.05843C18.4137 7.66074 17.9655 7.24391 17.5501 6.80354C17.2964 6.53448 16.845 6.71383 16.845 7.08369ZM29.2295 14.2589V13.0187C29.2295 12.8345 29.1125 12.6785 28.9358 12.6268C28.577 12.5219 28.2282 12.417 27.8887 12.312C27.6248 12.2304 27.3599 12.4258 27.3599 12.7022V14.0133C27.3599 14.2045 27.4871 14.3658 27.673 14.4104C28.0203 14.4937 28.3729 14.5759 28.731 14.6572C28.9878 14.7154 29.2295 14.5223 29.2295 14.2589ZM23.855 11.4844V13.0865C23.855 13.2708 23.9722 13.427 24.1491 13.4785C24.5327 13.5903 24.924 13.7005 25.323 13.8092C25.584 13.8804 25.8385 13.6858 25.8385 13.4152V11.9243C25.8385 11.7489 25.7335 11.5995 25.5685 11.5401C25.1681 11.396 24.7833 11.251 24.4133 11.1046C24.1442 10.9982 23.855 11.1949 23.855 11.4844ZM20.35 9.81864V11.9516C20.35 12.127 20.4549 12.2764 20.6199 12.3358C21.0394 12.4869 21.4693 12.6359 21.9103 12.7825C22.1759 12.8709 22.4473 12.675 22.4473 12.3951V10.5042C22.4473 10.345 22.3626 10.2087 22.22 10.1381C21.7762 9.91876 21.3582 9.6949 20.9632 9.46545C20.6903 9.30686 20.35 9.50275 20.35 9.81864ZM4.9268 1.89878C3.91264 1.89878 3.07485 2.54607 2.81752 3.52844L2.26115 5.65224C2.17439 5.9833 2.42091 6.30415 2.76336 6.30415H13.0884C13.4106 6.30415 13.6525 6.01856 13.6008 5.7007L13.2478 3.5285C13.0849 2.52606 12.1526 1.89885 11.1385 1.89885L4.9268 1.89878ZM3.32722 8.98247C2.49568 8.98247 1.82167 9.65678 1.82167 10.4885C1.82167 11.3203 2.49568 11.9946 3.32722 11.9946C4.15868 11.9946 4.83276 11.3203 4.83276 10.4885C4.83276 9.65678 4.15868 8.98247 3.32722 8.98247ZM12.0604 8.98247C11.2289 8.98247 10.5548 9.65678 10.5548 10.4885C10.5548 11.3203 11.2288 11.9946 12.0604 11.9946C12.8919 11.9946 13.5659 11.3203 13.5659 10.4885C13.5659 9.65678 12.8918 8.98247 12.0604 8.98247ZM20.1935 17.9407H24.6774V25.4094H19.0651V19.0695C19.0651 18.4487 19.5729 17.9407 20.1935 17.9407ZM25.7661 17.9407H30.25C30.8706 17.9407 31.3784 18.4487 31.3784 19.0696V25.4095H25.7661V17.9407ZM31.3784 26.4985V31.1875H19.0651V26.4985H31.3784ZM29.018 27.8955C28.4949 27.8955 28.0708 28.3197 28.0708 28.8429C28.0708 29.3662 28.4949 29.7904 29.018 29.7904C29.5411 29.7904 29.9652 29.3662 29.9652 28.8429C29.9652 28.3197 29.5411 27.8955 29.018 27.8955ZM21.4254 27.8955C20.9023 27.8955 20.4782 28.3197 20.4782 28.8429C20.4782 29.3662 20.9023 29.7904 21.4254 29.7904C21.9485 29.7904 22.3726 29.3662 22.3726 28.8429C22.3726 28.3197 21.9486 27.8955 21.4254 27.8955ZM24.2089 29.3875H26.2346C26.5352 29.3875 26.7789 29.1437 26.7789 28.843C26.7789 28.5423 26.5352 28.2985 26.2346 28.2985H24.2089C23.9083 28.2985 23.6646 28.5423 23.6646 28.843C23.6646 29.1437 23.9083 29.3875 24.2089 29.3875ZM21.574 32.2765V32.4517C21.574 32.7533 21.3273 33 21.0259 33H20.2709C19.9695 33 19.7228 32.7533 19.7228 32.4517V32.2765H21.574Z" fill="#D40E14"/>
</svg>
