<svg width="33" height="33" viewBox="0 0 33 33" fill="none" xmlns="http://www.w3.org/2000/svg">
<path d="M6.02875 6.16706C7.73169 6.16706 9.11219 4.78656 9.11219 3.08362C9.11219 1.38069 7.73169 0.000183105 6.02875 0.000183105C4.32581 0.000183105 2.94531 1.38069 2.94531 3.08362C2.94531 4.78656 4.32581 6.16706 6.02875 6.16706Z" fill="#D40E14"/>
<path d="M18.9295 27.1221C13.3979 24.6079 13.8429 19.8931 13.7939 19.5991C14.6086 17.1448 14.1961 13.2931 13.4639 10.5448C14.49 11.0191 15.2222 11.6534 15.645 12.4474C16.7469 14.5409 19.9494 12.8692 18.8212 10.7613C18.0065 9.21961 16.604 7.98211 14.7633 7.1829C10.0159 5.10029 6.50037 6.33108 6.63701 9.19383C6.63701 11.3961 4.83799 13.7839 1.44466 14.479C0.42682 14.6894 -0.157899 15.6758 0.0370074 16.5982C0.236554 17.5722 1.1719 18.191 2.16138 18.011C4.55388 17.5212 6.52873 16.4384 7.94154 14.8451C8.02404 16.4074 7.86935 17.7532 7.79716 18.3926C7.74612 18.9577 4.7854 24.0779 4.57966 30.881C4.53738 32.0164 5.48149 32.9471 6.58544 33.0002C6.60091 33.0002 6.60091 32.9951 6.63185 33.0002C6.68444 32.976 8.63763 32.7605 8.68919 31.0048C8.77685 28.1482 9.45232 25.5288 10.1897 23.487C11.8242 28.4215 16.7226 30.6541 17.3414 30.9171C18.3494 31.3492 19.5823 30.8831 20.0226 29.8137C20.4609 28.767 19.9711 27.5604 18.9295 27.1221Z" fill="#D40E14"/>
<path d="M24.3744 28.5761C22.1846 29.6707 22.9529 33.0001 25.4212 33.0001C27.131 33.0001 28.2824 31.1882 27.5094 29.6176C26.9319 28.4678 25.5243 27.9986 24.3744 28.5761Z" fill="#D40E14"/>
<path d="M21.3836 18.2389L19.0895 13.7262C18.8266 13.9531 18.5224 14.1284 18.1975 14.2521L20.4626 18.7025L20.1775 18.8464C19.6258 19.1248 19.4041 19.8003 19.6774 20.352L23.4672 27.9214C25.1698 26.723 27.504 27.3129 28.4327 29.1537C28.51 29.3084 28.5719 29.4682 28.6234 29.6281L29.9383 28.9681L23.6683 17.0881L21.3836 18.2389Z" fill="#D40E14"/>
<path d="M28.087 16.8045C27.659 15.9537 26.6226 15.6082 25.7667 16.0362L24.5916 16.6271L30.8564 28.5051L31.7788 28.04C32.6358 27.6079 32.973 26.5606 32.5523 25.7197L28.087 16.8045Z" fill="#D40E14"/>
</svg>
