<svg width="30" height="30" viewBox="0 0 30 30" fill="none" xmlns="http://www.w3.org/2000/svg">
<path d="M22.2868 28.7993L24.3433 26.7428L22.0058 11.2578C23.7655 9.55248 25.5159 7.79764 27.2481 5.95608C29.2596 3.7452 30.1479 1.22151 29.2663 0.339917C28.385 -0.541386 25.8613 0.346885 23.6504 2.35841C21.8089 4.09063 20.054 5.84102 18.3487 7.60073L2.86336 5.26295L0.806836 7.31948L13.5943 12.6459C10.928 15.5396 8.31233 18.4333 5.64197 21.3037L1.35799 20.0732L0 21.4312L4.80051 24.8057L8.17473 29.6059L9.53272 28.2479L8.30284 23.9646C11.1729 21.2938 14.0663 18.6779 16.9607 16.0123L22.2868 28.7993Z" fill="#D40E14"/>
<path d="M13.7312 5.6933L12.0641 4.02615L9.26562 6.82462L10.9328 8.49177L13.7312 5.6933Z" fill="#D40E14"/>
<path d="M25.5801 17.5421L23.9129 15.875L21.1145 18.6735L22.7816 20.3406L25.5801 17.5421Z" fill="#D40E14"/>
</svg>
