<svg width="34" height="33" fill="none" xmlns="http://www.w3.org/2000/svg"><path d="M9.167 8.751c1.556 0 2.817-1.24 2.817-2.771 0-1.53-1.261-2.772-2.817-2.772C7.61 3.208 6.35 4.45 6.35 5.98c0 1.53 1.261 2.771 2.817 2.771zM1.74 19.914a1.385 1.385 0 001.028-.97c.553-2.008 1.85-4.791 3.23-5.719v18.389c0 .765.63 1.385 1.409 1.385.777 0 1.408-.62 1.408-1.385V21.22h.704v10.393c0 .765.63 1.385 1.409 1.385.777 0 1.408-.62 1.408-1.385V13.225c1.35.908 2.619 3.59 3.191 5.587v.331h.132c.054.117.117.224.198.319v1.413h-1.144a.786.786 0 00-.792.78V30.4c0 .389.293.696.67.756v.522c0 .227.188.411.419.411a.415.415 0 00.418-.411v-.498h4.6v.498c0 .227.187.411.418.411a.415.415 0 00.418-.411v-.522c.377-.06.671-.367.671-.756v-8.747c0-.43-.355-.779-.792-.779h-1.145v-1.732h.33v-.693h-1.604a1.354 1.354 0 00-.038-.227c-.965-3.53-3.678-8.615-7.123-8.063-.274-.046-3.83-.027-3.992 0-3.43-.55-6.144 4.482-7.123 8.063a1.37 1.37 0 00.607 1.523m15.796 1.13v-.993c.711.252 1.457-.08 1.756-.74h.797v1.732h-2.553zM25.411 4.522c1.27 0 2.298-1.012 2.298-2.26C27.71 1.011 26.68 0 25.411 0c-1.27 0-2.298 1.012-2.298 2.261s1.029 2.261 2.298 2.261zM26.338 11.602h1.658v-3.43c.86.578 1.677 2.04 2.217 3.43h2.438c-.86-2.61-2.93-6.41-5.613-5.931-.243-.04-3.104-.023-3.257 0-2.63-.517-4.743 3.295-5.612 5.93h2.436c.541-1.388 1.362-2.852 2.223-3.429v3.43h1.64M33.542 12.375v1.375H17.19a12.741 12.741 0 00-.88-1.375h17.232z" fill="#D40E14"/></svg>