<svg width="32" height="33" viewBox="0 0 32 33" fill="none" xmlns="http://www.w3.org/2000/svg">
<path d="M19.4419 18.7598C19.4307 18.6091 19.3588 18.4748 19.2401 18.3816C19.1213 18.2885 18.9738 18.251 18.825 18.2754L17.0076 18.5785C16.6607 18.636 16.3044 18.5985 15.9775 18.4698L13.455 17.4741C13.3925 17.4498 13.3263 17.4373 13.26 17.4373C13.2319 17.4373 13.2038 17.4398 13.1763 17.4441L9.2238 18.0766C8.9913 18.1135 8.8138 18.2954 8.7813 18.5285L8.53193 20.336C8.50005 20.5673 8.62067 20.7898 8.83192 20.8891L10.6657 21.7541C10.7363 21.7873 10.8144 21.8048 10.8925 21.8048H11.7588C12.29 21.8048 12.8038 22.0266 13.1682 22.4129C13.5325 22.7991 13.7238 23.3248 13.6932 23.8554L13.5019 27.1348C13.4957 27.2466 13.5238 27.3554 13.5832 27.4498L14.6007 29.0573C14.7213 29.2479 14.9013 29.2923 14.9976 29.3016C15.0938 29.311 15.2788 29.3029 15.4344 29.1391L17.3669 27.1104C17.4494 27.0235 17.5007 26.9098 17.5113 26.7904L17.8232 23.2579C17.8482 22.9785 17.9351 22.7023 18.0757 22.4591L19.4507 20.0785C19.5044 19.9854 19.5282 19.8798 19.5207 19.7729L19.4438 18.7598H19.4419Z" fill="#D40E14"/>
<path d="M18.5482 7.62266C18.4432 7.57078 18.3382 7.52078 18.2325 7.47266L17.1157 9.05891C16.6107 9.77703 15.7575 10.1377 14.8907 10.0008L14.0919 9.87516C13.7057 9.81453 13.3325 10.0102 13.1625 10.362L11.3332 14.1545C11.0125 14.8189 10.3875 15.2902 9.66003 15.4145L8.53816 15.607C8.41128 15.6289 8.28316 15.6395 8.15566 15.6395C7.66691 15.6395 7.18378 15.4827 6.78816 15.1883L5.37378 14.1364C5.16566 13.9814 4.90128 13.927 4.64816 13.9858L0.725035 14.9045C-1.40372 20.9564 1.27628 27.782 7.17503 30.6902C13.545 33.8308 21.2544 31.2127 24.3944 24.8427C27.535 18.4727 24.9169 10.7633 18.5469 7.62328L18.5482 7.62266ZM20.6669 20.7814L19.2919 23.162C19.2532 23.2289 19.2294 23.3045 19.2225 23.3814L18.9107 26.9133C18.8719 27.3489 18.685 27.7627 18.3838 28.0795L16.4513 30.1083C16.0819 30.4964 15.58 30.7102 15.0519 30.7102C14.9875 30.7102 14.9225 30.707 14.8582 30.7008C14.26 30.642 13.7325 30.3164 13.4113 29.8089L12.3938 28.2014C12.1757 27.857 12.0732 27.4595 12.0969 27.052L12.2882 23.7727C12.2969 23.6252 12.2457 23.4845 12.1444 23.377C12.0432 23.2695 11.9057 23.2102 11.7582 23.2102H10.8913C10.6075 23.2102 10.3219 23.1458 10.065 23.0252L8.23128 22.1602C7.46128 21.797 7.02191 20.9864 7.13816 20.1427L7.38753 18.3352C7.50503 17.4845 8.15316 16.822 9.00128 16.6864L12.9538 16.0539C13.2969 15.9989 13.6482 16.0377 13.9713 16.1652L16.4938 17.1608C16.5838 17.1964 16.6813 17.2064 16.7763 17.1908L18.5938 16.8877C19.1288 16.7983 19.6813 16.9395 20.1082 17.2745C20.535 17.6095 20.8038 18.112 20.8444 18.6527L20.9213 19.6658C20.9507 20.0564 20.8632 20.442 20.6669 20.7814Z" fill="#D40E14"/>
<path d="M4.32812 12.616C4.98499 12.4622 5.67249 12.6047 6.21375 13.0072L7.62812 14.0591C7.81999 14.2016 8.06562 14.2604 8.30125 14.2204L9.42312 14.0279C9.70312 13.9797 9.94375 13.7985 10.0669 13.5429L11.8962 9.75035C12.3375 8.83598 13.3075 8.32723 14.3112 8.48535L15.11 8.61098C15.4437 8.66348 15.7719 8.52473 15.9662 8.24848L16.8862 6.9416C10.9512 4.97848 4.33437 7.59285 1.41687 13.2972L4.32874 12.6154L4.32812 12.616Z" fill="#D40E14"/>
<path d="M23.1438 0.450903C23.9175 1.21153 24.8894 2.1734 25.3025 2.58153C26.465 2.1259 27.7344 1.75215 28.9588 1.3784C29.3069 1.27215 29.6694 1.31903 29.9069 1.57028C30.0488 1.71965 30.19 1.87028 30.33 2.02215C30.4463 2.1484 30.4175 2.36028 30.2706 2.4634C29.315 3.13778 28.1875 3.6509 27.2238 4.33403C27.1913 4.35715 27.1838 4.40215 27.2081 4.4309C27.3563 4.60965 28.0056 5.36715 28.5725 6.00778C28.6094 6.04965 28.6669 6.0659 28.7225 6.05715C29.11 5.87278 29.2788 5.80715 29.6619 5.62715C29.8238 5.56465 30.0006 5.60653 30.115 5.73403C30.3244 5.96653 30.565 6.23278 30.7838 6.47965C30.8594 6.56528 30.835 6.69903 30.7338 6.75215C30.0425 7.11653 29.5563 7.39278 28.9319 7.8534C28.8744 7.8959 28.8231 7.94715 28.7806 8.00528C28.3206 8.6284 28.0431 9.12778 27.6806 9.80778C27.6269 9.9084 27.4938 9.93215 27.4088 9.85715C27.1613 9.6384 26.8944 9.39715 26.6619 9.18778C26.5344 9.0734 26.4925 8.8959 26.555 8.73465C26.735 8.35153 26.8006 8.18278 26.985 7.79528C26.9944 7.73965 26.9775 7.68215 26.9356 7.64528C26.295 7.0784 25.5375 6.42903 25.3588 6.2809C25.33 6.25715 25.2844 6.26403 25.2619 6.29653C24.5788 7.2609 24.0656 8.3884 23.3913 9.3434C23.2875 9.49028 23.0756 9.51903 22.95 9.40278C22.7981 9.26278 22.6481 9.12215 22.4981 8.97965C22.2475 8.74153 22.1994 8.37965 22.3063 8.03153C22.6838 6.8034 23.0538 5.53778 23.5094 4.37528C23.1019 3.96215 22.1394 2.99028 21.3788 2.21653C20.8988 1.72778 20.7356 0.776528 21.22 0.292153C21.7044 -0.192222 22.6556 -0.029097 23.1444 0.450903H23.1438Z" fill="#D40E14"/>
<path d="M30.4969 10.6496C30.2494 10.7015 29.9894 10.5802 29.8757 10.3421C29.6844 9.94459 29.4651 9.55584 29.2226 9.18772C29.0519 8.92834 29.1238 8.57959 29.3838 8.40897C29.6432 8.23834 29.9919 8.31022 30.1626 8.57022C30.4326 8.98022 30.6769 9.41272 30.8894 9.85522C31.0238 10.1352 30.9063 10.4715 30.6263 10.6058C30.5844 10.6258 30.5407 10.6408 30.4969 10.6496Z" fill="#D40E14"/>
<path d="M31.1076 17.3115C30.8113 17.2178 30.4951 17.3821 30.402 17.6784C30.1445 18.494 29.782 19.2753 29.3251 20.0003C29.1595 20.2634 29.2382 20.6103 29.5013 20.7759C29.6295 20.8565 29.7782 20.8796 29.9157 20.8509C30.0601 20.8209 30.192 20.7346 30.277 20.6003C30.7851 19.7934 31.1882 18.9246 31.4745 18.0178C31.5682 17.7215 31.4038 17.4053 31.1076 17.3121V17.3115Z" fill="#D40E14"/>
<path d="M27.6963 21.9746C27.0707 22.5609 26.3725 23.0634 25.6207 23.4696C25.3475 23.6171 25.245 23.9584 25.3925 24.2315C25.5138 24.4559 25.765 24.5646 26.0025 24.5152C26.0544 24.5046 26.1057 24.4859 26.155 24.4596C26.9925 24.0077 27.77 23.4477 28.4657 22.7959C28.6925 22.5834 28.7038 22.2277 28.4913 22.0009C28.2788 21.774 27.9225 21.7627 27.6963 21.9752V21.9746Z" fill="#D40E14"/>
<path d="M31.7519 12.4054L31.7463 12.3779C31.6825 12.0735 31.385 11.8785 31.0806 11.9423C30.7763 12.006 30.5813 12.3035 30.645 12.6079L30.6506 12.6354C30.8244 13.4691 30.8925 14.3185 30.8525 15.1604C30.8375 15.471 31.0775 15.7341 31.3875 15.7491C31.4363 15.7516 31.4838 15.7473 31.5294 15.7379C31.7744 15.6866 31.9638 15.4754 31.9763 15.2141C32.0206 14.2773 31.9456 13.3323 31.7519 12.406V12.4054Z" fill="#D40E14"/>
</svg>
