<svg width="43" height="25" viewBox="0 0 43 25" fill="none" xmlns="http://www.w3.org/2000/svg">
<path d="M35.4142 14.7049C34.2057 14.6776 33.0094 14.953 31.9336 15.5063C31.0495 15.9734 30.0601 16.2039 29.0612 16.1754C28.0656 16.2033 27.0795 15.9755 26.1962 15.5136C23.7875 14.4513 22.3943 11.894 22.8035 9.28609C22.8984 8.61583 23.1803 7.9862 23.6169 7.47006C22.1313 7.01151 20.5418 7.01665 19.0592 7.48475C18.0061 7.90899 17.1845 8.7654 16.8024 9.83749C16.1296 11.2968 16.1922 12.9907 16.9709 14.396C18.0847 16.3811 20.6127 17.9178 23.5656 18.3884C23.9657 18.4527 24.2382 18.8303 24.1741 19.2317C24.1171 19.5893 23.8093 19.8521 23.4484 19.8515C23.4092 19.8525 23.3699 19.85 23.3312 19.8442C19.9459 19.3001 17.0222 17.484 15.696 15.1166C14.6987 13.3199 14.6037 11.1566 15.4395 9.27875C15.9795 7.83935 17.0957 6.69269 18.5171 6.11719C21.5946 4.88936 25.1631 6.27161 25.9032 6.69071C26.3976 6.975 26.845 7.33467 27.2295 7.75678C27.3623 7.95696 27.5834 8.0803 27.823 8.08765C28.0599 8.08838 28.2841 7.97995 28.4312 7.79358C29.3429 6.64729 29.4897 5.06743 28.8048 3.7718C27.6764 1.51462 24.6428 0 21.2502 0C18.5976 0 13.6735 0.610242 10.4201 4.69087C8.86377 6.55598 8.05646 8.93634 8.15588 11.3669C8.2091 12.637 7.7494 13.875 6.88089 14.8005C6.06867 15.668 4.93828 16.1647 3.75202 16.1754H3.66409C2.75538 16.2025 1.85334 16.0108 1.03351 15.6165C0.665251 15.4505 0.232495 15.615 0.066303 15.9841C0.00773333 16.1076 -0.0126928 16.246 0.00766013 16.3812C0.00158352 16.4151 -0.000905693 16.4497 0.000338913 16.4841C-0.000905693 18.6464 0.961248 20.696 2.6236 22.072C4.37044 23.502 6.66411 24.0714 8.87394 23.6233C8.96919 23.6013 9.06444 23.5866 9.16701 23.5718C7.57113 22.3211 6.62552 20.4126 6.59507 18.381C6.59507 17.9749 6.92313 17.6457 7.32785 17.6457C7.73256 17.6457 8.06063 17.9749 8.06063 18.381C8.06063 21.7778 11.2994 23.4027 12.8601 24.1821C12.8674 24.1894 12.8748 24.1967 12.8821 24.1967C13.9579 24.7501 15.1541 25.0255 16.3627 24.9981C17.571 25.0235 18.7668 24.7481 19.8432 24.1967C20.7247 23.7295 21.7118 23.499 22.7083 23.5277C23.7072 23.4992 24.6965 23.7296 25.5807 24.1967C26.6568 24.7491 27.8529 25.0245 29.0613 24.9981C30.2697 25.0245 31.4657 24.7491 32.5419 24.1967C34.3536 23.3046 36.4749 23.3046 38.2866 24.1967C39.3627 24.7491 40.5588 25.0245 41.7672 24.9981C41.963 24.9974 42.1504 24.9179 42.2874 24.7775C42.4265 24.64 42.5033 24.4514 42.4999 24.2555C42.4779 20.9545 40.9758 14.7049 35.4142 14.7049ZM16.8537 2.20575C17.2584 2.20575 17.5865 2.53493 17.5865 2.94102C17.5865 3.34712 17.2584 3.6763 16.8537 3.6763C16.449 3.6763 16.1209 3.34712 16.1209 2.94102C16.1221 2.53544 16.4495 2.20692 16.8537 2.20575ZM14.355 4.9482C13.7382 5.39683 13.1838 5.92597 12.7064 6.5216C11.9426 7.43546 11.4209 8.52797 11.1896 9.69784C11.1243 10.0439 10.8225 10.2942 10.4715 10.2934C10.4248 10.2921 10.3782 10.2872 10.3323 10.2787C9.93376 10.2034 9.67137 9.81839 9.74605 9.41847C10.0271 8.01499 10.6516 6.70364 11.5632 5.60252C12.1224 4.90545 12.7704 4.285 13.4904 3.75703C13.8186 3.51806 14.2778 3.59138 14.516 3.9207C14.7535 4.24929 14.6815 4.70865 14.355 4.9482Z" fill="#D40E14"/>
<path d="M2.19836 14.7053C2.60306 14.7053 2.93114 14.3761 2.93114 13.97C2.93114 13.5639 2.60306 13.2347 2.19836 13.2347C1.79365 13.2347 1.46558 13.5639 1.46558 13.97C1.46558 14.3761 1.79365 14.7053 2.19836 14.7053Z" fill="#D40E14"/>
<path d="M27.8448 11.0287C28.2495 11.0287 28.5776 10.6995 28.5776 10.2934C28.5776 9.8873 28.2495 9.55811 27.8448 9.55811C27.4401 9.55811 27.1121 9.8873 27.1121 10.2934C27.1121 10.6995 27.4401 11.0287 27.8448 11.0287Z" fill="#D40E14"/>
<path d="M30.7765 13.9698C31.1812 13.9698 31.5093 13.6406 31.5093 13.2345C31.5093 12.8285 31.1812 12.4993 30.7765 12.4993C30.3718 12.4993 30.0437 12.8285 30.0437 13.2345C30.0437 13.6406 30.3718 13.9698 30.7765 13.9698Z" fill="#D40E14"/>
</svg>
