<svg width="24" height="28" viewBox="0 0 24 28" fill="none" xmlns="http://www.w3.org/2000/svg">
<path d="M4.2417 23.8582H4.4167L0.741699 27.7082H3.25003L4.2417 26.6582H19.5834L20.575 27.7082H23.0834L19.4084 23.8582H19.5834C21.3917 23.8582 22.85 22.3998 22.85 20.5915V3.55817C22.85 1.74984 21.3917 0.291504 19.5834 0.291504H4.2417C2.4917 0.291504 0.975033 1.74984 0.975033 3.55817V20.6498C0.975033 22.3998 2.4917 23.8582 4.2417 23.8582ZM6.05003 24.8498L6.98337 23.9165H17.0167L17.95 24.8498H6.05003ZM5.6417 20.1832V18.3748H7.62503V20.1832H5.6417ZM18.3584 20.1832H16.375V18.3748H18.3584V20.1832ZM20.6917 7.58317V15.3998H13.6917V7.58317H20.6917ZM8.32503 3.6165H15.675V5.42484H8.32503V3.6165ZM3.30837 7.58317H10.25V15.3998H3.30837V7.58317Z" fill="#D40E14"/>
<path d="M4.2417 23.8582H4.4167L0.741699 27.7082H3.25003L4.2417 26.6582H19.5834L20.575 27.7082H23.0834L19.4084 23.8582H19.5834C21.3917 23.8582 22.85 22.3998 22.85 20.5915V3.55817C22.85 1.74984 21.3917 0.291504 19.5834 0.291504H4.2417C2.4917 0.291504 0.975033 1.74984 0.975033 3.55817V20.6498C0.975033 22.3998 2.4917 23.8582 4.2417 23.8582ZM6.05003 24.8498L6.98337 23.9165H17.0167L17.95 24.8498H6.05003ZM5.6417 20.1832V18.3748H7.62503V20.1832H5.6417ZM18.3584 20.1832H16.375V18.3748H18.3584V20.1832ZM20.6917 7.58317V15.3998H13.6917V7.58317H20.6917ZM8.32503 3.6165H15.675V5.42484H8.32503V3.6165ZM3.30837 7.58317H10.25V15.3998H3.30837V7.58317Z" fill="#D40E14"/>
</svg>
