<svg width="29" height="33" viewBox="0 0 29 33" fill="none" xmlns="http://www.w3.org/2000/svg">
<path d="M19.2712 24.1506V25.2012C19.2712 26.1938 18.4685 27.0059 17.4875 27.0059H3.69498C2.7139 27.0059 1.9112 26.1938 1.9112 25.2012V3.73828C1.9112 2.7457 2.7139 1.93359 3.69498 1.93359H17.4875C18.4685 1.93359 19.2712 2.7457 19.2712 3.73828V4.82109C19.5643 4.79531 19.8637 4.77598 20.1631 4.77598C20.5008 4.77598 20.8448 4.79531 21.1824 4.82754V3.73828C21.1824 1.67578 19.5261 0 17.4875 0H3.69498C1.65637 0 0 1.67578 0 3.73828V29.2617C0 31.3242 1.65637 33 3.69498 33H17.4875C19.5261 33 21.1824 31.3242 21.1824 29.2617V24.1377C20.8448 24.1764 20.5008 24.1957 20.1631 24.1957C19.8573 24.1957 19.5643 24.1764 19.2712 24.1506ZM12.066 31.0664H9.11004C8.52394 31.0535 8.06525 30.5637 8.07799 29.9707C8.09073 29.4035 8.54305 28.9395 9.11004 28.9266H12.0724C12.6585 28.9137 13.1427 29.3777 13.1554 29.9707C13.1681 30.5637 12.7095 31.0535 12.1234 31.0664C12.1042 31.0664 12.0851 31.0664 12.066 31.0664Z" fill="#D40E14"/>
<path d="M20.1631 5.74927C15.3915 5.74927 11.5245 9.66157 11.5245 14.4891C11.5245 19.3167 15.3915 23.229 20.1631 23.229C24.9348 23.229 28.7954 19.3102 28.7954 14.4891C28.7954 9.66157 24.9284 5.74927 20.1631 5.74927ZM25.0686 13.2645L19.9593 18.4336C19.3477 19.0524 18.3603 19.0524 17.755 18.4336L14.9392 15.5848C14.3404 14.9596 14.3531 13.9606 14.9711 13.3547C15.5763 12.7553 16.5446 12.7553 17.1498 13.3547L18.8572 15.0821L22.8579 11.028C23.4695 10.4092 24.457 10.4092 25.0686 11.028C25.6738 11.6467 25.6738 12.6458 25.0686 13.2645Z" fill="#D40E14"/>
</svg>
