<svg width="90" height="71" viewBox="0 0 90 71" fill="none" xmlns="http://www.w3.org/2000/svg">
<path d="M89.1758 6.95239L89.1747 6.9578C88.9535 8.0625 88.6222 9.5039 88.1797 11.2844L88.1796 11.2844L88.1771 11.2955L76.4671 63.4885L76.4646 63.4995L76.4626 63.5105C76.2721 64.5832 75.8508 65.6016 75.2278 66.4952C74.6069 67.386 73.8003 68.1317 72.8637 68.681C71.0835 69.6196 67.9062 70.124 63.2369 70.124C61.0212 70.124 59.1651 70.0131 57.6634 69.7947C56.1557 69.5754 55.0356 69.2519 54.2722 68.8448C52.6859 67.9989 52.0279 67.0209 52.0279 65.94V65.9389C52.0247 64.4564 52.2969 62.9861 52.8304 61.6029L52.8316 61.6C53.4367 60.0012 53.9443 58.3672 54.3517 56.7069L70.4033 5.87506C70.4037 5.87378 70.4041 5.87249 70.4046 5.87121C71.273 3.26725 72.473 1.83618 73.9162 1.34666C76.6504 0.679242 79.4658 0.404076 82.2777 0.529475L82.2888 0.529971H82.2999C83.8436 0.529971 85.1064 0.626704 86.0965 0.814018C87.095 1.00291 87.7718 1.27596 88.183 1.59571L88.1941 1.60434L88.2057 1.61233C88.6008 1.88538 88.9246 2.2493 89.1498 2.6735C89.3742 3.09613 89.4942 3.56628 89.4999 4.0447C89.4868 5.02218 89.3783 5.99603 89.1758 6.95239ZM37.6518 6.9524L37.6518 6.9524L37.6507 6.9578C37.4295 8.0625 37.0982 9.5039 36.6557 11.2844L36.6556 11.2844L36.6531 11.2955L24.9431 63.4885L24.9406 63.4995L24.9386 63.5106C24.7481 64.5832 24.3268 65.6016 23.7038 66.4952C23.0829 67.386 22.2763 68.1317 21.3397 68.681C19.5595 69.6196 16.3822 70.124 11.7129 70.124C9.4972 70.124 7.64106 70.0131 6.1394 69.7947C4.63168 69.5754 3.51155 69.2519 2.74821 68.8448C1.16192 67.9989 0.503935 67.0209 0.503936 65.94L0.503934 65.9389C0.500746 64.4564 0.772862 62.9861 1.30645 61.6029L1.30756 61.6C1.91272 60.0012 2.42035 58.3671 2.82767 56.7069L18.8755 5.87238C19.744 3.2683 20.944 1.83717 22.3872 1.34766C25.1244 0.679398 27.9427 0.404235 30.7575 0.530476L30.7687 0.530979H30.7799C32.3236 0.530979 33.5864 0.627703 34.5765 0.81501C35.575 1.0039 36.2518 1.27694 36.663 1.59669L36.6738 1.6051L36.6851 1.61291C37.0795 1.88625 37.4025 2.25022 37.6271 2.67424C37.8509 3.09665 37.9705 3.56639 37.9759 4.04432C37.9629 5.02192 37.8543 5.99591 37.6518 6.9524Z" fill="white" stroke="white"/>
</svg>
