<svg width="33" height="33" viewBox="0 0 33 33" fill="none" xmlns="http://www.w3.org/2000/svg">
<path d="M29.7686 26.3131C31.8661 23.4895 32.9998 20.0818 32.9998 16.4999C32.9998 12.0927 31.2835 7.94917 28.1671 4.83268C25.0506 1.71632 20.9071 0 16.4998 0C13.5987 0 10.7452 0.763831 8.2478 2.2088L9.21608 3.88245C11.4197 2.60751 13.9383 1.93359 16.4998 1.93359C20.3907 1.93359 24.0486 3.44875 26.7998 6.19998C29.551 8.95122 31.0662 12.6091 31.0662 16.4999C31.0662 19.6429 30.0771 22.6335 28.247 25.1174L28.0253 22.5837L26.099 22.7523L26.6046 28.5309L32.3833 28.0253L32.2147 26.099L29.7686 26.3131Z" fill="#D40E14"/>
<path d="M16.4999 31.0664C12.6091 31.0664 8.95122 29.5512 6.19998 26.8C3.44875 24.0487 1.93359 20.3909 1.93359 16.5C1.93359 13.3571 2.92268 10.3664 4.75282 7.88261L4.97447 10.4163L6.90078 10.2477L6.39514 4.46906L0.616492 4.97462L0.785036 6.90093L3.23115 6.68688C1.13366 9.5105 0 12.9181 0 16.5C0 20.9073 1.71632 25.0508 4.83268 28.1673C7.94917 31.2836 12.0927 33 16.4999 33C19.401 33 22.2546 32.2361 24.752 30.7912L23.7837 29.1175C21.5801 30.3925 19.0614 31.0664 16.4999 31.0664Z" fill="#D40E14"/>
<path d="M21.6803 18.9791C21.1737 18.5139 20.4141 18.2692 19.5982 18.3075C18.8032 18.3449 18.0947 18.6464 17.6544 19.1346C17.1635 19.6789 16.9494 20.161 16.7226 20.6715C16.2685 21.6934 15.7991 22.7501 13.5397 23.2791C12.9815 23.4098 12.4874 23.8311 12.0711 24.5314C11.9806 24.6836 11.9044 24.8321 11.8407 24.9689C13.2234 25.7326 14.8117 26.168 16.4999 26.168C20.6994 26.168 24.2815 23.4763 25.6131 19.7277C25.5851 19.7346 25.5572 19.7414 25.5289 19.748C23.9573 20.1138 22.6264 19.8479 21.6803 18.9791Z" fill="#D40E14"/>
<path d="M6.83203 16.5001C6.83203 17.2172 6.91118 17.916 7.06 18.5891C7.66567 17.8106 8.5176 16.9746 9.63419 16.4591C10.1662 16.2135 10.6115 15.5383 10.7422 14.7789C10.8565 14.115 10.7104 13.5093 10.3513 13.1588C9.62916 12.4538 9.04115 11.6002 8.62324 10.9001C7.4959 12.4812 6.83203 14.4146 6.83203 16.5001Z" fill="#D40E14"/>
<path d="M17.7053 11.2046C18.4871 11.4411 19.5096 11.207 20.5851 10.5457C21.3937 10.0484 22.4067 9.84894 23.6022 9.94788C21.8345 8.0333 19.305 6.83203 16.4999 6.83203C15.7649 6.83203 15.049 6.91492 14.3605 7.07102C14.9572 7.68983 15.6262 8.53945 16.1178 9.60608C16.5152 10.4683 17.0493 11.0061 17.7053 11.2046Z" fill="#D40E14"/>
<path d="M12.2996 7.79309C11.4495 8.20488 10.6685 8.73765 9.97892 9.36877C10.3172 10.0023 10.926 11.0175 11.7019 11.7751C12.5285 12.5821 12.8732 13.7964 12.6477 15.1068C12.4065 16.5076 11.5623 17.6985 10.4445 18.2145C9.10043 18.835 8.23302 20.2087 7.87756 20.8702C8.4608 22.0162 9.26601 23.0309 10.236 23.8579C10.7322 22.9144 11.6263 21.741 13.0989 21.3963C14.4222 21.0864 14.5783 20.7351 14.9555 19.8863C15.2076 19.3187 15.5214 18.6123 16.2185 17.8394C17.0018 16.9708 18.2006 16.4374 19.5073 16.3759C20.8349 16.3128 22.1042 16.743 22.9882 17.5548C23.4487 17.9778 24.1559 18.082 25.0905 17.8646C25.4933 17.7708 25.8545 17.6343 26.1138 17.5221C26.1493 17.1861 26.1678 16.8452 26.1678 16.5C26.1678 14.9721 25.811 13.5262 25.1772 12.2403C24.3054 11.9457 22.6071 11.5721 21.5978 12.1928C20.4789 12.8809 19.3778 13.2307 18.3547 13.2307C17.9372 13.2308 17.5329 13.1726 17.1454 13.0553C16.3147 12.804 15.1575 12.142 14.3617 10.4155C13.7713 9.13455 12.8315 8.23298 12.2996 7.79309Z" fill="#D40E14"/>
</svg>
