<svg width="18" height="16" viewBox="0 0 18 16" fill="none" xmlns="http://www.w3.org/2000/svg">
<path d="M11.3561 2.80446H3.5168L4.31181 1.62306C4.41785 1.46678 4.47931 1.28455 4.48958 1.09597C4.49985 0.907387 4.45855 0.719569 4.3701 0.552694C4.28166 0.385818 4.14943 0.246192 3.9876 0.148815C3.82578 0.0514386 3.64048 -8.85782e-06 3.45162 2.75654e-09H3.44945C3.27957 -1.18485e-05 3.11186 0.0381905 2.95875 0.111778C2.80563 0.185366 2.67103 0.292453 2.56491 0.425111L0.118893 3.48309C0.0419298 3.5793 0 3.69883 0 3.82203C0 3.94524 0.0419298 4.06477 0.118893 4.16098L2.56518 7.21875C2.67129 7.35142 2.80589 7.45852 2.95901 7.53212C3.11212 7.60572 3.27984 7.64394 3.44972 7.64393H3.45162C3.64047 7.64393 3.82576 7.59248 3.98757 7.49511C4.14938 7.39774 4.28161 7.25812 4.37005 7.09125C4.45849 6.92439 4.4998 6.73658 4.48954 6.54801C4.47928 6.35944 4.41783 6.17722 4.31181 6.02094L3.51659 4.83913H11.3561C12.5663 4.83913 13.7269 5.31989 14.5827 6.17563C15.4384 7.03138 15.9192 8.19202 15.9192 9.40223C15.9192 10.6124 15.4384 11.7731 14.5827 12.6288C13.7269 13.4846 12.5663 13.9653 11.3561 13.9653H9.13725C8.86743 13.9653 8.60867 14.0725 8.41788 14.2633C8.22709 14.4541 8.11991 14.7128 8.11991 14.9827C8.11991 15.2525 8.22709 15.5112 8.41788 15.702C8.60867 15.8928 8.86743 16 9.13725 16H11.3561C13.1059 16 14.7841 15.3049 16.0214 14.0676C17.2587 12.8302 17.9538 11.1521 17.9538 9.40223C17.9538 7.65239 17.2587 5.97422 16.0214 4.7369C14.7841 3.49958 13.1059 2.80446 11.3561 2.80446Z" fill="#092A5E"/>
</svg>
