<svg width="8" height="35" viewBox="0 0 8 35" fill="none" xmlns="http://www.w3.org/2000/svg">
<path d="M4.03735 15.3906C6.15157 15.3906 7.86548 13.6767 7.86548 11.5625C7.86548 9.44829 6.15157 7.73438 4.03735 7.73438C1.92314 7.73438 0.209229 9.44829 0.209229 11.5625C0.209229 13.6767 1.92314 15.3906 4.03735 15.3906Z" fill="#D40E14"/>
<path d="M6.61548 6.25V6.67188C6.61548 6.90234 6.37618 7.05016 6.16712 6.9532C4.82509 6.33094 3.26384 6.32367 1.90735 6.9532C1.69845 7.05016 1.45923 6.90219 1.45923 6.67188V6.25C1.45923 5.21445 2.29868 4.375 3.33423 4.375H4.74048C5.77603 4.375 6.61548 5.21445 6.61548 6.25Z" fill="#D40E14"/>
<path d="M4.66235 0.646249V2.65625C4.66235 2.91516 4.45251 3.125 4.1936 3.125H3.8811C3.6222 3.125 3.41235 2.91516 3.41235 2.65625V0.624999C3.41235 0.266015 3.71462 -0.0220322 4.07868 0.00132716C4.41095 0.0226553 4.66235 0.31328 4.66235 0.646249Z" fill="#D40E14"/>
<path d="M7.31728 18.8691C7.29595 19.2014 7.00532 19.4528 6.67235 19.4528H1.40235C1.06938 19.4528 0.778759 19.2014 0.757431 18.8691C0.734071 18.5051 1.02212 18.2028 1.3811 18.2028H1.55923L1.64681 16.5191C1.65813 16.3019 1.88142 16.1646 2.08212 16.2486C3.31868 16.7665 4.73399 16.7758 5.99274 16.2486C6.19345 16.1646 6.41673 16.3019 6.42806 16.5191L6.51548 18.2028H6.69361C7.05259 18.2028 7.34064 18.5051 7.31728 18.8691Z" fill="#D40E14"/>
<path d="M7.06128 35H1.01347C0.834484 35 0.692061 34.85 0.701358 34.6713L1.41331 20.9994C1.42198 20.8334 1.55909 20.7031 1.72542 20.7031H6.34933C6.51558 20.7031 6.65277 20.8334 6.66144 20.9994L7.37339 34.6713C7.38269 34.85 7.24027 35 7.06128 35Z" fill="#D40E14"/>
</svg>
