<svg width="33" height="33" viewBox="0 0 33 33" fill="none" xmlns="http://www.w3.org/2000/svg">
<path d="M16.4967 25.3596L15.825 27.9781H17.1685L16.4967 25.3596Z" fill="#D40E14"/>
<path d="M10.0161 25.3596L9.34436 27.9781H10.6879L10.0161 25.3596Z" fill="#D40E14"/>
<path d="M22.9779 25.3596L22.3062 27.9781H23.6497L22.9779 25.3596Z" fill="#D40E14"/>
<path d="M32.9941 32.2826C32.9936 32.4727 32.9314 32.6548 32.8209 32.7893C32.7105 32.9237 32.5609 32.9994 32.4048 33H23.5655V29.413H24.4494C24.542 29.4134 24.6333 29.387 24.7158 29.3361C24.7984 29.2853 24.8699 29.2113 24.9245 29.1204C24.9791 29.0294 25.0153 28.924 25.03 28.8128C25.0447 28.7016 25.0376 28.5877 25.0092 28.4804L23.536 22.7413C23.4976 22.5974 23.4227 22.472 23.3222 22.3831C23.2216 22.2942 23.1005 22.2463 22.9762 22.2463C22.8519 22.2463 22.7308 22.2942 22.6303 22.3831C22.5297 22.472 22.4548 22.5974 22.4164 22.7413L20.9432 28.4804C20.9164 28.5876 20.9105 28.7009 20.9259 28.8114C20.9413 28.9218 20.9775 29.0264 21.0318 29.1169C21.0861 29.2073 21.157 29.2812 21.2387 29.3326C21.3205 29.384 21.411 29.4115 21.503 29.413H22.3869V33H17.0834V29.413H17.9673C18.0598 29.4134 18.1511 29.387 18.2337 29.3361C18.3163 29.2853 18.3878 29.2113 18.4424 29.1204C18.497 29.0294 18.5331 28.924 18.5479 28.8128C18.5626 28.7016 18.5555 28.5877 18.5271 28.4804L17.0539 22.7413C17.0155 22.5974 16.9406 22.472 16.84 22.3831C16.7395 22.2942 16.6184 22.2463 16.4941 22.2463C16.3698 22.2463 16.2487 22.2942 16.1481 22.3831C16.0476 22.472 15.9727 22.5974 15.9343 22.7413L14.4669 28.4804C14.439 28.5877 14.4322 28.7014 14.4471 28.8124C14.462 28.9234 14.4982 29.0286 14.5527 29.1194C14.6072 29.2103 14.6786 29.2842 14.7609 29.3352C14.8433 29.3862 14.9344 29.4129 15.0268 29.413H15.9048V33H10.6071V29.413H11.4911C11.5832 29.412 11.6739 29.3848 11.7559 29.3335C11.8379 29.2823 11.9089 29.2084 11.9633 29.1178C12.0177 29.0272 12.0539 28.9224 12.0691 28.8118C12.0843 28.7011 12.0781 28.5876 12.0509 28.4804L10.5777 22.7413C10.5392 22.5974 10.4643 22.472 10.3638 22.3831C10.2632 22.2942 10.1421 22.2463 10.0178 22.2463C9.89356 22.2463 9.77246 22.2942 9.6719 22.3831C9.57134 22.472 9.49647 22.5974 9.45802 22.7413L7.98481 28.4804C7.95688 28.5877 7.95009 28.7014 7.96499 28.8124C7.97989 28.9234 8.01607 29.0286 8.07059 29.1194C8.12511 29.2103 8.19644 29.2842 8.2788 29.3352C8.36116 29.3862 8.45223 29.4129 8.54463 29.413H9.42856V33H0.589286C0.433139 32.9994 0.283517 32.9237 0.173104 32.7893C0.0626904 32.6549 0.000458601 32.4727 1.53976e-06 32.2826V29.4274C-0.000212937 29.3104 0.0219817 29.1949 0.0648229 29.0902L6.28767 13.9317C6.49526 13.4298 6.81906 13.0128 7.2191 12.7323C7.61915 12.4518 8.07791 12.3201 8.53874 12.3535L4.50803 22.1674C4.44172 22.3371 4.43263 22.5317 4.48271 22.7094C4.5328 22.8872 4.63808 23.034 4.77599 23.1184C4.91391 23.2028 5.0735 23.2181 5.22057 23.1611C5.36764 23.104 5.49051 22.9791 5.56285 22.813L9.1457 14.0824C10.2005 14.7998 11.7268 15.8472 12.7934 16.5646C12.9122 16.6411 13.0486 16.6671 13.181 16.6385C13.3134 16.6099 13.4341 16.5283 13.5241 16.4067L16.1582 12.6978L19.4865 13.5167C19.5624 13.5354 19.6406 13.5357 19.7166 13.5175C19.7926 13.4993 19.8649 13.463 19.9293 13.4108C19.9938 13.3585 20.0491 13.2913 20.0922 13.2129C20.1353 13.1346 20.1653 13.0467 20.1804 12.9542C20.2108 12.7681 20.1793 12.5749 20.0929 12.417C20.0065 12.259 19.8721 12.1493 19.7193 12.1119L16.0521 11.2128C15.9514 11.1858 15.8465 11.1929 15.7488 11.2334C15.6511 11.2739 15.5645 11.3461 15.4982 11.4424L12.9466 15.0222C12.9466 15.0222 10.1887 13.157 9.67606 12.7983L14.2312 1.70739C14.4412 1.19448 14.7644 0.762992 15.1647 0.461384C15.5649 0.159777 16.0263 0 16.497 0C16.9678 0 17.4291 0.159777 17.8294 0.461384C18.2296 0.762992 18.5529 1.19448 18.7628 1.70739C18.8807 2.1163 26.2526 19.9435 26.2526 19.9435C26.3236 20.1108 26.4458 20.2374 26.5928 20.296C26.7398 20.3546 26.8998 20.3405 27.0383 20.2566C27.1768 20.1728 27.2827 20.026 27.3331 19.8479C27.3834 19.6699 27.3742 19.4749 27.3075 19.305L25.9875 16.0983L25.628 15.223C26.1382 15.2685 26.6299 15.475 27.0546 15.8222C27.4793 16.1694 27.8223 16.6453 28.05 17.203L32.9351 29.0974C33.0648 29.1261 32.9528 32.132 32.9941 32.2826Z" fill="#D40E14"/>
</svg>
