<svg width="33" height="32" viewBox="0 0 33 32" fill="none" xmlns="http://www.w3.org/2000/svg">
<path d="M15.0761 26.64L11.2361 21.28C10.8761 20.76 11.2361 20 11.8761 20H13.0761C13.5161 20 13.8761 19.64 13.8761 19.2V18.92C13.8761 18.76 13.8361 18.6 13.7161 18.44L9.99607 13.24C9.63607 12.72 9.99607 11.96 10.6361 11.96H11.7561C12.1961 11.96 12.5561 11.6 12.5561 11.16V10.88C12.5561 10.72 12.5161 10.56 12.3961 10.4L8.55607 5.03996C8.23607 4.59996 7.55607 4.59996 7.23607 5.03996L3.35607 10.44C3.27607 10.56 3.19607 10.72 3.19607 10.92V11.2C3.19607 11.64 3.55607 12 3.99607 12H5.07607C5.71607 12 6.11607 12.72 5.71607 13.28L1.99607 18.48C1.91607 18.6 1.83607 18.76 1.83607 18.96V19.2C1.83607 19.64 2.19607 20 2.63607 20H3.83607C4.47607 20 4.87607 20.72 4.47607 21.28L0.636074 26.64C0.516074 26.8 0.476074 26.96 0.476074 27.16V27.2C0.476074 27.64 0.836074 28 1.27607 28H5.67607C6.11607 28 6.47607 28.36 6.47607 28.8V31.6C6.47607 31.84 6.63607 32 6.87607 32H8.75607C8.99607 32 9.15607 31.84 9.15607 31.6V28.8C9.15607 28.36 9.51607 28 9.95607 28H14.3561C14.7961 28 15.1561 27.64 15.1561 27.2V27.12C15.2361 26.96 15.1561 26.76 15.0761 26.64Z" fill="#D40E14"/>
<path d="M32.556 22.6796C32.556 21.1596 31.916 19.8396 30.916 18.8396C30.676 18.5996 30.516 18.2396 30.556 17.9196C30.556 17.7196 30.556 17.5196 30.556 17.3196C30.556 13.6396 29.076 10.6396 27.236 10.6396C25.396 10.6396 23.916 13.6396 23.916 17.3196V17.9196C23.916 18.2796 23.796 18.5996 23.556 18.8396C22.556 19.7996 21.916 21.1596 21.916 22.6796C21.916 24.8796 23.276 26.7996 25.196 27.5996C25.636 27.7996 25.916 28.2396 25.916 28.6796V31.5996C25.916 31.8396 26.076 31.9996 26.316 31.9996H28.156C28.396 31.9996 28.556 31.8396 28.556 31.5996V28.6796C28.556 28.1996 28.836 27.7596 29.276 27.5996C31.196 26.7596 32.556 24.8796 32.556 22.6796Z" fill="#D40E14"/>
<path d="M25.676 9C25.836 8.92 25.956 8.72 25.876 8.52C24.716 3.52 21.876 0 18.556 0C15.836 0 13.396 2.4 11.956 6.08C11.916 6.2 11.916 6.36 11.996 6.48L14.476 9.96C14.516 10.04 14.556 10.12 14.556 10.2V13.6C14.556 13.84 14.396 14 14.156 14H13.796C13.476 14 13.276 14.36 13.476 14.64L15.836 17.92C15.876 18 15.916 18.08 15.916 18.16V21.6C15.916 21.84 15.756 22 15.516 22H15.036C14.716 22 14.516 22.36 14.716 22.64L17.196 26.12C17.236 26.2 17.276 26.28 17.276 26.36V31.6C17.276 31.84 17.436 32 17.676 32H19.556C19.796 32 19.956 31.84 19.956 31.6V28.08C19.956 27.92 20.076 27.76 20.236 27.72C20.516 27.6 20.796 27.48 21.076 27.32C21.276 27.2 21.356 26.96 21.236 26.76C20.436 25.6 19.996 24.2 19.996 22.68C19.996 20.72 20.756 18.96 21.996 17.64C21.996 17.52 21.996 17.44 21.996 17.32C21.876 13.2 23.436 10 25.676 9Z" fill="#D40E14"/>
</svg>
