<svg width="37" height="33" viewBox="0 0 37 33" fill="none" xmlns="http://www.w3.org/2000/svg">
<path d="M18.6685 22.7857V29.0714C18.6685 29.2798 18.7348 29.4797 18.8529 29.627C18.9709 29.7744 19.1311 29.8572 19.298 29.8572H19.9276V22H19.298C19.1311 22 18.9709 22.0828 18.8529 22.2301C18.7348 22.3775 18.6685 22.5773 18.6685 22.7857Z" fill="#D40E14"/>
<path d="M28.7419 22V29.8572H29.3715C29.5385 29.8572 29.6986 29.7744 29.8167 29.627C29.9348 29.4797 30.0011 29.2798 30.0011 29.0714V22.7857C30.0011 22.5773 29.9348 22.3775 29.8167 22.2301C29.6986 22.0828 29.5385 22 29.3715 22H28.7419Z" fill="#D40E14"/>
<path d="M21.1869 22H27.4828V29.8572H21.1869V22Z" fill="#D40E14"/>
<path d="M17.7575 1.65392C17.8449 1.59943 17.9413 1.57106 18.039 1.57106C18.1366 1.57106 18.233 1.59943 18.3204 1.65392L35.386 12.3027L36.0785 10.5742L25.0456 3.92857H24.9644V3.87985L18.9619 0.265562C18.6734 0.0952004 18.3582 0.00683594 18.039 0.00683594C17.7198 0.00683594 17.4045 0.0952004 17.116 0.265562L0 10.5757L0.692547 12.3043L17.7575 1.65392Z" fill="#D40E14"/>
<path d="M26.2236 19.6424C26.2236 19.434 26.1572 19.2342 26.0392 19.0868C25.9211 18.9395 25.761 18.8567 25.594 18.8567H23.0756C22.9087 18.8567 22.7485 18.9395 22.6304 19.0868C22.5124 19.2342 22.446 19.434 22.446 19.6424V20.4281H26.2236V19.6424Z" fill="#D40E14"/>
<path d="M31.2603 0H26.2236V2.89379L31.2603 5.92823V0Z" fill="#D40E14"/>
<path d="M14.891 32.9995V17.2852H7.33594V32.9995H14.891ZM12.3726 25.1423H13.6318V26.7137H12.3726V25.1423Z" fill="#D40E14"/>
<path fill-rule="evenodd" clip-rule="evenodd" d="M32.5194 12.2713V33.0001H16.1501V16.5001C16.1501 16.2917 16.0838 16.0918 15.9657 15.9445C15.8476 15.7971 15.6875 15.7143 15.5205 15.7143H6.70629C6.53931 15.7143 6.37917 15.7971 6.2611 15.9445C6.14303 16.0918 6.0767 16.2917 6.0767 16.5001V33.0001H3.55835V12.2713L18.0389 3.2356L32.5194 12.2713ZM31.2602 29.0715V22.7858C31.2602 22.1606 31.0612 21.5611 30.707 21.119C30.3528 20.677 29.8724 20.4286 29.3715 20.4286H27.4827V19.6429C27.4827 19.0178 27.2837 18.4182 26.9295 17.9762C26.5753 17.5341 26.0949 17.2858 25.5939 17.2858H23.0756C22.5746 17.2858 22.0942 17.5341 21.74 17.9762C21.3858 18.4182 21.1868 19.0178 21.1868 19.6429V20.4286H19.2981C18.7971 20.4286 18.3167 20.677 17.9625 21.119C17.6083 21.5611 17.4093 22.1606 17.4093 22.7858V29.0715C17.4093 29.6967 17.6083 30.2962 17.9625 30.7383C18.3167 31.1803 18.7971 31.4287 19.2981 31.4287H29.3715C29.8724 31.4287 30.3528 31.1803 30.707 30.7383C31.0612 30.2962 31.2602 29.6967 31.2602 29.0715Z" fill="#D40E14"/>
</svg>
