<svg width="40" height="33" viewBox="0 0 40 33" fill="none" xmlns="http://www.w3.org/2000/svg">
<path d="M2.03611e-05 13.0624V11.1473C0.000127389 8.97551 0.634867 6.85109 1.82625 5.03504C3.01763 3.21899 4.71375 1.79041 6.70621 0.924848C8.69867 0.059282 10.9007 -0.205569 13.0416 0.162838C15.1826 0.531244 17.1693 1.51686 18.7576 2.99858L24.1171 7.99957C24.5347 8.39051 24.8678 8.86283 25.0958 9.38741C25.3239 9.91199 25.442 10.4777 25.4429 11.0497C25.4417 11.5676 25.3204 12.0783 25.0886 12.5415C24.8568 13.0048 24.5207 13.408 24.1068 13.7196L23.622 14.0832C23.2498 13.3942 22.7922 12.7549 22.2598 12.1805L16.6486 6.17103C15.7666 5.22647 14.6207 4.56908 13.36 4.28436C12.0992 3.99965 10.7819 4.10079 9.5794 4.57463C8.37691 5.04847 7.34488 5.87308 6.61754 6.9412C5.8902 8.00933 5.50122 9.27153 5.50118 10.5636V14.4373C5.49501 16.4818 5.92645 18.5039 6.76651 20.368C7.60658 22.2321 8.83584 23.8949 10.3718 25.2449L7.57237 26.9545C7.18874 27.1919 6.8661 27.5159 6.63029 27.9004C4.54095 26.0344 2.87007 23.7477 1.72738 21.1904C0.584678 18.6332 -0.00399075 15.8632 2.03611e-05 13.0624ZM15.1282 10.8414C15.1323 9.70996 15.5166 8.61275 16.2195 7.72597L21.2544 13.1188C22.1757 14.1014 22.829 15.3043 23.1515 16.6119C23.4739 17.9196 23.4548 19.2881 23.0959 20.5862C20.8961 18.7824 18.8264 16.8255 16.9023 14.7301L16.4485 14.2352C15.5983 13.3094 15.127 12.0981 15.1282 10.8414ZM7.56411 29.423C7.56498 29.1638 7.63208 28.9091 7.75904 28.683C7.886 28.457 8.06862 28.2671 8.28958 28.1314L16.3309 23.2156C16.9245 24.23 17.7166 25.1142 18.66 25.8154L11.0202 30.3978C10.4332 30.7498 9.76147 30.9356 9.07693 30.9354C8.6761 30.9341 8.29204 30.7743 8.00861 30.491C7.72518 30.2077 7.56538 29.8237 7.56411 29.423ZM12.062 31.3787L16.8123 28.5294C18.8726 28.9902 21.0094 28.9902 23.0698 28.5294L27.8201 31.3787C25.3308 32.4484 22.6498 33 19.9403 33C17.2309 33 14.5498 32.4484 12.0606 31.3787H12.062ZM30.8065 30.9354C30.1229 30.9351 29.4522 30.7493 28.866 30.3978L20.0737 25.126C18.6642 24.2808 17.5786 22.9878 16.9904 21.4535C16.4022 19.9193 16.3453 18.2322 16.8288 16.6618C20.3655 20.35 24.3464 23.5852 28.6803 26.2932L31.5952 28.1169C31.8173 28.2548 32.0005 28.4472 32.1272 28.6758C32.254 28.9044 32.3201 29.1617 32.3193 29.423C32.3181 29.8237 32.1583 30.2077 31.8748 30.491C31.5914 30.7743 31.2073 30.9341 30.8065 30.9354ZM39.8834 13.0624C39.887 15.8617 39.2989 18.6301 38.1574 21.1863C37.016 23.7424 35.347 26.0286 33.26 27.8949C33.0254 27.5111 32.7048 27.1871 32.3235 26.9483L29.5467 25.2133C31.0721 23.8634 32.2922 22.2042 33.126 20.3461C33.9598 18.488 34.388 16.4737 34.3823 14.4373V10.5636C34.3834 9.32601 34.0273 8.11434 33.3567 7.07398C32.6861 6.03361 31.7295 5.20874 30.6017 4.6983C29.4738 4.18787 28.2226 4.01354 26.9981 4.19624C25.7737 4.37894 24.6279 4.91091 23.6983 5.72833L20.9477 3.16356L21.1245 2.99858C22.7127 1.51641 24.6995 0.530401 26.8407 0.161739C28.9819 -0.206922 31.1842 0.0578259 33.177 0.923446C35.1697 1.78907 36.866 3.21784 38.0575 5.03417C39.2489 6.8505 39.8836 8.97524 39.8834 11.1473V13.0624Z" fill="#D40E14"/>
</svg>
