<svg width="33" height="33" viewBox="0 0 33 33" fill="none" xmlns="http://www.w3.org/2000/svg">
<path d="M32.7912 28.56C33.0125 29.0947 33.04 29.69 32.8688 30.2428L32.7155 30.7748C32.6733 30.9204 32.5785 31.0452 32.4496 31.125C32.3207 31.2048 32.1668 31.2338 32.0176 31.2066C31.4548 31.1669 30.9089 30.9969 30.423 30.7102C29.9371 30.4235 29.5243 30.0278 29.2174 29.5544C28.6756 30.5931 27.8592 31.4631 26.8571 32.0698C25.855 32.6764 24.7056 32.9963 23.5343 32.9947C20.4734 33.0603 17.4302 32.5147 14.5828 31.3898C11.7353 30.2649 9.14078 28.5834 6.95099 26.4436C4.7612 24.3037 3.02013 21.7486 1.82966 18.9277C0.63919 16.1067 0.023236 13.0767 0.0178367 10.0148C-0.0754445 8.75844 0.198571 7.50205 0.806512 6.39866C1.41445 5.29526 2.33009 4.39247 3.4419 3.80022C2.65165 3.28862 2.09677 2.4842 1.89918 1.5637L1.7994 1.05291C1.77165 0.910276 1.79563 0.762421 1.86704 0.635874C1.93845 0.509327 2.05261 0.41237 2.18904 0.3624L2.67784 0.183356C3.10411 -0.000978458 3.57725 -0.0477609 4.03136 0.0495246C4.48547 0.14681 4.89794 0.383319 5.21131 0.726109C5.95978 -0.111546 7.14458 -0.120224 8.16135 0.25149C8.77028 0.441961 8.59413 1.02248 8.50736 1.49056C8.39607 2.12488 8.10352 2.71341 7.66504 3.18506C9.12187 3.4745 10.4337 4.25925 11.3777 5.40607C12.3218 6.55289 12.8399 7.99111 12.8441 9.47657C12.8149 10.3562 12.8878 11.2362 13.0613 12.099C11.9126 13.064 10.5478 13.7373 9.08299 14.0614C8.92479 14.0903 8.78439 14.1805 8.69224 14.3123C8.60009 14.4442 8.56363 14.607 8.59077 14.7656C8.6179 14.9241 8.70644 15.0655 8.83718 15.1592C8.96792 15.2529 9.13032 15.2912 9.28914 15.2659C10.7918 14.9517 12.2061 14.308 13.43 13.3812C13.8671 14.6183 14.5401 15.7589 15.4116 16.7396L12.4205 19.7311C12.3088 19.8463 12.2468 20.0008 12.2481 20.1613C12.2493 20.3217 12.3136 20.4752 12.427 20.5887C12.5405 20.7021 12.694 20.7664 12.8544 20.7676C13.0149 20.7689 13.1693 20.7069 13.2845 20.5952L16.2758 17.6035C17.2562 18.4734 18.3958 19.1451 19.6317 19.5814C18.705 20.8054 18.0614 22.2197 17.747 23.7225C17.7219 23.8812 17.7603 24.0436 17.8539 24.1742C17.9476 24.3049 18.089 24.3933 18.2474 24.4205C18.4059 24.4476 18.5686 24.4111 18.7004 24.3191C18.8322 24.227 18.9224 24.0867 18.9514 23.9286C19.2757 22.4636 19.949 21.0987 20.914 19.9498C21.7761 20.123 22.6554 20.1956 23.5343 20.1662C25.0168 20.1682 26.453 20.683 27.5994 21.6233C28.7457 22.5636 29.5316 23.8714 29.8238 25.3251C30.2867 24.898 30.861 24.6107 31.4803 24.4964L31.9908 24.4031C32.1338 24.3763 32.2816 24.4017 32.4074 24.4746C32.5333 24.5474 32.6289 24.663 32.677 24.8003C32.9937 25.4297 33.0809 26.1498 32.9236 26.8367C32.8026 27.2173 32.5791 27.5573 32.2775 27.8192C32.4966 28.0292 32.6713 28.2812 32.7912 28.56Z" fill="#D40E14"/>
</svg>
