<svg width="29" height="32" viewBox="0 0 29 32" fill="none" xmlns="http://www.w3.org/2000/svg">
<path d="M3.13812 20.6028L0.0995185 26.6396C-0.0465778 26.9296 -0.0308896 27.2742 0.140455 27.5499C0.312289 27.8253 0.614777 27.9931 0.941042 27.9931H5.51194L8.25443 31.626C8.43264 31.8629 8.71233 32 9.00673 32C9.39771 32 9.70583 31.7682 9.84899 31.4833L12.7123 25.7935C8.84102 25.4258 5.42786 23.4755 3.13812 20.6028Z" fill="#A9A9AB"/>
<path d="M27.9552 26.6396L24.9166 20.6028C22.6269 23.4755 19.2137 25.4258 15.3424 25.7935L18.206 31.4833C18.3489 31.7682 18.657 32 19.048 32C19.3424 32 19.6223 31.8629 19.8005 31.626L22.5428 27.9931H27.1137C27.44 27.9931 27.7424 27.8253 27.9143 27.5499C28.0856 27.2742 28.1013 26.9296 27.9552 26.6396Z" fill="#A9A9AB"/>
<path d="M26.0822 11.9452C26.0822 5.3586 20.6745 0 14.0274 0C7.38042 0 1.97266 5.3586 1.97266 11.9452C1.97266 18.5316 7.38042 23.8904 14.0274 23.8904C20.6745 23.8904 26.0822 18.5318 26.0822 11.9452ZM15.4539 16.95C15.4539 17.4661 15.0317 17.8845 14.5108 17.8845C13.9901 17.8845 13.5677 17.4661 13.5677 16.95V9.20786L12.1712 10.6016C11.8043 10.9679 11.2073 10.9701 10.8377 10.6062C10.468 10.2426 10.4658 9.65103 10.8327 9.28477L13.8415 6.28192C14.1107 6.01324 14.5169 5.93196 14.8701 6.07628C15.2233 6.22059 15.4539 6.56178 15.4539 6.94021V16.95Z" fill="#A9A9AB"/>
<rect x="7" y="3" width="13" height="17" fill="#A9A9AB"/>
<path d="M17.6902 16.5C17.6902 16.6067 17.6836 16.72 17.6702 16.84C17.6702 16.9467 17.6569 17.06 17.6302 17.18C17.6169 17.2867 17.5902 17.3867 17.5502 17.48C17.5236 17.5733 17.4902 17.6533 17.4502 17.72C17.3969 17.8267 17.3102 17.9 17.1902 17.94C17.0836 17.98 16.9436 18 16.7702 18H10.4902C10.2102 18 10.0102 17.94 9.89023 17.82C9.7569 17.6867 9.69023 17.4133 9.69023 17C9.69023 16.8667 9.6969 16.7533 9.71023 16.66C9.72357 16.5533 9.75023 16.46 9.79023 16.38C9.83023 16.2867 9.8769 16.2 9.93023 16.12C9.98357 16.04 10.0569 15.9533 10.1502 15.86L11.7102 14.3C12.2036 13.7933 12.6302 13.3467 12.9902 12.96C13.3636 12.5733 13.6769 12.2267 13.9302 11.92C14.1969 11.6 14.4036 11.32 14.5502 11.08C14.7102 10.8267 14.8302 10.5933 14.9102 10.38C15.0036 10.1667 15.0636 9.96 15.0902 9.76C15.1302 9.56 15.1502 9.36 15.1502 9.16C15.1502 8.89333 15.1036 8.65333 15.0102 8.44C14.9302 8.21333 14.8169 8.02667 14.6702 7.88C14.5236 7.73333 14.3436 7.62667 14.1302 7.56C13.9169 7.48 13.6836 7.44 13.4302 7.44C13.1236 7.44 12.8836 7.48 12.7102 7.56C12.5369 7.62667 12.3836 7.7 12.2502 7.78C12.1036 7.86 11.9702 7.96 11.8502 8.08C11.7436 8.2 11.6369 8.30667 11.5302 8.4C11.4502 8.48 11.3636 8.54667 11.2702 8.6C11.1769 8.64 11.0836 8.66 10.9902 8.66C10.8436 8.66 10.7036 8.62 10.5702 8.54C10.4502 8.46 10.3436 8.36 10.2502 8.24C10.1302 8.13333 10.0169 8.02 9.91023 7.9C9.8169 7.76667 9.77023 7.64667 9.77023 7.54C9.77023 7.38 9.8169 7.24 9.91023 7.12C10.0036 6.98667 10.1436 6.82667 10.3302 6.64C10.4502 6.52 10.6102 6.38667 10.8102 6.24C11.0236 6.09333 11.2636 5.96 11.5302 5.84C11.8102 5.72 12.1169 5.62 12.4502 5.54C12.7969 5.44667 13.1769 5.4 13.5902 5.4C14.1236 5.4 14.6236 5.47333 15.0902 5.62C15.5569 5.76667 15.9636 5.99333 16.3102 6.3C16.6702 6.60667 16.9502 6.99333 17.1502 7.46C17.3636 7.91333 17.4702 8.45333 17.4702 9.08C17.4702 9.69333 17.3502 10.2867 17.1102 10.86C16.8702 11.42 16.5636 11.9533 16.1902 12.46C15.8302 12.9667 15.4302 13.4467 14.9902 13.9C14.5636 14.34 14.1569 14.7533 13.7702 15.14L12.9102 15.98H17.0702C17.3102 15.98 17.4636 16 17.5302 16.04C17.5969 16.0933 17.6369 16.1533 17.6502 16.22C17.6769 16.2733 17.6902 16.3667 17.6902 16.5Z" fill="white"/>
</svg>
