<svg width="40" height="33" viewBox="0 0 40 33" fill="none" xmlns="http://www.w3.org/2000/svg">
<path d="M38.028 16.2917C35.9443 18.3006 33.4636 19.6398 30.4786 20.3862C28.9324 20.7594 27.3365 20.979 25.6083 21.0338C24.8559 21.0448 24.153 21.3632 23.5742 21.934L21.168 24.2611C20.738 24.6782 20.2336 24.8978 19.7044 24.8978C19.2662 24.8978 18.8527 24.7551 18.4724 24.4697C17.6124 23.8001 17.1328 22.5487 17.2321 21.2644L17.414 19.1238C16.3473 18.6628 15.3716 18.2896 14.462 17.9822C14.4207 18.2127 14.3132 18.4213 14.1644 18.575L13.7179 19.0031C13.569 19.1458 13.4036 19.2117 13.23 19.2117C12.9737 19.2117 12.7256 19.058 12.5602 18.7726C12.337 18.3554 12.3535 17.8066 12.585 17.4334C11.5762 17.1809 10.6667 17.0492 9.83981 17.0162C9.83154 17.0162 9.83154 17.0162 9.83154 17.0162C9.58348 17.0162 9.33542 17.0601 9.05428 17.1589L2.2491 19.3873C2.04238 19.4531 1.8522 19.4861 1.66202 19.4861C1.08321 19.4861 0.537469 19.2226 0.0909564 18.7506C0.0330751 19.025 0 19.2995 0 19.5959C0 21.4729 1.323 23.0756 3.93593 24.3819C7.57417 26.1931 13.5277 27.2798 19.845 27.2798C26.1623 27.2798 32.1158 26.1931 35.7541 24.3819C38.367 23.0756 39.69 21.4729 39.69 19.5959C39.69 18.3774 39.136 17.2687 38.028 16.2917ZM7.10286 20.3313L6.66461 20.7594C6.51578 20.9021 6.34213 20.979 6.17676 20.979C5.92042 20.979 5.66409 20.8143 5.50699 20.5289C5.23412 20.0349 5.31681 19.3544 5.68063 18.9921L6.12714 18.564C6.49097 18.2018 7.0119 18.3115 7.28477 18.7945C7.54937 19.2885 7.47495 19.9691 7.10286 20.3313ZM10.6667 19.9032L10.2284 20.3313C10.0796 20.474 9.90596 20.5399 9.73232 20.5399C9.48426 20.5399 9.22792 20.3862 9.07082 20.1008C8.79795 19.6068 8.88064 18.9153 9.24446 18.564L9.69097 18.1249C10.0548 17.7737 10.5757 17.8725 10.8486 18.3664C11.1132 18.8494 11.0388 19.5519 10.6667 19.9032ZM12.891 22.7463L12.4527 23.1744C12.3039 23.3171 12.1303 23.3829 11.9649 23.3829C11.7085 23.3829 11.4522 23.2293 11.2951 22.9329C11.0222 22.4499 11.1049 21.7583 11.4688 21.4071L11.9153 20.968C12.2791 20.6167 12.8 20.7155 13.0729 21.2095C13.3375 21.6925 13.2631 22.384 12.891 22.7463Z" fill="#D40E14"/>
<path d="M36.2089 26.5005C32.3722 28.3666 26.2781 29.4753 19.8451 29.4753C13.4037 29.4753 7.30963 28.3666 3.4812 26.4895C4.69671 30.7267 12.4776 32.9989 19.8451 32.9989C27.2042 32.9989 34.9769 30.7376 36.2089 26.5005Z" fill="#D40E14"/>
<path d="M1.85218 17.258L8.64909 15.0297C9.10388 14.876 9.50905 14.8101 9.88114 14.8211C12.2956 14.9089 15.2724 15.7981 19.2 17.6093L18.8775 21.4842C18.8445 21.9233 19.0016 22.3404 19.2827 22.5599C19.415 22.6587 19.5556 22.7026 19.7044 22.7026C19.8698 22.7026 20.0434 22.6368 20.1923 22.4941L22.5902 20.1669C23.4502 19.3217 24.4755 18.8607 25.567 18.8387C26.6088 18.8058 27.5845 18.707 28.5272 18.5533C27.3034 12.5927 27.7995 7.64208 28.4693 4.45873C26.9644 4.12941 25.4016 3.85499 23.8388 3.62447C23.4998 3.56958 23.1773 3.4159 22.9044 3.17441L19.4564 0.177664C19.2 -0.0418772 18.8693 -0.0638321 18.5964 0.144732C18.3318 0.34232 18.1664 0.726518 18.1747 1.14365L18.2905 4.93074C18.2987 5.15028 18.183 5.34787 18.0176 5.40276L11.0388 7.45547C8.9137 7.37863 5.68061 5.75402 2.5633 4.1843L2.22428 4.01964C1.91833 3.85499 1.57105 3.96476 1.33952 4.27212C1.108 4.59045 1.04185 5.05149 1.16588 5.45764L2.8279 10.7815L0.917815 15.6883C0.768977 16.0615 0.802052 16.5335 1.0005 16.8628C1.20722 17.2031 1.53797 17.3568 1.85218 17.258Z" fill="#D40E14"/>
<path d="M30.1726 18.2241C33.4139 17.4118 36.0599 15.8311 38.1519 13.3832C38.6067 12.8453 38.863 12.0879 38.863 11.2866C38.863 10.4743 38.5901 9.6949 38.1271 9.15702C36.2832 7.02746 33.3891 5.73217 30.0981 4.854C29.478 7.73 28.9571 12.4941 30.1726 18.2241ZM31.9917 10.4743C32.124 9.89248 32.587 9.56317 33.0253 9.73881L33.8935 10.0901C34.3235 10.2657 34.5715 10.8804 34.4392 11.4622C34.3317 11.9342 34.001 12.2416 33.6537 12.2416C33.571 12.2416 33.4883 12.2196 33.4056 12.1867L32.5457 11.8354C32.1074 11.6598 31.8594 11.0561 31.9917 10.4743Z" fill="#D40E14"/>
</svg>
