<svg width="33" height="33" viewBox="0 0 33 33" fill="none" xmlns="http://www.w3.org/2000/svg">
<path fill-rule="evenodd" clip-rule="evenodd" d="M0 23.4988V19.2426C0 18.8436 0.207209 18.4721 0.546419 18.2634C0.885628 18.0531 1.30926 18.0347 1.66535 18.2127C2.21484 18.4875 2.86256 18.4875 3.41205 18.2127L5.29074 17.2734C6.48795 16.6748 7.89698 16.6748 9.09419 17.2734L10.9729 18.2127C11.5224 18.4875 12.1701 18.4875 12.7196 18.2127L14.5983 17.2734C15.7955 16.6748 17.2045 16.6748 18.4017 17.2734L20.2804 18.2127C20.8299 18.4875 21.4776 18.4875 22.0271 18.2127L23.9058 17.2734C25.103 16.6748 26.512 16.6748 27.7093 17.2734L29.588 18.2127C30.1374 18.4875 30.7852 18.4875 31.3347 18.2127C31.6907 18.0347 32.1144 18.0531 32.4536 18.2634C32.7928 18.4721 33 18.8436 33 19.2426V23.6278C32.472 23.8319 31.878 24.079 31.3347 24.3522C30.7852 24.627 30.1374 24.627 29.588 24.3522L27.7093 23.4129C26.512 22.8143 25.103 22.8143 23.9058 23.4129L22.0271 24.3522C21.4776 24.627 20.8299 24.627 20.2804 24.3522L18.4017 23.4129C17.2045 22.8143 15.7955 22.8143 14.5983 23.4129L12.7196 24.3522C12.1701 24.627 11.5224 24.627 10.9729 24.3522L9.09419 23.4129C7.89698 22.8143 6.48795 22.8143 5.29074 23.4129L3.41205 24.3522C2.86256 24.627 2.21484 24.627 1.66535 24.3522C1.11893 24.079 0.520326 23.7705 0 23.4988ZM33 26.1142V31.5216C33 31.9575 32.7529 32.355 32.363 32.5499C31.1658 33.1501 29.7568 33.1501 28.5596 32.5499L26.6809 31.6106C26.1314 31.3359 25.4837 31.3359 24.9342 31.6106L23.0555 32.5499C21.8583 33.1501 20.4493 33.1501 19.252 32.5499L17.3734 31.6106C16.8239 31.3359 16.1761 31.3359 15.6267 31.6106L13.748 32.5499C12.5507 33.1501 11.1417 33.1501 9.94451 32.5499L8.06581 31.6106C7.51633 31.3359 6.86861 31.3359 6.31912 31.6106L4.44042 32.5499C3.24321 33.1501 1.83419 33.1501 0.636977 32.5499C0.247116 32.355 0 31.9575 0 31.5216V26.0897C0.214884 26.1987 0.429767 26.3076 0.636977 26.4105C1.83419 27.0106 3.24321 27.0106 4.44042 26.4105L6.31912 25.4711C6.86861 25.1964 7.51633 25.1964 8.06581 25.4711L9.94451 26.4105C11.1417 27.0106 12.5507 27.0106 13.748 26.4105L15.6267 25.4711C16.1761 25.1964 16.8239 25.1964 17.3734 25.4711L19.252 26.4105C20.4493 27.0106 21.8583 27.0106 23.0555 26.4105L24.9342 25.4711C25.4837 25.1964 26.1314 25.1964 26.6809 25.4711L28.5596 26.4105C29.7568 27.0106 31.1658 27.0106 32.363 26.4105C32.5702 26.3076 32.7851 26.2079 33 26.1142Z" fill="#D40E14"/>
<path fill-rule="evenodd" clip-rule="evenodd" d="M13.4302 9.87224C14.0012 9.34731 14.8408 8.90527 16.0441 8.90527C16.6796 8.90527 17.1953 9.42099 17.1953 10.0564C17.1953 10.6919 16.6796 11.2076 16.0441 11.2076C14.8715 11.2076 14.5415 12.2221 14.5415 12.2221C14.3957 12.7117 13.9475 13.0463 13.4379 13.0463H13.4226C12.913 13.0463 12.4648 12.7117 12.319 12.2221C12.319 12.2221 11.989 11.2076 10.8163 11.2076C10.1809 11.2076 9.66516 10.6919 9.66516 10.0564C9.66516 9.42099 10.1809 8.90527 10.8163 8.90527C12.0197 8.90527 12.8593 9.34731 13.4302 9.87224Z" fill="#D40E14"/>
<path fill-rule="evenodd" clip-rule="evenodd" d="M7.2907 6.80254C7.86168 6.27761 8.70126 5.83557 9.90461 5.83557C10.5401 5.83557 11.0558 6.35129 11.0558 6.98672C11.0558 7.62216 10.5401 8.13787 9.90461 8.13787C8.73196 8.13787 8.40196 9.15242 8.40196 9.15242C8.25615 9.64204 7.80796 9.97664 7.29838 9.97664H7.28303C6.77345 9.97664 6.32526 9.64204 6.17945 9.15242C6.17945 9.15242 5.84945 8.13787 4.6768 8.13787C4.04136 8.13787 3.52563 7.62216 3.52563 6.98672C3.52563 6.35129 4.04136 5.83557 4.6768 5.83557C5.88015 5.83557 6.71973 6.27761 7.2907 6.80254Z" fill="#D40E14"/>
<path fill-rule="evenodd" clip-rule="evenodd" d="M14.965 3.11736C15.536 2.59243 16.3756 2.15039 17.5789 2.15039C18.2144 2.15039 18.7301 2.66611 18.7301 3.30154C18.7301 3.93697 18.2144 4.45269 17.5789 4.45269C16.4063 4.45269 16.0763 5.46724 16.0763 5.46724C15.9305 5.95686 15.4823 6.29146 14.9727 6.29146H14.9573C14.4478 6.29146 13.9996 5.95686 13.8538 5.46724C13.8538 5.46724 13.5238 4.45269 12.3511 4.45269C11.7157 4.45269 11.2 3.93697 11.2 3.30154C11.2 2.66611 11.7157 2.15039 12.3511 2.15039C13.5545 2.15039 14.394 2.59243 14.965 3.11736Z" fill="#D40E14"/>
<path d="M28.0116 9.97663C30.7666 9.97663 32.9999 7.74328 32.9999 4.98831C32.9999 2.23334 30.7666 0 28.0116 0C25.2566 0 23.0232 2.23334 23.0232 4.98831C23.0232 7.74328 25.2566 9.97663 28.0116 9.97663Z" fill="#D40E14"/>
</svg>
