<svg width="33" height="33" viewBox="0 0 33 33" fill="none" xmlns="http://www.w3.org/2000/svg">
<path d="M11.6471 33.0001H13.5883V29.1177C13.7487 25.2539 19.2529 25.2569 19.4118 29.1177V33.0001H21.353V24.2648H11.6471V33.0001Z" fill="#D40E14"/>
<path d="M23.2942 33.0001H26.206V28.1471H28.1471V33.0001H33.0001V24.2648H23.2942V33.0001Z" fill="#D40E14"/>
<path d="M0 33.0001H4.85294V28.1471H6.79412V33.0001H9.70588V24.2648H0V33.0001Z" fill="#D40E14"/>
<path d="M29.1176 10.2745L25.2353 14.1568V17.1471H22.3235V11.6471H19.4118C19.4118 10.3817 18.6003 9.30296 17.4706 8.90224V5.5H23.2941V0H15.5294V8.90224C14.3997 9.30289 13.5882 10.3817 13.5882 11.6471H10.6765V17.1471H7.76471V14.1568L3.88235 10.2745L0 14.1568V22.3235H3.88235V20.3824H5.82353V22.3235H7.76471V20.3824H9.70588V22.3235H11.6471V20.3824H13.5882V22.3235H15.5294V20.3824H17.4706V22.3235H19.4118V20.3824H21.3529V22.3235H23.2941V20.3824H25.2353V22.3235H27.1765V20.3824H29.1176V22.3235H33V14.1568L29.1176 10.2745Z" fill="#D40E14"/>
<path d="M16.5 28.1471C15.9648 28.1471 15.5294 28.5825 15.5294 29.1177V33H17.4706V29.1177C17.4706 28.5825 17.0353 28.1471 16.5 28.1471Z" fill="#D40E14"/>
</svg>
