<svg width="29" height="33" fill="none" xmlns="http://www.w3.org/2000/svg"><path d="M19.271 24.15v1.051c0 .993-.803 1.805-1.784 1.805H3.696c-.981 0-1.784-.812-1.784-1.805V3.738c0-.992.803-1.804 1.784-1.804h13.793c.98 0 1.783.812 1.783 1.804v1.083c.293-.026.593-.045.892-.045.338 0 .682.02 1.02.052v-1.09C21.182 1.676 19.525 0 17.487 0H3.695C1.656 0 0 1.676 0 3.738v25.524C0 31.324 1.656 33 3.695 33h13.793c2.038 0 3.694-1.676 3.694-3.738v-5.124a8.998 8.998 0 01-1.91.013zm-7.205 6.916H9.11a1.062 1.062 0 01-1.032-1.095 1.064 1.064 0 011.032-1.044h2.962a1.06 1.06 0 011.083 1.044 1.062 1.062 0 01-1.032 1.095h-.057z" fill="#D40E14"/><path d="M20.163 5.749c-4.771 0-8.639 3.912-8.639 8.74 0 4.827 3.868 8.74 8.64 8.74 4.77 0 8.631-3.919 8.631-8.74 0-4.828-3.867-8.74-8.632-8.74zm4.906 7.515l-5.11 5.17a1.54 1.54 0 01-2.204 0l-2.816-2.85a1.59 1.59 0 01.032-2.23c.605-.599 1.574-.599 2.179 0l1.707 1.728 4-4.054a1.549 1.549 0 012.212 0 1.605 1.605 0 010 2.236z" fill="#D40E14"/></svg>