<svg width="38" height="33" viewBox="0 0 38 33" fill="none" xmlns="http://www.w3.org/2000/svg">
<path d="M4.28915 15.6595L17.9065 4.65889C18.0089 4.5998 18.0771 4.56041 18.1847 4.58924C18.2924 4.61808 18.4 4.64692 18.4591 4.74926L18.4985 4.81749C18.5378 4.88572 18.6455 4.91456 18.6993 4.92898C18.7872 4.9237 18.8751 4.91842 18.9237 4.84492C18.9919 4.80552 19.0404 4.73202 19.0352 4.64409C19.0299 4.55616 19.0246 4.46824 18.9511 4.4197L18.9117 4.35147C18.7791 4.2006 18.7633 3.93682 18.968 3.81864L23.2425 0.350036C23.9339 -0.185626 24.892 -0.101941 25.4617 0.569801L27.0635 2.55619L4.30885 15.6936L4.28915 15.6595ZM0.933648 20.3259C0.618508 19.7801 0.527754 19.1502 0.686359 18.5583L0.584014 18.6174C-0.0877278 19.1871 -0.205526 20.1649 0.364251 20.8366L3.43507 24.6585L0.933648 20.3259ZM30.2724 3.38719L37.3631 15.6685C37.7964 16.4191 37.5368 17.3877 36.7863 17.821L32.0102 20.5785C31.8056 20.6966 31.5903 20.639 31.4721 20.4343L31.4327 20.366C31.354 20.2296 31.1728 20.1522 31.0022 20.2507C30.8317 20.3492 30.7884 20.5106 30.8869 20.6812L30.9263 20.7494C31.0445 20.9541 30.9868 21.1693 30.7821 21.2875L10.859 32.7901C10.1085 33.2234 9.1399 32.9639 8.70658 32.2134L1.61594 19.932C1.18263 19.1815 1.44216 18.2129 2.19269 17.7796L22.1499 6.25729C22.3546 6.13911 22.5698 6.19678 22.688 6.40147L22.7274 6.4697C22.8062 6.60616 22.9873 6.68353 23.1579 6.58505C23.3284 6.48657 23.3717 6.32514 23.2732 6.15456L23.2338 6.08633C23.1157 5.88164 23.1733 5.6664 23.378 5.54822L28.1541 2.79075C28.9046 2.35743 29.8732 2.61697 30.3065 3.3675L30.2724 3.38719ZM8.28438 25.1793C8.40256 25.384 8.6178 25.4417 8.82249 25.3235C9.02718 25.2053 9.08485 24.9901 8.96667 24.7854L6.99705 21.3739C6.87887 21.1692 6.66363 21.1115 6.45894 21.2297C6.25425 21.3479 6.19658 21.5631 6.31476 21.7678L8.28438 25.1793ZM11.8542 25.8474C11.736 25.6428 11.5208 25.5851 11.3161 25.7033L9.61034 26.6881C9.40565 26.8063 9.34797 27.0215 9.46615 27.2262L10.451 28.9319C10.5691 29.1366 10.7844 29.1943 10.9891 29.0761L12.6948 28.0913C12.8995 27.9731 12.9572 27.7579 12.839 27.5532L11.8542 25.8474ZM7.52102 18.3422C7.40284 18.1375 7.1876 18.0798 6.98291 18.198C6.77822 18.3162 6.72055 18.5314 6.83873 18.7361L9.99012 24.1945C10.1083 24.3992 10.3235 24.4568 10.5282 24.3387C10.7329 24.2205 10.7906 24.0052 10.6724 23.8006L7.52102 18.3422ZM23.5833 15.4367C23.2091 14.7886 22.3678 14.592 21.7052 15.02L20.2291 16.0087L16.8949 13.385C16.3947 12.9915 15.6861 12.9458 15.1402 13.2609L14.3556 13.7139L18.3633 17.2678L15.2944 19.3581L14.1957 18.4004C13.8229 18.0698 13.2362 17.9991 12.8268 18.2355L12.5539 18.3931L14.3248 19.9634L13.9836 20.1603C13.6281 20.4111 13.518 20.9295 13.7346 21.3048C13.9513 21.6801 14.4553 21.8439 14.8306 21.6273L15.0353 21.5091L15.4401 23.5497L15.713 23.3921C16.1565 23.1361 16.3742 22.6465 16.2546 22.1242L16.0102 20.9917L19.3443 19.2032L20.3735 24.2948L21.1581 23.8418C21.704 23.5267 22.0187 22.8901 21.928 22.2602L21.3282 18.1488L22.9369 17.311C23.5851 16.9368 23.8211 16.1637 23.4468 15.5155L23.5833 15.4367ZM30.2601 18.1774C30.1419 17.9727 29.9267 17.915 29.722 18.0332C29.5173 18.1514 29.4596 18.3666 29.5778 18.5713L29.6763 18.7419C29.7945 18.9466 30.0097 19.0043 30.2144 18.8861C30.4191 18.7679 30.4768 18.5527 30.3586 18.348L30.2601 18.1774ZM29.2359 16.4034C29.1177 16.1988 28.9025 16.1411 28.6978 16.2593C28.4931 16.3774 28.4354 16.5927 28.5536 16.7974L28.7506 17.1385C28.8687 17.3432 29.084 17.4009 29.2887 17.2827C29.4934 17.1645 29.551 16.9493 29.4329 16.7446L29.2359 16.4034ZM28.2117 14.6295C28.0935 14.4248 27.8783 14.3671 27.6736 14.4853C27.4689 14.6035 27.4112 14.8187 27.5294 15.0234L27.7264 15.3645C27.8445 15.5692 28.0598 15.6269 28.2645 15.5087C28.4692 15.3905 28.5268 15.1753 28.4087 14.9706L28.2117 14.6295ZM27.1875 12.8555C27.0693 12.6508 26.8541 12.5931 26.6494 12.7113C26.4447 12.8295 26.387 13.0447 26.5052 13.2494L26.7022 13.5906C26.8203 13.7953 27.0356 13.8529 27.2403 13.7348C27.445 13.6166 27.5026 13.4013 27.3845 13.1966L27.1875 12.8555ZM26.1633 11.0815C26.0451 10.8768 25.8299 10.8192 25.6252 10.9373C25.4205 11.0555 25.3628 11.2708 25.481 11.4754L25.678 11.8166C25.7961 12.0213 26.0114 12.079 26.2161 11.9608C26.4208 11.8426 26.4784 11.6274 26.3603 11.4227L26.1633 11.0815ZM25.1391 9.30755C25.0209 9.10286 24.8057 9.04519 24.601 9.16336C24.3963 9.28154 24.3386 9.49678 24.4568 9.70147L24.6537 10.0426C24.7719 10.2473 24.9872 10.305 25.1919 10.1868C25.3966 10.0686 25.4542 9.85339 25.336 9.6487L25.1391 9.30755ZM24.2331 7.73827C24.1149 7.53358 23.8996 7.4759 23.6949 7.59408C23.4903 7.71226 23.4326 7.9275 23.5508 8.13219L23.6492 8.30276C23.7674 8.50745 23.9827 8.56513 24.1874 8.44695C24.392 8.32877 24.4497 8.11353 24.3315 7.90884L24.2331 7.73827ZM29.0606 9.95459C28.9424 9.7499 28.7272 9.69223 28.5225 9.81041C28.3178 9.92859 28.2601 10.1438 28.3783 10.3485L30.3479 13.76C30.4661 13.9647 30.6814 14.0224 30.886 13.9042C31.0907 13.786 31.1484 13.5708 31.0302 13.3661L29.0606 9.95459ZM30.1755 7.94634C30.0573 7.74165 29.842 7.68397 29.6373 7.80215C29.4327 7.92033 29.375 8.13557 29.4932 8.34026L32.6446 13.7986C32.7627 14.0033 32.978 14.061 33.1827 13.9428C33.3874 13.8246 33.445 13.6094 33.3269 13.4047L30.1755 7.94634Z" fill="#D40E14"/>
</svg>
