<svg width="15" height="15" viewBox="0 0 15 15" fill="none" xmlns="http://www.w3.org/2000/svg">
<path d="M7.5 15C9.48912 15 11.3968 14.2098 12.8033 12.8033C14.2098 11.3968 15 9.48912 15 7.5C15 5.51088 14.2098 3.60322 12.8033 2.1967C11.3968 0.790177 9.48912 0 7.5 0C5.51088 0 3.60322 0.790177 2.1967 2.1967C0.790176 3.60322 0 5.51088 0 7.5C0 9.48912 0.790176 11.3968 2.1967 12.8033C3.60322 14.2098 5.51088 15 7.5 15Z" fill="#fff"/>
<path d="M7.3645 11.7401C7.13623 11.7401 6.95496 11.7267 6.82068 11.6998C6.69088 11.6774 6.59688 11.6416 6.5387 11.5924C6.44023 11.5118 6.39099 11.3776 6.39099 11.1896V6.5033C6.39099 6.23474 6.44023 6.05123 6.5387 5.95276C6.59688 5.89905 6.69088 5.85205 6.82068 5.81177C6.95048 5.76701 7.07581 5.7312 7.19666 5.70435C7.57263 5.64168 7.80762 5.61035 7.90161 5.61035C7.96427 5.61035 8.0247 5.61707 8.08289 5.63049C8.14555 5.64392 8.19478 5.66406 8.23059 5.69092C8.30221 5.75358 8.33801 5.91024 8.33801 6.16089V11.1896C8.33801 11.3015 8.32682 11.3865 8.30444 11.4447C8.28206 11.4984 8.24402 11.5476 8.19031 11.5924C8.07841 11.6909 7.80314 11.7401 7.3645 11.7401ZM7.3645 4.82483C7.20785 4.82483 7.06238 4.79797 6.9281 4.74426C6.79382 4.69055 6.67521 4.6167 6.57227 4.52271C6.4738 4.42871 6.39547 4.31905 6.33728 4.19373C6.27909 4.0684 6.25 3.93412 6.25 3.79089C6.25 3.59395 6.30595 3.41044 6.41785 3.24036C6.53422 3.07027 6.68193 2.94718 6.86096 2.87109C7.04 2.79053 7.20785 2.75024 7.3645 2.75024C7.58382 2.75024 7.78076 2.80619 7.95532 2.91809C8.13436 3.02551 8.2664 3.16203 8.35144 3.32764C8.43648 3.49325 8.479 3.64766 8.479 3.79089C8.479 4.00574 8.4141 4.20044 8.2843 4.375C8.1545 4.54508 8.00456 4.6637 7.83447 4.73083C7.66886 4.7935 7.51221 4.82483 7.3645 4.82483Z" fill="#092A5E"/>
</svg>
